<svg xmlns="http://www.w3.org/2000/svg" width="32" height="32" viewBox="0 0 31.999999 31.999996"><path d="M16.256 27.55s.376-.357.434-.457c.057-.1.274-.528.375-.571.1-.043.36-.115.404-.2.043-.086-.216-.186-.346-.258-.13-.071-.202-.628-.202-.628l-.145.143s-.202.471-.317.8c-.116.328-.203 1.172-.203 1.172zm-3.002 3.63c.1-.786.26-1.129.26-1.486s.014-.715.086-1.115.101-1.028.087-1.343c-.015-.314-.26-1.129-.433-1.457-.174-.33-.39-.786-.491-.915-.112.139-.303.2-.433.4s-.491.229-.664.229c-.174 0-.679.114-.896.086-.216-.029-.606-.115-.78-.029-.172.086-.49.057-.692.2-.202.143-.75.986-.982 1.057-.23.072-.447.058-.577-.285-.13-.343-.289-.686-.289-.686s-.462.357-.693.4c-.231.043-.91.386-1.01.486-.102.1-.361.185-.52.314-.16.129-.419.229-.607.086-.187-.143-.52-.615-.49-1 .028-.386.115-.744.115-1 0-.258.13-.587-.115-.744-.246-.157-.462-.386-.347-.629.116-.242.188-.614.404-.8a15.82 15.82 0 0 1 1.01-.771c.217-.143.275-.5.81-.572-.103-.323.028-.629.028-.629s-.202.072-.462 0c-.26-.071-.65 0-.837.057-.188.058-.361-.314-.606-.228-.246.086-.91.228-1.3.028s-.62-.643-.635-1c-.014-.357 0-.829-.144-.857-.145-.029-.838 0-1.126.143-.29.143-.809-.258-.896-.658-.086-.4.03-.557.203-.714.173-.157.62-.529.981-.686.361-.157.448-.143.866-.229.42-.085.621-.243.78-.428.159-.186.318-.343.606-.458.29-.114.549-.128.78-.285.231-.158.635-.372.577-.915.497-.06.448.229.693.229.246 0 .376-.172.376-.172v-.343s-.347-.071-.462-.2c-.116-.128-.491-.186-.607-.486-.115-.3-.462-.486-.606-.829-.144-.342-.115-.614-.058-.8a.897.897 0 0 1 .491-.514c.246-.1.52-.143.52-.143s-.087-.157-.433-.257c-.347-.1-.159-.272-.462-.372-.303-.1-.274-.2-.491-.286-.217-.085-.173-.3-.375-.371-.202-.072-.16-.643-.03-.8.13-.158.29-.272.376-.343.087-.072-.058-.215-.173-.372-.116-.157-.332-.586-.347-.8-.014-.214-.245-.686-.317-.772-.072-.085.23-.143.49-.285.26-.143.492-.4.665-.43.173-.028.722-.228 1.068-.228.347 0 .866.114 1.01.114.145 0 .477.13.694 0 .216-.128.392-.058.78-.342.165-.123.187.057.432.257.246.2.318.157.491.228.173.072.693.315.693.315s-.188-.257-.086-.6c.1-.343.187-.944-.03-1.258-.216-.314-.173-.6-.115-.8.058-.2-.216-.4-.202-.772.014-.371-.173-.328-.087-.8.087-.472.203-.657.578-.743.375-.086 1.04-.086 1.3-.172.259-.085.548.1.779.086.23-.014.808.029 1.212.229.405.2.997.457 1.155.457.16 0 .13.214.607.057.476-.157 1.17.772 1.357.972.187.2.765 1.2.837 1.343.072.143.52.457.606.6.312-.238.434-.285.434-.285s-.044-.415-.116-.6c-.072-.186.058-.844.231-1.172.173-.329.448-.486.549-.486.1 0 .62.043.866 0 .245-.043-.058-.286-.116-.772-.057-.486-.144-.5-.057-.8.086-.3.202-.8.375-.857.173-.058.289-.372.462-.372.173 0 .058.1.433.114.375.015.78.043.953.143.173.1.447.4.577.543.13.143.42.386.607.658.187.271.245.414.404.543.159.128-.072.371.115.571.188.2.246.5.462.515.217.014.477-.086.693.285.217.372.318.43.231.686-.086.258-.274.4.03.686.302.286.447.386.606.372.158-.015.202.343.173.714-.029.372-.434.73-.376 1.2.03.24.217.243.347.286.13.043.375.286.49.543.116.258.073.858 0 1.086-.071.229-.216.758-.23 1-.015.244-.274.43-.145.658.13.229.13-.071.376-.086.245-.014.346.543.462.686.115.143.115.429.202.372.087-.057.216-.615.462-.858.245-.243.635-.557.78-.771.144-.215.274-.386.49-.4.217-.015.275.328.347.457.072.128.375-.2.52-.286.144-.086 1.227-.686 1.588-.743.36-.057.534-.1.808.171.274.272.39.458.375.772-.014.314.188.9.174 1.286-.015.386-.058.743.115 1.058.173.314-.072.714.058 1.114.13.4.13.772-.029 1.029-.159.257-.505 1-.549 1.115-.043.114-.317.5-.462.686-.144.185-.216.342-.375.543-.159.2-.549.428-.635.628.508.07.62.358.866.515.245.157.289.614.433.6.145-.014.376.243.26.486-.115.243-.217.371-.52.371-.303 0-.332.243-.49.372-.16.128-.174.343-.174.514 0 .172-.086.5-.317.6-.231.1-.737.372-1.126.372-.39 0-.607.229-.751.257-.145.029-.173.557-.318.629-.144.071-.75.271-1.068.457-.318.186-.52.3-.173.372.346.071.505.4.49.486-.014.085.13.614-.057.828.41.19.23.415.462.6.23.186.332.415.404.6.072.186.115.758-.231 1.058-.347.3-.852.229-1.155.229-.15.336-.577-.015-.693-.029-.115-.014-.216.072-.433-.086-.217-.157-.173.415-.606.315-.433-.1-1.17-.4-1.386-.6-.217-.2-.78-.8-.895-1-.116-.2-.535-.03-.751.114-.217.143-.347.014-.462.114-.116.1-.635.829-.895 1.115-.26.285-.477.171-.578.342-.1.172-.13.3-.548.658-.419.357-.578.414-.78.657-.202.243-.736.643-.924.829-.187.186-.317.486-.462.743-.144.257-.23.043-.375.457-.144.415-.433.858-.202 1.23.23.37.058.314.058.314s-.825.192-1.646.057c-.588-.097-1.135-.445-1.56-.772z"/><path d="M13.947 26.636c.086-.286.303-.557.52-.829.216-.271.389-.357.461-.543.072-.186-.144-.486-.144-.486l-1.53.029s.216.557.346.886c.13.329.12.724.347.943zm1.53 5.359c-.072-.456-.058-1-.058-1.3 0-.3.217-1.144.404-1.544.188-.4.318-.815.693-1.2.376-.386.405-.772.751-1.03.346-.256.577-.485.808-.485.231 0 .679.186.896.257.216.072.49.172.49.172s-.23.371-.462.514c-.23.143-.678.429-.837.572-.159.143-.549.585-.722.771-.173.186-.534.543-.664.858-.13.314-.332.428-.462.628s-.216.572-.23.8c-.015.23.15.732.115.915-.13.064-.316.071-.722.072zm-1.992-.65c.06-.536.288-1.465.346-1.851.058-.386.188-1.515.173-1.772-.014-.257.03-.457.202-.772.174-.314.592-.743.693-1 .101-.257.607-.714.607-.714s.635.257.78.228c-.052.385-.232.572-.232.8 0 .23-.159 1.172-.23 1.43-.073.257-.376.642-.434.971-.058.329-.072.529-.23.915-.16.385-.203 1.229-.203 1.371 0 .143.062.541-.029 1.008-.47-.028-1.048-.321-1.443-.615zm3.291-14.883c.443.066.549 0 .693.085.144.086.385.439.491.686.106.248.202.572.087.915-.116.343-.27.533-.607.743-.337.21-.712.381-.981.286-.27-.095-.77-.162-.982-.429-.212-.267-.462-.572-.462-.886 0-.314.04-.508.202-.743.181-.263.51-.572.78-.572.269 0 .336-.152.78-.085zm7.507 6.716c.188.157.621.014.895-.057.275-.072.39.028.664.057.275.028.462-.1.607.057.144.157.216.629.086.829-.13.2-.043.414.145.543.187.128.476.457.606.629.13.171.39.514.202.886-.187.371-.404.3-.866.371-.462.072-.75-.129-1.01-.143-.26-.014-.55-.186-.751-.028-.202.157-.91.042-1.097-.143-.188-.186-.867-.7-.982-.915-.116-.214-.289-.257.058-.514.346-.257.49-.443.664-.486.173-.043.433.386.606.371.173-.014.39 0 .606.172.217.171.419.257.636.371.216.115.39.215.52.286.13.072.201.215.346.315.144.1.39-.172.26-.315a2.728 2.728 0 0 0-.751-.543c-.289-.128-.462-.171-.635-.314-.174-.143-.534-.343-.809-.372-.274-.028-.346-.157-.375-.314-.029-.157.188-.9.375-.743zm.058-10.717c.072-.415.289-.943.549-1.144.26-.2.476-.414.548-.428.072-.015.361.886.491 1.029.13.143.419.185.549-.172.13-.357.635-.929.952-1.2.318-.272.304-.343.405-.429.1-.086.23.4.346.515.116.114.217.2.491-.2s.866-.8 1.097-.858c.231-.057.924-.414 1.155-.229.231.186.217.472.26.715.043.243.202.814.202 1.086 0 .271-.072.686.058 1.229s.216 1.457.087 1.743c-.13.286-.275.615-.376.972-.1.357-.577.957-.78 1.172-.202.214-.765.828-.981 1.057-.217.229-.159.4.087.372.245-.029.433 0 .692.143.26.142.347.443.52.6.173.157.404.257.404.4 0 .143-.317.071-.462.2-.144.128-.332.157-.577.314-.245.157-.217.443-.202.743.014.3-.072.443-.606.572-.535.128-1.098.257-1.415.229-.318-.03-.347.357-.347.6s-.13.414-.462.6-1.04.514-1.501.543c-.462.028-.982.357-1.184.171.135-.63.26-.928.289-1.2.029-.271.62-.443.693-.829.072-.386.606-1.057.606-1.457.87.279 2.772-.086 2.772-.086s.115-.243 0-.372c-.116-.128-2.425.272-2.714.115.007-.388-.116-.715-.116-.715s.477-.8.549-.914c.351.044 1.574-.4 1.963-.486.39-.086 1.098-.357 1.386-.629.289-.271.462-.357.751-.714.289-.358.144-.372.144-.372s-.072-.2-.26-.028c-.187.171-.736.771-1.097.943-.36.171-.678.357-1.01.457-.332.1-1.126.357-1.328.371-.203.015.1-.228.433-.571.332-.343.794-1.2.952-1.4.16-.2.578-.372.953-.6a11.495 11.495 0 0 1 1.27-.63c.217-.085-.173-.314-.404-.228-.23.086-.996.457-1.154.486-.16.028.404-.443.577-.772.173-.329.202-.672.52-1.143.317-.472.332-.729.375-.915.043-.185.217-.657.173-.857-.043-.2-.36-.1-.375.029-.014.128-.26.614-.26.771 0 .157-.173.6-.318.858-.144.257-.173.385-.317.514-.144.129-.202.457-.289.657-.086.2-.216.286-.346.4-.13.115-.26.343-.347.543-.086.2-.505.758-.635 1-.13.244-.173-.17-.087-.57.087-.4-.043-.501.087-.915.13-.415.043-.843.115-1 .073-.158-.36-.444-.404-.258-.043.186-.058.8-.058.915 0 .114-.1.628-.115.857-.014.229 0 .5-.058.686-.058.186-.058.686-.058.886 0 .2-.158.414-.346.629-.188.214-.808.957-.924 1.171a1.31 1.31 0 0 1-.318.4c-.365-.305-.693-.442-.78-.514.086-.259.16-.529.347-.743.188-.214.13-.8.116-1.086-.015-.286-.188-.514-.116-.915.073-.4.087-1.028.174-1.371.086-.343.26-.529.144-.6-.116-.072-.404-.172-.404 0 0 .171-.188.685-.174.885.015.2-.086 1.03-.086 1.2 0 .172.058.544.058.715 0 .172.028.515-.058.772-.087.257-.217.772-.318.857-.1.086-.202 0-.317 0 .24-.462.187-.814.26-1.2.072-.386.086-.786.202-1.086.115-.3.086-.614.057-.829-.029-.214-.173-.471-.202-.771-.029-.3-.245-.272-.173-.686zM22.002 6.2c-.086-.2.13-.356.116-.6-.015-.242-.173-.4-.116-.742.058-.343.145-.672.202-.972.058-.3-.245-.257-.346-.657-.101-.4-.375-.515-.462-.8-.087-.287-.318-.515-.375-.744-.058-.228-.42-.557-.462-.743-.044-.186-.087-.357-.087-.486.31-.058.722.158.837.286.116.129.866 1.172.953 1.4.087.23.202.772.347.915.144.143.404.3.606.314.202.015.346.015.462.286.115.272-.116.557 0 .829.115.272.13.686.462.8.332.115.52.1.52.257 0 .158-.13.758-.231 1-.101.244-.26.587-.174.858.087.272.491.157.722.343.231.186.332.729.231 1.029-.1.3-.433 1.743-.577 2.029-.145.286-.39.9-.52 1.086-.13.186-.332-.2-.346-.572-.015-.371-.174-.843-.174-1.057 0-.214.217-.257.433-.429.217-.171.664-.486.693-.771.03-.286-.303-.2-.375-.086-.072.114-.231.486-.404.514-.173.029-.563.258-.693.372-.386-.417-.419-.414-.664-.457-.246-.043-.592-.015-.635-.258-.044-.242.028-.657.086-.8.058-.143.202-.028.462-.228s.549-.472.693-.743a.88.88 0 0 1 .433-.43c.159-.085.231-.2.289-.37.058-.172-.332-.258-.462-.086-.13.171-.217.443-.433.457-.217.014-.101.3-.26.371-.159.072-.375.329-.433.458-.058.128-.231.152-.318.114.08-.563.015-.757 0-.972-.014-.214 0-.286.173-.343.174-.057.318-.271.376-.428.058-.158.289-.258.404-.515.116-.257-.216-.343-.318-.228-.1.114-.274.485-.404.571-.13.086-.144.429-.23.229zm-4.735 2.573c.043-.472.072-1.258.058-1.6-.015-.343-.116-1 0-1.23.115-.228.202-.371.404-.514.202-.143.303-.486.231-.772-.072-.285-.116-.928.058-1.114.173-.186.418-.286.78-.314.36-.03.649-.03.721-.315.072-.286-.086-.514-.173-.8-.087-.286-.058-.615.058-1 .115-.386.26-.686.606-.686.073.454 0 .7.231.857.231.157.245.443.49.686.246.243.16.443.318.686.16.243.405.7.52.943.116.243.303.172.289.372-.015.2-.26.485-.26.771 0 .286.043.472.087.715.043.243-.16.6-.116.943.043.343.043.857 0 1.114-.31-.14-.332-.114-.577-.514-.246-.4-.217-.386-.462-.657-.246-.272-.621-.843-.809-1.144-.187-.3-.577-.571-.693-.8-.115-.228-.462.043-.346.143.115.1.404.386.577.686.174.3.419.8.635.943.217.143.333.357.491.658.16.3.304.643.52.8.217.157.549.386.664.571.116.186-.043.843-.058 1-.014.158-.866.215-1.068 0-.202-.214-.549-.514-.78-.8-.23-.285-.65-.657-.692-.971-.044-.315-.462-.186-.405-.057.058.128.246.543.405.685.158.143.187.486.404.658.216.171.447.471.548.6.101.129-.606.229-1.01.2-.404-.029-.433.214-.866.171-.434-.042-.708.015-.809-.314-.1-.329-.014-.129.029-.6zm-4.389-3.858c-.274-.415-.462-.558-.635-.8-.173-.243-.347-.3-.549-.572-.202-.272-.39-.314-.52-.486-.13-.171-.534-.414-.692-.6-.16-.186-.52-.243-.693-.315-.174-.071.159-.185.404-.2.245-.014.693.1 1.126.115.433.014 1.025.071 1.386.257.36.186.91.514 1.097.514.188 0 .722-.214 1.068.086.347.3.52.715.78 1.058.26.343.347.685.606.914.26.229.491.643.607.857.115.215.086 1.244.086 1.515 0 .272-.086 1.2-.115 1.43-.029.228-.058.356-.231.485-.173.129-.491-.3-.722-.4-.23-.1-.447-.272-.462-.6-.014-.329.188-.643.144-.858-.043-.214-.115-.928-.057-1.171.057-.243-.072-1.015-.145-1.258-.072-.243-.086-.357-.144-.571-.058-.215-.347.142-.318.314.03.171.16 1.014.174 1.229.014.214-.073.414 0 .771.072.358.13.43.086.686-.043.258-.13.815-.173.972-.043.157-.159.043-.26-.229-.1-.271-.173-.643-.404-.771-.231-.129-.448-.886-.462-1.115-.015-.228-.404-.586-.49-.8-.088-.214.042-.443.057-.829.014-.386.029-.743-.145-1-.173-.257-.36-.129-.462-.429-.1-.3-.577-.143-.49.029.086.171.36.5.52.714.158.215.114.676.028 1.058zm-1.443 4.887c-.203-.215-.506-.515-.636-.829-.13-.314-.159-.629.116-.772-.13-.348-.578-.686-.722-.886-.144-.2-.433-.6-.52-.771-.086-.172-.202-.443-.115-.686.086-.243.086-.315.086-.543 0-.229-.187-.557-.26-.772-.072-.214.102-.543 0-.8-.1-.257-.375-.772-.375-1.057 0-.286.159-.458.347-.315.187.143.534.257.693.257.158 0 .13.315.404.515s.274-.015.52.428c.245.443.36.586.606.715.245.129.447.357.548.543.102.186.29.3.55.572.259.271.605.585.663.857-.375-.208-.476-.1-.693-.314-.216-.215-.534-.258-.693-.4-.159-.143-.664-.344-.837-.486-.173-.143-.462.1-.26.257s.318.343.549.371c.23.029.606.343.895.515.288.171.144.286.433.371.289.086.577.358.722.429.144.071.693.872.722 1.115-.466-.201-.592-.1-.838-.258-.245-.157-.404-.128-.75-.343-.347-.214-.564-.114-.838-.457s-.303-.257-.462-.429c-.159-.171-.49.043-.317.258.173.214.49.557.721.714.231.157.52.186.78.343.26.157.433.172.837.372.405.2.462-.043.722.343.26.385 0 .543-.115.6-.116.057-.347.186-.722 0-.376-.186-.39-.2-.722.085-.332.286-.837.672-1.04.458zm-2.484 1.2l-.462-.229s.058-.185-.144-.457c-.202-.271-.563-.886-.78-1.057-.216-.172-.591-.5-.837-.6-.245-.1-.635-.315-.808-.4-.174-.086-.246-.243-.433-.372-.188-.129-.39-.286-.549-.343-.159-.057-.433-.329-.635-.314-.202.014-.39-.072-.52-.086.327-.272.563-.357.953-.372.39-.014.808-.014 1.184 0 .375.015.722-.028 1.126-.143.404-.114.577-.142.577-.142s.39.2.549.285c.159.086.866.4 1.097.429.231.029.346.143.462.286.115.143.274.386.404.514.13.129.303.157.173.4-.13.243-.028.386.03.515.057.128.187.457.346.6.159.143.332.429.433.514.101.086.173.172.173.172s-.433.557-.606.743c-.173.186-.549.586-.664.714-.285-.122-.433-.357-.433-.543 0-.185.028-.557.115-.743.087-.185-.188-.371-.202-.686-.014-.314.087-.528-.087-.743a3.968 3.968 0 0 1-.433-.686c-.072-.157-.286-.533-.404-.628-.118-.096-.404.114-.231.286.173.171.361.514.433.685.072.172.246.472.347.572.1.1-.087.529-.03.686.059.157.188.371.174.486-.014.114-.222.51-.318.657zm-.257 4.643s-1.302-.085-1.562-.156-.895-.271-.952-.4c.058-.442.13-.615.115-.743-.014-.129-.217-.172-.462-.286-.245-.114-1.054-.786-1.155-1.086-.101-.3-.216-.714-.029-.943.188-.229.722-.286.924-.286.202 0 .26-.243.03-.429-.232-.185-1.04-.6-1.243-.8-.202-.2-.65-.328-.548-.657.101-.329.188-.443.404-.572.217-.128.043-.4-.144-.628-.188-.23-.534-.915-.549-1.086.376.23.607.042.809.114.202.071.433.186.635.343.202.157.462.6.78.657.317.057.981.457 1.27.686.289.229.88 1.015.953 1.115.072.1-.174.271-.347.228-.173-.043-.75-.214-1.155-.343-.404-.128-.837-.257-1.155-.285-.317-.029-.375.228-.115.371s.563.143 1.04.257c.476.115.75.243 1.01.286.26.043.592-.1 1.155.2.563.3 1.083.657 1.212.858-.168.326-.303.828-.461.914-.16.086-.982.129-1.415.029-.433-.1-.867-.072-1.126-.115-.26-.043-.39-.114-.549-.2-.159-.085-.52-.157-.52.086s.318.343.664.457c.347.115.794.057 1.098.115.303.057.62.171.981.171s.563-.114.693-.029c-.147.373-.144.8-.144.8s-.433.072-.606.058c-.174-.014-.203.314-.03.314.174 0 .347.057.434.057-.042.369.16.95.06.928zm.113 4.903c-.419-.015-1.545-.158-1.963-.029-.419.129-.838.2-1.126.114-.29-.085-.679.043-.953-.114-.275-.157-.592-.143-.982-.057s-1.17-.057-1.184-.4c-.014-.343.058-.83 0-1.115-.058-.286-.173-.386-.548-.343-.376.043-1.011 0-1.213.143-.202.143-.592-.3-.462-.572.13-.271.404-.528.837-.685.433-.158 1.025-.2 1.386-.43.361-.228.578-.6 1.04-.742.462-.143.981-.257 1.183-.6.203-.343.376-.472.52-.458.145.015.505.33.809.372.303.043.952.171 1.386.257a20.25 20.25 0 0 0 1.126.172s.1.814.086.971c-.014.158.03.515.03.515s-.448.1-.78-.029a2.897 2.897 0 0 1-.838-.514c-.144-.143-.144-.415-.26-.458a571.87 571.87 0 0 1-.837-.314l-.087.343s.361.157.549.2c.188.043.448.643.606.772-.45-.123-.49.028-.866-.143-.375-.172-.837-.157-1.126-.429-.289-.271-.173.157-.375.257s-1.054.129-1.3.229c-.245.1-.78.3-.981.343-.202.043-.289.143-.318.286-.029.143.058.243.347.171.288-.071.563-.271.808-.286.245-.014.448-.085.75-.114.304-.028.535-.157.751-.2.217-.043.665.172.665.172s-.231.214-.434.371c-.202.157-.52.357-.664.486-.144.129-.375.486-.462.657-.086.172-.173.343-.173.515 0 .171.173-.057.433-.372.26-.314.39-.357.607-.457.216-.1.332-.4.52-.515.187-.114.476-.543.663-.628.188-.086.491.185.924.171.433-.014 1.199.114 1.357.086-.508.138-.375.257-.606.314-.23.057-.303.2-.433.4s-.303.243-.433.372-.116.529 0 .514c.115-.014.317-.285.548-.457.231-.171.231-.414.462-.486.231-.071.448-.086.636-.343.187-.257.158-.428.317-.428.16 0 .506.057.722.2.217.143.072.2-.173.514-.246.314-.396.891-.491 1.8zm3.725 4.144c-.275.242-.26.457-.78.543-.52.085-1.458.014-1.703 0a1.174 1.174 0 0 0-.895.343c-.275.285-.708.728-.896.914-.187.186-.433-.486-.404-.657.03-.172.101-.4 0-.486-.1-.086-.664.143-.866.343-.202.2-.924.543-1.126.657-.202.114-.679.215-.78.315-.1.1-.23.071-.404-.086-.173-.157-.202-.6-.115-.972.086-.371-.073-.543.057-.743.13-.2.477-.171.462-.4-.014-.229-.332-.4-.52-.4-.187 0-.36-.057-.375-.286-.014-.229.087-.414.433-.686.347-.271.924-.629 1.155-.829.231-.2.462-.243.607-.285.144-.043-.069-.422 0-.572.068-.15-.044-.3.346-.429.39-.128.794-.128 1.213-.114.418.014.953.057 1.04.114.086.057.274.343.26.543-.45.017-.68.2-.896.143-.217-.057-.563-.128-.722-.228a.626.626 0 0 0-.462-.086c-.13.028-.043.214.231.286.275.071.664.328.895.343.231.014.664.071.838.028.173-.043.317-.086.317-.086s.13.329.26.43c.13.1.202.256.202.256s-.404.229-.78.343c-.375.115-1.226.229-1.587.286-.361.057-1.256.243-1.588.229-.333-.015-.073.343.173.343.245 0 .91-.086 1.155-.115-.45.326-.794.372-1.069.629-.274.257-.794.8-.866.972-.072.171.246.428.347.257.1-.172.52-.729.808-.915.289-.185.693-.328 1.01-.485.318-.158.852-.543 1.069-.6.217-.058.693-.286.924-.315.231-.029.404-.114.606-.086-.445.494-.952 1.458-1.04 1.63-.086.17.13.37.29.17.158-.2.476-.642.606-.914.13-.271.419-.686.606-.8.188-.114.693.514.693.715 0 .2-.1.585-.173.8-.072.214.144.4.347.143.202-.258.23-.558.23-.8.332.133.67.282.867.6z" fill="#14a93b"/><path d="M11.335 10.75s.721.392.848.502c.127.11.069-.254-.166-.493a2.016 2.016 0 0 1-.323-.403l-.359.395zm6.943 15.457c.475.093.765.186 1.068.2.303.015.794.072.866-.057.072-.128.072-.486-.029-.6-.1-.114-.304-.09-.606 0-.313.094-1.175.27-1.3.457zm-8.865-5.516c-.12-.166-.26-.5-.202-.857.058-.357.13-.443.202-.6.18.218.26.243.26.429 0 .185.032.643.03.771-.007.268-.183.405-.29.257zM10.8 22.95c.231-.186.39-.357.578-.486-.16-.467-.448-.857-.578-.971-.13-.115-.837-.315-.953-.315-.115 0-.332.086-.288.229.043.143.476.886.664 1 .188.115.337.369.577.543zm2.195 1.286s.433-.528.433-.686c0-.157-.231-.457-.231-.457s-1.054-.271-1.3-.343c-.245-.071-.65.215-.721.4.463.501.548.7.895.915.346.214.924.171.924.171zm1.617.086s-1.14.186-1.386.057c.347-.475.563-.943.577-1.114.015-.172.188-.172.289-.115.1.057.44.296.52 1.172zm-4.73-6.329c-.453-.273-.857-.473-.814-.959.043-.486 0-.428.058-.628.479-.198 1.386-.743 1.674-1.058.289-.314.26-.671.318-.914.058-.243.433-.458.635-.6.202-.143.26-.515.202-.83-.058-.314.116-.685.318-1.057.202-.371.274-.543.317-.686.044-.143-.591-1.014-.606-1.143.249-.168.75-.514.75-.514s.362.228.578.228c.217 0 .78-.171 1.184-.514.404-.343.477-.429.549-.429.072 0 .78.572 1.155.772.375.2.91.514.952.657-.29.29-.404.758-.49.915-.087.157-.734.977-.636 1.657.061.42.249 1.03.203 1.4-.038.303.447.387.433.086-.015-.3-.188-1.143-.202-1.4a2.094 2.094 0 0 1 .23-1.029c.188-.343.405-.643.434-.829.028-.185.317-.485.548-.6.231-.114.765-.471.953-.629.188-.157.361-.071.693-.114.332-.043.837-.128 1.04-.143.202-.014.88.272 1.212.115.332-.158.708-.115.866-.029.16.086.433.6.433.6s-.346.372-.52.543c-.173.172-.418.6-.375.943.315.02.376-.171.376-.171s-.03-.415.144-.543c.173-.129.477-.357.606-.486.202.225.217.8.347 1.057.13.258.433 1.086.606 1.4.174.315.246.672.347.944.1.271-.101.786-.173 1.057-.073.272-.073.843-.26 1.258-.188.414-.073.829-.29.972-.216.142-.361.14-.72.285-.515.208-.708.572-.983.6-.274.03-.433.13-.693.058a1.245 1.245 0 0 0-.895.085c-.303.158-.288.372-.086.315.202-.057.49-.1.635-.115.144-.014.332.029.549.058.216.028.851-.086 1.068-.172.216-.086.115-.343.548-.543.434-.2.722-.271.867-.286.144-.014.736.057.981.315.246.257.512.373.549.628.079.542.087.958-.202 1.458-.289.5-.433.729-.635.886-.202.157-.52.729-.578 1.229-.058.5-.188 1.072-.26 1.257a1.52 1.52 0 0 1-.577.743c-.361.243-1.314.658-1.761.886-.448.229-.852.158-1.213.2-.361.043-.88.172-1.242.343-.36.172-.924.472-1.155.486-.23.015-.447 0-.52-.228-.072-.229-.216-.9-.115-1.23.101-.328.043-1.1.231-1.886.188-.785-.115-1.2-.115-1.2l-.26.114s.115.443.057.686c-.057.243-.274.986-.288 1.4-.015.415.043.987-.03 1.172-.071.186-.389.272-.577.23-.187-.044-.943-.206-1.068-.515-.145-.36-.26-.986-.346-1.286-.087-.3-.506-.672-.867-.686-.36-.015-.837.028-1.183-.086-.347-.114-.722-.114-.838-.229-.115-.114-.26-.586-.577-.943-.318-.357-.996-.543-1.242-.543.138-.323.09-.685 0-1.029-.13-.5-.274-.871-.144-1.457.553-.122.88-.315 1.241-.372.361-.057.809-.014 1.155-.114.347-.1.231-.014.664-.029.434-.014.881-.085 1.098-.2.216-.114.462-.185.577-.114-.09.286-.058.714-.058.714s-.606.272-.924.4a3.702 3.702 0 0 0-.78.458c-.172.128-.086.229-.086.229s.145.014.52-.172.722-.343.982-.429c.26-.085.346-.2.346-.2s.289.415.433.543c-.32.387-.289.486-.289.486l.145.086s.173-.214.375-.229c.202-.014.26.143.26.143s-.072 1.9-.029 2.23c.318.03.376-.058.376-.058s.014-1.014.057-1.429c.044-.414.058-.686.058-.686s.534.186.635-.057c.385.802.592.8.722.886.13.086.361.372.462.543.101.172.087.657.173.857.087.2.13.543.174.686.295.092.26-.028.26-.028l.057-.315s-.13-.314-.173-.743c-.043-.428-.101-.571-.318-.8-.216-.228-.895-.843-.953-1.172.394-.05.491-.071.665-.085.173-.015.39.257.721.514.332.257 1.199.929 1.386 1.058.103-.082.174-.23.174-.23s-.91-.814-1.126-1.057c.745.097 1.357-.2 1.357-.2l-.116-.314s-.303.071-.75.143c-.448.071-1.055.1-1.156-.029-.1-.128-.375-.285-.375-.285s.837-.558.549-1.43a4.505 4.505 0 0 0 1.79-.685s.029-.229-.116-.172c-.144.057-.52.2-.78.257-.26.058-.606.258-.865.286l-.318-.514s.65-.786.808-1c.16-.215.462-.43.462-.43l-.202-.2s-1.097 1.244-1.27 1.43a2.2 2.2 0 0 1-.202-.143s.346-.457.346-.715c0-.257.14-.96.03-1.4-.321.1-.405.229-.405.229s.1.343.058.686c-.044.342-.174.8-.29.943-.287-.225-1.096-.029-1.096-.029s-.376-.786-.52-1.229c-.144-.443-.289-1.257-.289-1.257s-.303-.315-.404-.286c-.101.028.106.315.087.6-.026.373.028.486.202.772.173.285.39 1.171.462 1.371-.178.117-.376.143-.376.143s-.476-.371-.635-.485c-.159-.115-.245-.372-.346-.715-.101-.343-.347-.943-.347-.943h-.317s.144.357.26.714c.115.358.086.786.288 1.03.202.242.78.6.78.6l-.347.542s-1.819-1.114-2.165-1.286c-.347-.171-.722.086-.722.086l.26.143s.635.129.981.343c.347.214.91.7 1.069.914-.445.173-.574.28-.78.258-.281-.031-1.01.028-1.357.057-.346.028-.52.14-.75.143-.554.007-1.055.228-1.584.444zm-.757-2.098c-.034-.939-.119-1.487.347-2.605.495-1.187 1.473-2.129 1.646-2.286.411.233.924.343.982.457.057.115-.332.572-.405.686-.072.115-.375-.014-.52.029-.144.043-.721.5-.808.629.2.31.231.314.231.314s.289-.386.52-.457c.23-.072.505.114.462.486-.043.371-.708 1.049-1.906 1.371.172.207.289.343.289.343s.609-.365.693-.286c.156.147-.116.386-.231.458-.116.071-1.099 1.054-1.3.86z" fill="#ffb401"/></svg>