<svg xmlns="http://www.w3.org/2000/svg" width="32" height="32" viewBox="0 0 31.999999 31.999996"><path d="M16.256 27.55s.376-.357.434-.457c.057-.1.274-.528.375-.57.1-.044.36-.116.404-.2.042-.087-.217-.187-.347-.26-.13-.07-.202-.627-.202-.627l-.144.143s-.202.47-.317.8c-.117.327-.204 1.17-.204 1.17zm-3.002 3.63c.1-.786.26-1.13.26-1.486 0-.357.014-.715.086-1.115s.1-1.03.087-1.344c-.015-.314-.26-1.13-.433-1.457-.174-.33-.39-.787-.49-.916-.113.14-.304.2-.434.4s-.49.23-.664.23c-.174 0-.68.113-.896.085-.216-.03-.606-.116-.78-.03-.172.086-.49.057-.692.2-.202.143-.75.986-.982 1.057-.23.072-.447.058-.577-.285-.13-.343-.29-.686-.29-.686s-.462.357-.693.4c-.23.043-.91.386-1.01.486-.102.1-.36.185-.52.314-.16.13-.42.23-.607.086-.187-.143-.52-.615-.49-1 .028-.386.115-.744.115-1 0-.258.13-.587-.115-.744-.246-.157-.462-.386-.347-.63.116-.24.188-.613.404-.8.217-.185.794-.628 1.01-.77.217-.143.275-.5.81-.572-.103-.323.028-.63.028-.63s-.202.073-.462 0c-.26-.07-.65 0-.837.058-.188.058-.36-.314-.606-.228s-.91.228-1.3.028-.62-.643-.635-1c-.014-.357 0-.83-.144-.857-.144-.03-.837 0-1.125.143-.29.143-.81-.258-.896-.658-.087-.4.028-.557.202-.714.173-.157.62-.53.98-.686.362-.157.45-.143.867-.23.418-.084.62-.242.78-.427.158-.186.317-.343.605-.458.29-.114.55-.128.78-.285.23-.158.635-.372.577-.915.497-.06.448.23.693.23.246 0 .376-.173.376-.173v-.343s-.346-.07-.46-.2c-.117-.127-.492-.185-.608-.485-.115-.3-.462-.486-.606-.83-.144-.34-.115-.613-.058-.8a.897.897 0 0 1 .49-.513c.247-.1.52-.143.52-.143s-.086-.158-.432-.258c-.347-.1-.16-.272-.462-.372-.303-.1-.274-.2-.49-.286-.218-.085-.174-.3-.376-.37-.202-.073-.16-.644-.03-.8.13-.16.29-.273.376-.344.087-.072-.058-.215-.173-.372-.115-.157-.33-.586-.346-.8-.014-.214-.245-.686-.317-.772-.072-.085.23-.143.49-.285s.492-.4.665-.428c.173-.03.722-.23 1.068-.23.347 0 .866.115 1.01.115.145 0 .477.13.694 0 .216-.128.392-.058.78-.342.165-.123.187.057.432.257.246.2.318.157.49.228.174.072.694.315.694.315s-.188-.257-.086-.6c.1-.343.187-.944-.03-1.258-.216-.314-.173-.6-.115-.8.057-.2-.217-.4-.203-.772.014-.37-.173-.328-.087-.8.087-.472.203-.657.578-.743.375-.086 1.04-.086 1.3-.172.26-.085.548.1.78.086.23-.014.807.03 1.21.23.406.2.998.456 1.156.456.16 0 .13.214.607.057.477-.158 1.17.77 1.358.97.187.2.765 1.2.837 1.344.072.143.52.457.606.6.313-.238.435-.285.435-.285s-.044-.416-.116-.602c-.073-.185.057-.843.23-1.17.173-.33.448-.487.55-.487.1 0 .62.044.865 0 .245-.042-.058-.285-.116-.77-.058-.487-.145-.5-.058-.8.086-.3.202-.8.375-.858.173-.058.29-.372.462-.372.172 0 .057.1.432.114.375.015.78.043.953.143.173.1.447.4.577.543.13.143.42.386.607.658.186.27.244.414.403.543.16.13-.072.372.115.572.188.2.246.5.462.515.217.014.477-.086.693.285.217.372.318.43.23.686-.085.258-.273.4.03.686.303.286.448.386.607.372.158-.015.202.343.173.714-.03.372-.434.73-.376 1.2.03.24.217.243.347.286.13.043.375.286.49.543.116.257.073.857 0 1.085-.07.23-.216.758-.23 1-.015.244-.274.43-.145.658.13.23.13-.07.375-.086.245-.014.346.543.462.686.115.143.115.43.202.372.086-.057.215-.615.46-.858.246-.243.636-.557.78-.77.145-.216.275-.387.49-.4.218-.016.276.327.348.456.072.128.375-.2.52-.286.144-.086 1.227-.686 1.588-.743.36-.057.534-.1.808.17.274.273.39.46.375.773-.015.314.187.9.173 1.286-.015.386-.058.743.115 1.058.173.315-.072.715.058 1.115s.13.772-.03 1.03c-.158.256-.504 1-.548 1.114-.043.113-.317.5-.462.685-.144.185-.216.342-.375.543-.158.2-.548.428-.634.628.508.07.62.358.866.515.245.158.29.615.433.6.145-.013.376.244.26.487-.115.243-.217.37-.52.37-.303 0-.332.244-.49.373-.16.128-.174.343-.174.514 0 .172-.085.5-.316.6-.23.1-.737.372-1.126.372-.39 0-.607.23-.75.257-.146.03-.174.557-.32.63-.143.07-.75.27-1.067.456-.317.185-.52.3-.172.37.346.072.505.4.49.487-.014.085.13.614-.057.828.41.19.232.415.463.6.23.186.332.415.404.6.072.186.115.758-.23 1.058-.348.3-.853.23-1.156.23-.148.335-.576-.016-.692-.03-.115-.014-.216.072-.433-.086-.217-.157-.173.415-.606.315-.434-.1-1.17-.4-1.387-.6-.217-.2-.78-.8-.895-1-.116-.2-.535-.03-.75.114-.218.143-.348.014-.463.114-.116.1-.635.83-.895 1.115-.26.285-.477.17-.578.342-.1.172-.13.3-.548.658-.42.357-.578.414-.78.657-.202.243-.736.643-.924.83-.187.185-.317.485-.462.742-.144.257-.23.043-.375.457-.144.416-.433.86-.202 1.23.232.372.06.315.06.315s-.826.192-1.647.057c-.588-.097-1.135-.445-1.56-.772z"/><path d="M13.947 26.636c.086-.286.303-.557.52-.83.216-.27.39-.356.46-.542.073-.186-.143-.486-.143-.486l-1.53.03s.216.556.346.885c.13.33.12.724.347.943zm1.53 5.36c-.072-.457-.058-1.002-.058-1.302 0-.3.216-1.143.403-1.543.188-.4.318-.814.693-1.2.376-.385.405-.77.75-1.028.347-.257.578-.486.81-.486.23 0 .678.186.895.257.217.072.49.172.49.172s-.23.37-.46.514c-.232.142-.68.428-.838.57-.16.144-.55.586-.722.772-.173.186-.534.543-.664.858-.13.314-.332.428-.462.628s-.216.572-.23.8c-.015.23.15.732.115.915-.13.064-.317.07-.723.072zm-1.992-.652c.06-.535.288-1.464.346-1.85.06-.386.19-1.515.174-1.772-.014-.257.03-.457.202-.772.174-.314.592-.743.693-1 .1-.257.606-.714.606-.714s.635.257.78.228c-.052.385-.232.572-.232.8 0 .23-.16 1.172-.23 1.43-.073.257-.376.642-.434.97-.058.33-.072.53-.23.916-.16.385-.203 1.23-.203 1.37 0 .144.062.542-.03 1.01-.47-.03-1.047-.322-1.442-.616zm3.29-14.882c.444.066.55 0 .694.085.143.086.384.44.49.686.106.248.202.572.087.915-.116.343-.27.533-.607.743-.337.21-.712.382-.98.287-.27-.095-.77-.162-.983-.43-.212-.266-.462-.57-.462-.885 0-.314.04-.508.202-.743.18-.264.51-.573.78-.573s.336-.152.78-.085zm7.508 6.716c.188.157.62.014.895-.057.275-.07.39.03.664.058.275.028.462-.1.607.057.143.157.215.63.085.83-.13.2-.043.413.145.542.187.128.476.457.606.63.13.17.39.513.202.885-.187.37-.404.3-.866.37-.462.073-.75-.128-1.01-.142-.26-.014-.55-.186-.75-.028-.203.157-.91.042-1.098-.143-.188-.187-.867-.7-.982-.916-.116-.214-.29-.257.058-.514.346-.257.49-.443.664-.486.173-.043.433.386.606.37.173-.013.39 0 .606.173.217.17.42.257.636.37.216.116.39.216.52.287.13.072.2.215.346.315.144.1.39-.173.26-.316a2.728 2.728 0 0 0-.75-.543c-.29-.127-.463-.17-.636-.313-.174-.143-.534-.343-.81-.372-.273-.028-.345-.157-.374-.314-.03-.156.188-.9.375-.742zm.058-10.717c.073-.414.29-.942.55-1.143.26-.2.476-.414.548-.428.072-.016.36.885.49 1.028.13.143.42.185.55-.172.13-.357.635-.93.952-1.2.318-.272.304-.343.405-.43.1-.085.23.4.346.516.117.114.218.2.492-.2s.866-.8 1.097-.858c.23-.057.923-.414 1.154-.23.23.187.217.473.26.716.043.243.202.814.202 1.086 0 .27-.072.686.058 1.23.13.542.216 1.456.087 1.742-.13.286-.274.615-.375.972-.1.357-.577.957-.78 1.172-.202.214-.765.828-.98 1.057-.218.228-.16.4.086.37.246-.028.434 0 .693.144.26.142.347.443.52.6.173.157.404.257.404.4 0 .143-.317.07-.462.2-.144.128-.332.157-.577.314-.245.157-.217.443-.202.743.014.3-.072.444-.606.573-.535.128-1.098.257-1.415.23-.318-.03-.347.356-.347.6 0 .242-.13.413-.462.6-.332.185-1.04.513-1.5.542-.463.028-.983.357-1.185.17.136-.63.26-.927.29-1.2.03-.27.62-.442.693-.828.072-.386.606-1.057.606-1.457.87.28 2.77-.086 2.77-.086s.116-.243 0-.372c-.115-.128-2.424.272-2.713.115.007-.388-.116-.715-.116-.715s.478-.8.55-.914c.35.044 1.574-.4 1.963-.486.39-.086 1.098-.357 1.386-.63.288-.27.46-.356.75-.713.29-.36.144-.373.144-.373s-.072-.2-.26-.028c-.187.17-.736.77-1.097.942-.36.17-.678.357-1.01.457-.332.1-1.126.356-1.328.37-.204.015.1-.228.432-.57.332-.344.794-1.2.952-1.402.16-.2.578-.37.953-.6.376-.228 1.054-.543 1.27-.628.217-.086-.173-.315-.404-.23-.23.087-.996.458-1.154.487-.16.028.403-.443.576-.772.173-.33.202-.672.52-1.143.317-.472.332-.73.375-.915.044-.185.218-.657.174-.857-.043-.2-.36-.1-.375.03-.015.127-.26.613-.26.77 0 .157-.174.6-.32.858-.143.257-.172.385-.316.514-.144.13-.202.457-.29.657-.085.2-.215.285-.345.4-.13.114-.26.342-.348.542-.086.2-.505.758-.635 1-.13.244-.173-.17-.087-.57.087-.4-.043-.5.087-.915.13-.415.043-.843.115-1 .073-.158-.36-.444-.404-.258-.043.185-.058.8-.058.914 0 .114-.1.628-.115.857-.014.23 0 .5-.058.687-.058.186-.058.686-.058.886 0 .2-.16.414-.347.63-.188.213-.808.956-.924 1.17a1.31 1.31 0 0 1-.32.4c-.364-.305-.692-.442-.778-.514.085-.26.16-.53.346-.744.188-.214.13-.8.116-1.086-.015-.286-.188-.514-.116-.915.073-.4.087-1.028.174-1.37.086-.344.26-.53.144-.6-.116-.073-.404-.173-.404 0 0 .17-.188.684-.174.884.015.2-.086 1.028-.086 1.2 0 .17.058.543.058.714 0 .172.028.515-.058.772-.087.257-.217.772-.318.857-.1.086-.202 0-.317 0 .24-.462.187-.814.26-1.2.072-.386.086-.786.202-1.086.114-.3.085-.614.056-.83-.03-.213-.173-.47-.202-.77-.03-.3-.245-.272-.173-.686zm-2.338-6.258c-.086-.2.13-.357.116-.6-.015-.243-.173-.4-.116-.743.058-.344.145-.673.202-.973.058-.3-.245-.257-.346-.657-.1-.4-.375-.515-.462-.8-.087-.287-.318-.515-.375-.744-.057-.228-.418-.557-.46-.743-.045-.186-.088-.357-.088-.486.31-.058.722.158.837.286.115.13.865 1.172.952 1.4.087.23.202.772.347.915.143.143.403.3.605.314.202.015.346.015.462.286.115.272-.116.557 0 .83.115.27.13.685.462.8.33.114.52.1.52.256 0 .158-.13.758-.232 1-.1.244-.26.587-.174.858.087.272.49.157.722.343.23.186.332.73.23 1.03-.1.3-.432 1.742-.576 2.028-.145.286-.39.9-.52 1.086-.13.185-.332-.2-.346-.573-.015-.37-.174-.843-.174-1.057 0-.214.217-.257.433-.43.217-.17.664-.485.693-.77.03-.286-.303-.2-.375-.086-.07.114-.23.486-.403.514-.173.03-.563.258-.693.372-.386-.417-.42-.414-.664-.457-.246-.043-.592-.015-.635-.258-.044-.242.028-.657.086-.8.06-.143.203-.028.463-.228s.55-.472.693-.743a.88.88 0 0 1 .433-.43c.158-.085.23-.2.288-.37.058-.172-.332-.258-.462-.086-.13.17-.217.443-.433.457-.217.014-.1.3-.26.37-.16.073-.375.33-.433.46-.058.127-.23.15-.318.113.08-.563.015-.757 0-.972-.014-.214 0-.286.173-.343.174-.057.318-.27.376-.428.06-.158.29-.258.405-.515.116-.257-.216-.343-.318-.228-.1.114-.274.485-.404.57-.13.087-.144.43-.23.23zm-4.735 2.572c.043-.472.072-1.258.058-1.6-.015-.343-.116-1 0-1.23.115-.228.202-.37.404-.514.2-.143.302-.486.23-.772-.072-.285-.116-.928.058-1.114.173-.186.418-.286.78-.314.36-.03.65-.03.72-.315.073-.286-.085-.514-.172-.8-.087-.286-.058-.615.058-1 .115-.386.26-.686.606-.686.073.453 0 .7.23.856.232.157.246.443.492.686.245.243.16.443.317.686.158.243.404.7.52.943.115.244.302.173.288.373-.015.2-.26.485-.26.77 0 .287.043.473.087.716.043.242-.16.6-.116.942.042.343.042.857 0 1.114-.312-.14-.333-.114-.578-.514-.246-.4-.217-.386-.462-.657-.246-.272-.62-.843-.81-1.144-.186-.3-.576-.57-.692-.8-.115-.227-.462.044-.346.144.115.1.404.386.577.686.173.3.418.8.634.943.217.143.333.357.49.658.16.3.305.644.52.8.218.158.55.387.665.572.115.186-.044.843-.06 1-.013.158-.865.215-1.067 0-.202-.214-.55-.514-.78-.8-.23-.285-.65-.657-.692-.97-.043-.316-.46-.187-.404-.058.058.128.246.543.405.685.16.142.188.485.405.657.216.17.447.47.548.6.1.13-.606.23-1.01.2s-.433.214-.866.17c-.434-.04-.708.016-.81-.313-.1-.33-.013-.13.03-.6zm-4.39-3.858c-.273-.415-.46-.558-.634-.8-.173-.243-.347-.3-.55-.572-.2-.272-.388-.314-.518-.486-.13-.17-.535-.414-.693-.6-.16-.186-.52-.243-.693-.315-.175-.07.158-.185.403-.2.245-.014.693.1 1.126.115.432.014 1.024.07 1.385.257.36.186.91.514 1.097.514.188 0 .722-.215 1.068.085.347.3.52.715.78 1.058.26.343.347.685.606.914.26.23.49.643.607.857.115.215.086 1.244.086 1.515 0 .27-.087 1.2-.116 1.428-.03.23-.058.357-.23.486-.174.13-.492-.3-.723-.4-.23-.1-.446-.272-.46-.6-.015-.33.187-.643.143-.858-.043-.214-.115-.928-.057-1.17.057-.244-.072-1.016-.145-1.26-.07-.242-.085-.356-.143-.57-.058-.215-.347.142-.318.314.028.17.158 1.014.173 1.23.014.213-.073.413 0 .77.072.358.13.43.086.686-.044.258-.13.815-.174.972-.043.157-.16.043-.26-.23-.1-.27-.173-.642-.404-.77-.23-.13-.448-.886-.462-1.115-.015-.228-.404-.586-.49-.8-.088-.214.042-.443.057-.83.014-.385.03-.742-.145-1-.173-.256-.36-.128-.462-.428-.1-.3-.577-.143-.49.03.086.17.36.5.52.713.158.215.114.676.028 1.058zm-1.442 4.887c-.203-.215-.506-.515-.636-.83-.13-.313-.16-.628.115-.77-.13-.35-.578-.687-.722-.887-.144-.2-.433-.6-.52-.77-.086-.173-.202-.444-.115-.687.086-.244.086-.316.086-.544 0-.23-.187-.557-.26-.772-.072-.214.102-.543 0-.8-.1-.257-.375-.772-.375-1.057 0-.286.158-.458.346-.315.187.143.534.257.693.257.157 0 .13.314.403.514.274.2.274-.015.52.428.245.443.36.586.606.715.244.13.446.357.547.543.102.186.29.3.55.572.26.27.605.585.663.857-.375-.21-.476-.1-.693-.315-.216-.215-.534-.258-.693-.4-.16-.143-.664-.344-.837-.486-.173-.144-.462.1-.26.256.202.157.318.343.55.37.23.03.605.344.894.516.29.17.145.286.434.37.29.087.577.36.722.43.144.07.693.872.722 1.115-.466-.2-.592-.1-.838-.258-.245-.158-.404-.13-.75-.344-.347-.214-.564-.114-.838-.457-.274-.344-.303-.258-.462-.43-.16-.17-.49.043-.317.258.173.214.49.557.72.714.232.157.52.186.78.343.26.157.434.172.838.372.406.2.463-.043.723.343.26.385 0 .543-.115.6-.116.057-.347.186-.722 0-.376-.186-.39-.2-.722.085-.332.286-.837.672-1.04.458zm-2.484 1.2l-.46-.23s.057-.184-.145-.456c-.202-.27-.563-.886-.78-1.057-.216-.172-.59-.5-.837-.6-.245-.1-.635-.315-.808-.4-.174-.086-.246-.243-.433-.372-.188-.13-.39-.286-.55-.343-.158-.057-.432-.33-.634-.314-.202.015-.39-.07-.52-.085.327-.272.563-.357.953-.372.39-.014.808-.014 1.184 0 .375.015.722-.028 1.126-.143.404-.114.577-.142.577-.142s.39.2.55.285c.158.086.865.4 1.096.43.23.028.345.142.46.285.116.143.275.386.405.514.13.13.303.157.173.4-.13.243-.028.386.03.515.057.128.187.457.346.6.16.143.332.43.433.514.1.087.173.173.173.173s-.433.557-.606.743c-.173.186-.55.586-.664.714-.285-.122-.433-.357-.433-.543 0-.185.028-.557.115-.743.087-.185-.188-.37-.202-.686-.014-.314.087-.528-.087-.743a3.968 3.968 0 0 1-.433-.686c-.072-.158-.286-.534-.404-.63-.118-.095-.404.115-.23.287.172.17.36.514.432.685.072.172.246.472.347.572.1.1-.087.53-.03.686.06.157.188.37.174.486-.015.114-.223.51-.32.657zm-.256 4.643s-1.302-.085-1.562-.156c-.26-.07-.895-.27-.952-.4.058-.442.13-.615.115-.743-.014-.13-.217-.172-.462-.286-.245-.113-1.054-.785-1.155-1.085-.1-.3-.216-.714-.03-.943.19-.23.723-.286.925-.286.202 0 .26-.243.03-.43-.232-.184-1.04-.6-1.243-.8-.202-.2-.65-.327-.548-.656.1-.33.188-.443.404-.572.217-.128.043-.4-.144-.628-.188-.23-.534-.915-.55-1.086.377.23.608.042.81.114.202.07.433.186.635.343.202.158.462.6.78.658.317.057.98.457 1.27.686.29.23.88 1.015.953 1.115.072.1-.174.27-.347.227-.173-.043-.75-.214-1.155-.343-.404-.128-.837-.257-1.155-.285-.317-.03-.375.227-.115.37s.563.143 1.04.257c.476.115.75.243 1.01.286.26.043.592-.1 1.155.2.563.3 1.083.657 1.212.858-.168.327-.303.83-.46.915-.16.086-.983.13-1.416.03-.434-.1-.868-.073-1.127-.116-.26-.044-.39-.115-.55-.2-.158-.086-.52-.158-.52.085s.32.343.665.457c.347.115.794.057 1.098.115.303.057.62.17.98.17.362 0 .564-.113.694-.028-.147.372-.144.8-.144.8s-.433.07-.606.057c-.174-.014-.203.314-.03.314.174 0 .347.058.434.058-.042.37.16.95.06.928zm.113 4.903c-.42-.016-1.545-.16-1.963-.03-.42.13-.838.2-1.126.114-.29-.085-.68.043-.953-.114-.275-.157-.592-.143-.982-.057s-1.17-.057-1.184-.4c-.015-.343.057-.83 0-1.115-.06-.286-.174-.386-.55-.343-.375.043-1.01 0-1.212.143-.202.143-.592-.3-.462-.572.13-.27.404-.528.837-.685.433-.157 1.025-.2 1.386-.428.36-.23.577-.6 1.04-.743.46-.144.98-.258 1.182-.6.203-.344.376-.473.52-.46.145.016.505.33.81.373.302.043.95.17 1.385.257.433.086 1.126.172 1.126.172s.1.814.086.97c-.015.16.028.516.028.516s-.447.1-.78-.03a2.897 2.897 0 0 1-.837-.513c-.143-.143-.143-.415-.26-.458a571.87 571.87 0 0 1-.836-.314l-.087.343s.36.157.55.2c.187.043.447.643.605.772-.45-.123-.49.028-.866-.143-.375-.172-.837-.157-1.126-.43-.29-.27-.173.158-.375.258s-1.054.13-1.3.23c-.245.1-.78.3-.98.342-.203.043-.29.143-.32.286-.028.144.06.244.348.172.288-.07.563-.27.808-.286.246-.014.45-.085.752-.114.303-.028.534-.157.75-.2.217-.043.665.172.665.172s-.23.214-.434.37c-.202.158-.52.358-.664.487-.145.13-.376.487-.463.658-.086.172-.173.343-.173.515 0 .17.173-.057.433-.372.26-.313.39-.356.607-.456.216-.1.332-.4.52-.515.187-.115.476-.544.663-.63.188-.085.49.186.924.172.434-.014 1.2.114 1.358.086-.508.138-.375.257-.606.314-.23.057-.303.2-.433.4s-.304.243-.434.372c-.13.13-.116.53 0 .514.115-.014.317-.285.548-.457.23-.17.23-.413.462-.485.23-.07.448-.086.636-.343.187-.257.158-.428.317-.428.158 0 .505.057.72.2.218.143.073.2-.172.514-.246.314-.396.89-.49 1.8zm3.725 4.143c-.275.242-.26.457-.78.543-.52.085-1.458.014-1.703 0a1.174 1.174 0 0 0-.896.343c-.275.284-.708.727-.896.913-.187.186-.433-.486-.404-.657.03-.172.1-.4 0-.486-.1-.086-.664.143-.866.343-.202.2-.924.543-1.126.657-.202.114-.68.215-.78.315-.1.1-.23.07-.404-.086-.173-.158-.202-.6-.115-.973.086-.37-.073-.543.057-.743.13-.2.477-.17.462-.4-.014-.23-.332-.4-.52-.4-.187 0-.36-.057-.375-.286-.014-.23.087-.414.433-.686.347-.27.924-.63 1.155-.83.23-.2.462-.242.607-.284.144-.043-.07-.422 0-.572.068-.15-.044-.3.346-.43.39-.127.794-.127 1.213-.113.42.014.954.057 1.04.114.087.057.275.343.26.543-.45.017-.678.2-.895.143-.217-.057-.563-.128-.722-.228a.626.626 0 0 0-.462-.086c-.13.027-.042.213.232.285.275.07.664.328.895.343.23.014.664.07.838.028.173-.043.317-.086.317-.086s.13.33.26.43c.13.1.202.256.202.256s-.404.23-.78.343c-.375.114-1.226.228-1.587.285-.36.057-1.256.243-1.588.23-.334-.016-.074.342.172.342.245 0 .91-.086 1.155-.115-.45.326-.794.372-1.07.63-.273.256-.793.8-.865.97-.072.172.246.43.347.258.1-.172.518-.73.807-.915.29-.185.693-.328 1.01-.485.318-.158.852-.543 1.07-.6.216-.058.692-.286.923-.315.23-.03.404-.114.606-.086-.445.493-.952 1.457-1.04 1.628-.086.172.13.372.29.172.158-.2.476-.643.606-.915.13-.27.42-.686.606-.8.188-.114.693.514.693.715 0 .2-.1.585-.172.8-.072.214.144.4.347.143.202-.258.23-.558.23-.8.332.133.67.282.867.6z" fill="#14a93b"/><path d="M11.335 10.75s.72.392.848.502c.127.11.07-.254-.166-.493a2.016 2.016 0 0 1-.323-.404l-.36.395zm6.943 15.457c.475.093.765.186 1.068.2.303.015.794.072.866-.057.072-.128.072-.486-.03-.6-.1-.114-.303-.09-.605 0-.313.094-1.175.27-1.3.457zM9.413 20.69c-.12-.165-.26-.5-.202-.856.06-.357.13-.443.203-.6.18.218.26.243.26.43 0 .184.032.642.03.77-.007.268-.183.405-.29.257zm1.386 2.26c.23-.187.39-.358.577-.487-.16-.467-.448-.857-.578-.97-.13-.116-.838-.316-.954-.316-.115 0-.332.086-.288.23.043.142.476.885.664 1 .188.114.337.368.577.542zm2.194 1.285s.433-.528.433-.686c0-.158-.23-.458-.23-.458s-1.055-.27-1.3-.343c-.246-.072-.65.214-.722.4.463.5.548.7.895.914.346.214.924.17.924.17zm1.617.086s-1.14.187-1.385.058c.347-.475.563-.943.577-1.114.015-.172.188-.172.29-.115.1.056.44.295.52 1.17zm-4.73-6.328c-.452-.273-.856-.473-.813-.96.043-.485 0-.427.058-.627.48-.198 1.386-.743 1.674-1.058.288-.314.26-.67.317-.914.058-.243.433-.458.635-.6.202-.143.26-.515.202-.83-.058-.314.116-.685.318-1.057.202-.37.274-.543.317-.686.043-.143-.592-1.014-.607-1.143.25-.168.75-.514.75-.514s.362.228.578.228c.218 0 .78-.17 1.185-.513.404-.343.477-.43.55-.43.07 0 .778.573 1.154.773.374.2.908.514.95.657-.29.29-.403.758-.49.915-.086.157-.733.977-.635 1.657.06.42.25 1.03.203 1.4-.038.302.447.386.433.085-.014-.3-.187-1.143-.2-1.4a2.094 2.094 0 0 1 .23-1.03c.187-.342.404-.642.433-.828.028-.185.317-.485.548-.6.232-.114.766-.47.954-.63.188-.156.36-.07.693-.113.332-.043.837-.128 1.04-.143.202-.013.88.273 1.212.116.33-.158.707-.115.865-.03.16.087.433.6.433.6s-.346.373-.52.544c-.173.172-.418.6-.375.943.315.02.376-.17.376-.17s-.03-.416.143-.544c.173-.13.477-.358.606-.487.2.225.216.8.346 1.057.13.258.433 1.086.606 1.4.174.315.246.672.347.944.1.27-.102.786-.174 1.057-.073.273-.073.844-.26 1.26-.188.413-.073.828-.29.97-.216.143-.36.14-.72.286-.515.208-.708.572-.983.6-.274.03-.433.13-.693.058-.26-.072-.59-.072-.895.085-.303.157-.288.37-.086.314.2-.057.49-.1.634-.115.144-.015.332.028.55.057.215.028.85-.086 1.067-.172.217-.086.116-.343.55-.543.433-.2.72-.27.866-.286.144-.014.736.057.98.315.247.258.513.374.55.63.08.54.087.957-.202 1.457-.29.5-.433.73-.635.886-.203.157-.52.73-.58 1.23-.057.5-.187 1.07-.26 1.256a1.52 1.52 0 0 1-.576.742c-.36.243-1.314.658-1.76.886-.45.23-.853.158-1.214.2-.36.043-.88.172-1.242.343-.36.173-.924.473-1.155.487-.23.015-.447 0-.52-.228-.072-.23-.216-.902-.115-1.23.1-.33.043-1.1.23-1.887.19-.785-.114-1.2-.114-1.2l-.26.114s.115.443.057.686c-.056.243-.273.986-.287 1.4-.015.415.043.987-.03 1.172-.07.186-.39.272-.577.23-.187-.044-.943-.206-1.068-.515-.145-.36-.26-.986-.346-1.286-.087-.3-.506-.672-.867-.686-.36-.015-.837.028-1.183-.086-.347-.114-.722-.114-.838-.23-.115-.113-.26-.585-.577-.942-.318-.357-.996-.543-1.242-.543.138-.323.09-.685 0-1.03-.13-.5-.274-.87-.144-1.456.554-.12.88-.314 1.242-.37.36-.058.81-.015 1.155-.115.347-.1.23-.014.664-.03.435-.013.882-.084 1.1-.2.215-.113.46-.184.576-.113-.09.286-.058.714-.058.714s-.606.272-.924.4c-.317.13-.606.33-.78.458-.172.128-.086.23-.086.23s.145.013.52-.173c.375-.185.722-.342.982-.428.26-.085.346-.2.346-.2s.29.415.433.543c-.32.387-.29.486-.29.486l.145.087s.173-.214.375-.23c.202-.013.26.144.26.144s-.072 1.902-.03 2.23c.32.03.377-.057.377-.057s.014-1.014.057-1.43c.044-.413.058-.685.058-.685s.534.186.635-.057c.385.803.592.8.722.887.13.086.36.372.46.543.102.172.088.657.174.857.087.2.13.543.174.686.295.092.26-.028.26-.028l.057-.315s-.13-.314-.173-.743c-.043-.428-.1-.57-.318-.8-.216-.228-.895-.843-.953-1.172.395-.05.492-.07.666-.085.173-.015.39.257.72.514.333.257 1.2.93 1.387 1.058.103-.082.174-.23.174-.23s-.91-.814-1.126-1.057c.746.097 1.358-.2 1.358-.2l-.116-.314s-.303.072-.75.144c-.448.07-1.055.1-1.156-.03-.1-.127-.375-.284-.375-.284s.838-.558.55-1.43a4.505 4.505 0 0 0 1.79-.685s.03-.23-.116-.172c-.144.057-.52.2-.78.257-.26.058-.606.258-.865.286l-.32-.514s.65-.786.81-1c.158-.215.46-.43.46-.43l-.2-.2s-1.098 1.244-1.27 1.43a2.2 2.2 0 0 1-.203-.143s.346-.458.346-.716c0-.257.14-.96.03-1.4-.32.1-.405.23-.405.23s.1.342.058.685c-.044.34-.174.8-.29.942-.287-.225-1.096-.03-1.096-.03s-.376-.785-.52-1.228c-.144-.443-.29-1.257-.29-1.257s-.302-.315-.403-.286c-.1.03.106.316.087.6-.026.374.028.487.202.773.173.285.39 1.17.462 1.37-.178.118-.376.144-.376.144s-.476-.37-.635-.485c-.16-.115-.245-.372-.346-.715-.1-.343-.346-.943-.346-.943h-.317s.144.357.26.714c.115.358.086.786.288 1.03.202.242.78.6.78.6l-.347.542s-1.82-1.114-2.165-1.286c-.347-.17-.722.086-.722.086l.26.143s.636.13.982.343c.347.214.91.7 1.07.914-.446.173-.575.28-.78.258-.282-.03-1.01.028-1.358.057-.346.028-.52.14-.75.143-.554.007-1.055.228-1.584.444zm-.756-2.098c-.034-.94-.12-1.487.347-2.605.496-1.188 1.474-2.13 1.647-2.287.41.233.924.343.982.457.056.115-.333.572-.406.686-.072.115-.375-.014-.52.03-.144.042-.72.5-.808.628.2.31.23.314.23.314s.29-.386.52-.457c.232-.07.506.115.463.487-.044.37-.71 1.05-1.907 1.37.172.208.29.344.29.344s.608-.364.692-.285c.156.147-.116.386-.23.458-.117.07-1.1 1.054-1.3.86z" fill="#ffb401"/></svg>