<svg xmlns="http://www.w3.org/2000/svg" width="220" height="137" viewBox="0 0 220 137"><title>cornerstone logo</title><g fill="none"><path d="M50.686 56.783L0 81.947 109.873 137V83.432l-59.187-26.65z" fill="#256a7f"/><path d="M178.93 61.605L220 81.947 109.873 137V83.224l69.058-21.62z" fill="#33a69b"/><path d="M109.777 0l-82.5 40.91 82.5 41.29 82.69-41.1L109.778 0" fill="#8dc549"/><path d="M27.277 95.614V40.91l82.5 41.29V137l-82.5-41.386" fill="#7c8689"/><path d="M27.277 95.614V40.91l82.596 41.29V137L27.277 95.614" fill="#33a69b"/><path d="M192.468 95.614V41.1l-82.595 41.1V137l82.595-41.386M109.804 20.735l-40.21 19.95 40.232 20.135-.022-40.085" fill="#256a7f"/><path d="M109.804 60.82V20.735l40.347 20.042-40.346 20.043" fill="#33a69b"/></g></svg>