<svg xmlns="http://www.w3.org/2000/svg" width="130" height="130" viewBox="0 0 129.99999 130"><path d="M66.042 111.924s1.525-1.452 1.76-1.858c.234-.406 1.113-2.148 1.524-2.322.41-.174 1.466-.464 1.642-.813.176-.347-.88-.753-1.407-1.044-.527-.29-.82-2.554-.82-2.554l-.587.58s-.82 1.916-1.29 3.25c-.47 1.337-.82 4.762-.82 4.762zm-12.2 14.745c.41-3.194 1.056-4.587 1.056-6.04 0-1.45.06-2.9.352-4.527.293-1.625.41-4.18.352-5.456-.06-1.278-1.056-4.586-1.76-5.922-.703-1.335-1.583-3.193-1.994-3.715-.452.563-1.23.813-1.76 1.625-.527.813-1.993.93-2.697.93-.703 0-2.755.464-3.635.348-.88-.117-2.463-.465-3.167-.117-.704.35-1.994.233-2.815.813-.82.58-3.05 4.005-3.99 4.295-.937.29-1.817.232-2.345-1.16a48.688 48.688 0 0 0-1.173-2.787s-1.876 1.45-2.815 1.625c-.938.174-3.695 1.567-4.105 1.974-.41.406-1.466.754-2.112 1.277-.645.522-1.7.93-2.463.348-.762-.58-2.11-2.496-1.994-4.063.117-1.57.47-3.02.47-4.065 0-1.045.527-2.38-.47-3.02-.997-.637-1.877-1.566-1.407-2.553.468-.987.76-2.496 1.64-3.25.88-.756 3.226-2.555 4.106-3.136.88-.58 1.115-2.032 3.285-2.322-.413-1.31.118-2.554.118-2.554s-.82.29-1.877 0c-1.055-.29-2.638 0-3.4.232-.763.232-1.467-1.277-2.464-.93-.997.35-3.695.93-5.278.117-1.584-.813-2.522-2.613-2.58-4.064-.06-1.45 0-3.367-.587-3.483-.586-.116-3.4 0-4.574.58-1.173.58-3.284-1.045-3.636-2.67-.352-1.626.117-2.264.82-2.903.705-.638 2.523-2.148 3.99-2.786 1.465-.64 1.817-.58 3.518-.93 1.7-.347 2.522-.986 3.167-1.74.645-.755 1.29-1.394 2.463-1.858 1.173-.465 2.23-.523 3.167-1.16.94-.64 2.58-1.51 2.346-3.717 2.02-.244 1.82.928 2.816.928.997 0 1.525-.696 1.525-.696v-1.394s-1.406-.29-1.875-.812c-.47-.523-1.995-.755-2.464-1.974-.468-1.22-1.875-1.974-2.462-3.367-.586-1.393-.47-2.496-.235-3.25.235-.756.997-1.685 1.994-2.09.998-.407 2.112-.58 2.112-.58s-.353-.64-1.76-1.046c-1.408-.408-.646-1.104-1.877-1.51-1.232-.407-1.115-.813-1.994-1.162-.88-.348-.705-1.22-1.526-1.51-.82-.29-.646-2.61-.118-3.25.528-.64 1.173-1.103 1.525-1.393.353-.29-.233-.87-.703-1.51-.47-.638-1.35-2.38-1.407-3.25-.06-.87-.997-2.787-1.29-3.135-.294-.35.938-.58 1.994-1.16 1.055-.582 1.994-1.627 2.698-1.743.703-.116 2.932-.93 4.34-.93 1.407 0 3.52.466 4.105.466.587 0 1.935.522 2.815 0 .88-.523 1.596-.237 3.167-1.393.673-.497.762.232 1.76 1.044.996.813 1.29.64 1.993.93.704.29 2.815 1.276 2.815 1.276s-.762-1.045-.352-2.438c.41-1.393.763-3.83-.117-5.108-.88-1.277-.705-2.438-.47-3.25.234-.814-.88-1.627-.82-3.136.057-1.51-.705-1.335-.353-3.25.352-1.917.82-2.67 2.346-3.02 1.525-.348 4.222-.348 5.278-.696 1.057-.35 2.23.406 3.168.348.94-.058 3.285.116 4.927.93 1.642.812 4.047 1.857 4.692 1.857.645 0 .527.87 2.463.232 1.935-.64 4.75 3.134 5.513 3.946.762.813 3.108 4.877 3.402 5.457.293.58 2.11 1.858 2.463 2.438 1.267-.968 1.76-1.16 1.76-1.16s-.177-1.683-.47-2.438c-.293-.755.235-3.425.94-4.76.702-1.335 1.817-1.974 2.227-1.974.41 0 2.522.174 3.52 0 .996-.174-.235-1.16-.47-3.135-.235-1.973-.586-2.03-.235-3.25.352-1.22.822-3.25 1.525-3.484C79.18 1.276 79.648 0 80.352 0s.235.406 1.76.464c1.524.058 3.167.175 3.87.58.704.407 1.82 1.626 2.346 2.207.528.58 1.7 1.568 2.464 2.67.762 1.104.997 1.685 1.642 2.207.645.523-.293 1.51.47 2.322.762.812.996 2.03 1.876 2.09.88.057 1.935-.35 2.815 1.16.88 1.51 1.29 1.742.938 2.787-.35 1.045-1.114 1.625.118 2.786 1.232 1.16 1.82 1.568 2.464 1.51.645-.06.82 1.393.704 2.902-.117 1.51-1.762 2.96-1.525 4.876.12.972.88.988 1.408 1.162.528.175 1.525 1.162 1.995 2.206.47 1.045.293 3.484 0 4.412-.294.93-.88 3.077-.94 4.064-.057.987-1.113 1.742-.585 2.67.528.93.528-.29 1.525-.348.997-.058 1.407 2.206 1.876 2.787.47.58.47 1.74.822 1.51.352-.233.88-2.497 1.877-3.484.996-.988 2.58-2.265 3.166-3.136.587-.87 1.115-1.567 1.994-1.625.88-.06 1.115 1.334 1.408 1.856.293.523 1.525-.813 2.11-1.16.588-.35 4.987-2.787 6.453-3.02 1.467-.232 2.17-.406 3.285.697 1.115 1.103 1.584 1.858 1.525 3.135-.06 1.277.763 3.657.704 5.225-.06 1.567-.235 3.018.47 4.295.703 1.278-.294 2.903.234 4.528.528 1.626.528 3.135-.118 4.18-.645 1.045-2.052 4.064-2.228 4.528-.176.465-1.29 2.032-1.877 2.787-.587.755-.88 1.394-1.525 2.207-.645.812-2.23 1.74-2.58 2.554 2.063.287 2.52 1.452 3.518 2.09.997.64 1.173 2.497 1.76 2.44.586-.06 1.525.986 1.056 1.973-.47.987-.88 1.51-2.112 1.51-1.23 0-1.35.986-1.994 1.508-.645.524-.704 1.395-.704 2.09 0 .698-.352 2.033-1.29 2.44-.938.406-2.99 1.51-4.575 1.51-1.584 0-2.464.928-3.05 1.044-.587.116-.704 2.264-1.29 2.554-.587.29-3.05 1.103-4.34 1.858-1.29.754-2.112 1.22-.705 1.51 1.408.29 2.053 1.624 1.995 1.973-.06.347.527 2.495-.235 3.366 1.664.773.938 1.683 1.877 2.438.938.755 1.35 1.683 1.642 2.438.293.755.47 3.077-.938 4.296-1.408 1.22-3.46.93-4.692.93-.606 1.365-2.346-.06-2.816-.117-.47-.057-.88.29-1.76-.348-.88-.638-.703 1.684-2.462 1.277-1.76-.407-4.75-1.626-5.63-2.44-.88-.81-3.168-3.25-3.637-4.062-.47-.813-2.17-.116-3.05.464-.88.58-1.408.058-1.878.464-.47.407-2.58 3.367-3.636 4.53-1.055 1.16-1.935.695-2.346 1.392-.41.696-.528 1.22-2.228 2.67-1.7 1.45-2.346 1.684-3.168 2.67-.82.987-2.99 2.613-3.753 3.368-.762.754-1.29 1.973-1.876 3.018-.586 1.045-.938.174-1.525 1.858-.587 1.683-1.76 3.483-.822 4.992.94 1.51.235 1.277.235 1.277s-3.35.784-6.686.234c-2.39-.395-4.608-1.81-6.334-3.135z"/><path d="M56.658 108.208c.352-1.16 1.23-2.264 2.11-3.367.88-1.102 1.585-1.45 1.878-2.205.293-.754-.587-1.973-.587-1.973l-6.217.116s.88 2.264 1.407 3.6c.528 1.334.487 2.94 1.408 3.83zm6.217 21.77c-.29-1.85-.235-4.064-.235-5.283 0-1.22.88-4.644 1.642-6.27.763-1.625 1.29-3.308 2.815-4.876 1.525-1.568 1.643-3.136 3.05-4.18 1.408-1.045 2.346-1.974 3.284-1.974.94 0 2.758.754 3.638 1.045.88.29 1.994.697 1.994.697s-.94 1.51-1.877 2.09c-.938.58-2.756 1.742-3.402 2.322-.645.58-2.228 2.38-2.932 3.134-.703.755-2.17 2.206-2.697 3.483-.528 1.277-1.35 1.742-1.877 2.554-.528.814-.88 2.323-.938 3.252-.06.93.613 2.972.47 3.716-.53.26-1.282.288-2.933.29zm-8.094-2.642c.25-2.174 1.174-5.95 1.41-7.517.233-1.57.76-6.155.702-7.2-.058-1.045.118-1.857.82-3.134.705-1.278 2.406-3.02 2.817-4.064.41-1.045 2.462-2.903 2.462-2.903s2.58 1.044 3.167.928c-.208 1.563-.94 2.322-.94 3.25 0 .93-.645 4.76-.938 5.806-.293 1.045-1.525 2.613-1.76 3.948-.234 1.335-.293 2.148-.938 3.715-.645 1.567-.82 4.993-.82 5.573 0 .58.252 2.197-.118 4.093-1.91-.115-4.26-1.305-5.865-2.497zm13.373-60.46c1.8.27 2.23 0 2.815.348.587.348 1.564 1.78 1.994 2.786.43 1.007.82 2.322.352 3.716-.47 1.393-1.095 2.167-2.463 3.018-1.368.852-2.893 1.548-3.987 1.16-1.095-.386-3.128-.657-3.988-1.74-.86-1.084-1.877-2.322-1.877-3.6 0-1.276.162-2.062.82-3.018.737-1.07 2.073-2.322 3.168-2.322 1.095 0 1.368-.62 3.167-.348zM98.65 94.16c.763.638 2.523.058 3.637-.232 1.114-.29 1.584.116 2.698.232 1.114.116 1.877-.406 2.463.232.587.64.88 2.554.352 3.367-.528.812-.176 1.683.587 2.205.762.523 1.935 1.858 2.463 2.554.528.696 1.583 2.09.82 3.6-.762 1.508-1.64 1.218-3.518 1.508-1.877.29-3.05-.523-4.105-.58-1.056-.06-2.23-.755-3.05-.117-.82.64-3.695.175-4.458-.58-.763-.754-3.52-2.844-3.99-3.715-.468-.87-1.172-1.044.236-2.09 1.407-1.044 1.994-1.8 2.698-1.973.703-.174 1.76 1.567 2.463 1.51.704-.06 1.583 0 2.463.696.88.696 1.7 1.045 2.58 1.51.88.464 1.584.87 2.112 1.16.528.29.82.87 1.408 1.277.586.407 1.583-.696 1.055-1.277-.527-.58-1.876-1.683-3.05-2.206-1.172-.522-1.876-.696-2.58-1.277-.704-.58-2.17-1.393-3.284-1.51-1.114-.115-1.407-.638-1.524-1.276-.117-.64.762-3.66 1.525-3.02zm.235-43.54c.294-1.682 1.173-3.83 2.23-4.643 1.055-.813 1.934-1.684 2.228-1.742.293-.058 1.466 3.6 1.994 4.18.528.58 1.7.755 2.228-.696.528-1.453 2.58-3.775 3.87-4.878 1.292-1.103 1.233-1.393 1.644-1.74.41-.35.937 1.624 1.406 2.088.47.465.88.813 1.994-.812 1.115-1.626 3.52-3.25 4.458-3.483.938-.233 3.753-1.684 4.692-.93.938.756.88 1.917 1.055 2.903.176.987.82 3.31.82 4.412 0 1.103-.292 2.787.236 4.993.53 2.206.88 5.92.353 7.082-.528 1.16-1.115 2.496-1.525 3.948-.41 1.45-2.346 3.89-3.167 4.76-.82.87-3.108 3.367-3.987 4.296-.88.928-.645 1.624.352 1.508.997-.116 1.76 0 2.815.58s1.407 1.8 2.11 2.44c.705.637 1.643 1.044 1.643 1.624 0 .58-1.29.29-1.876.813-.587.522-1.35.638-2.346 1.277-.997.64-.88 1.8-.82 3.02.058 1.218-.294 1.798-2.464 2.32-2.17.523-4.457 1.046-5.747.93-1.292-.116-1.41 1.45-1.41 2.438 0 .987-.527 1.683-1.876 2.438-1.35.755-4.223 2.09-6.1 2.206-1.876.116-3.988 1.45-4.81.697.548-2.56 1.057-3.773 1.174-4.876.118-1.103 2.522-1.8 2.816-3.367.293-1.567 2.463-4.296 2.463-5.92 3.537 1.134 11.26-.35 11.26-.35s.47-.986 0-1.51c-.47-.52-9.853 1.104-11.026.466.032-1.576-.468-2.903-.468-2.903s1.936-3.25 2.23-3.715c1.426.18 6.392-1.626 7.975-1.974 1.584-.347 4.458-1.45 5.63-2.553 1.174-1.103 1.877-1.452 3.05-2.903 1.173-1.45.587-1.51.587-1.51s-.293-.812-1.056-.115c-.762.695-2.99 3.134-4.457 3.83-1.465.697-2.756 1.45-4.105 1.858-1.35.406-4.574 1.45-5.395 1.51-.822.057.41-.93 1.76-2.323 1.348-1.393 3.225-4.876 3.87-5.69.645-.812 2.346-1.508 3.87-2.437 1.526-.93 4.282-2.206 5.162-2.554.88-.35-.704-1.278-1.642-.93-.94.35-4.047 1.858-4.692 1.974-.645.117 1.642-1.8 2.346-3.134.704-1.335.82-2.73 2.11-4.644 1.29-1.916 1.35-2.96 1.526-3.716.176-.754.88-2.67.704-3.483-.176-.812-1.466-.405-1.525.117-.06.523-1.057 2.496-1.057 3.135 0 .64-.704 2.438-1.29 3.483-.587 1.045-.704 1.568-1.29 2.09-.587.522-.82 1.858-1.173 2.67-.352.813-.88 1.16-1.408 1.626-.528.465-1.056 1.394-1.407 2.207-.352.813-2.053 3.077-2.58 4.063-.53.987-.705-.696-.353-2.322.352-1.625-.176-2.03.352-3.715.528-1.683.176-3.425.47-4.064.292-.64-1.467-1.8-1.643-1.046-.175.755-.234 3.25-.234 3.716 0 .464-.41 2.554-.47 3.483-.058.93 0 2.032-.233 2.786-.235.754-.235 2.786-.235 3.6 0 .81-.645 1.682-1.408 2.553-.762.87-3.284 3.89-3.753 4.76-.47.87-.997 1.393-1.29 1.626-1.487-1.244-2.816-1.8-3.168-2.09.344-1.053.645-2.15 1.407-3.02.762-.87.528-3.25.47-4.412-.06-1.16-.763-2.09-.47-3.715.293-1.626.352-4.18.704-5.573.353-1.393 1.057-2.148.587-2.438-.47-.29-1.642-.697-1.642 0 0 .696-.762 2.786-.704 3.6.06.812-.35 4.18-.35 4.875 0 .697.234 2.206.234 2.903 0 .696.117 2.09-.235 3.135-.352 1.044-.88 3.134-1.29 3.483-.41.348-.822 0-1.29 0 .977-1.88.76-3.31 1.055-4.877.293-1.566.35-3.192.82-4.41.47-1.22.353-2.497.235-3.368-.117-.87-.704-1.915-.82-3.134-.118-1.22-.998-1.103-.705-2.787zm-9.5-25.426c-.353-.812.527-1.45.468-2.438-.058-.987-.703-1.625-.47-3.018.236-1.394.588-2.73.822-3.948.235-1.22-.997-1.045-1.407-2.67-.41-1.626-1.525-2.09-1.877-3.25-.35-1.162-1.29-2.09-1.524-3.02-.235-.93-1.7-2.264-1.877-3.02-.177-.753-.353-1.45-.353-1.972 1.263-.236 2.933.638 3.402 1.16.468.523 3.518 4.76 3.87 5.69.352.93.82 3.135 1.407 3.715.587.58 1.643 1.22 2.464 1.277.822.058 1.408.058 1.877 1.16.47 1.104-.47 2.265 0 3.368.47 1.103.528 2.787 1.877 3.25 1.35.466 2.112.408 2.112 1.046 0 .64-.528 3.077-.94 4.064-.41.987-1.054 2.38-.703 3.483.352 1.104 1.995.64 2.933 1.394.938.755 1.35 2.96.938 4.18-.41 1.22-1.76 7.082-2.346 8.243-.586 1.16-1.583 3.657-2.11 4.412-.53.754-1.35-.814-1.41-2.323-.057-1.51-.702-3.425-.702-4.296 0-.87.88-1.044 1.76-1.74.88-.697 2.697-1.974 2.814-3.135.118-1.16-1.23-.813-1.525-.35-.293.466-.938 1.975-1.642 2.09-.704.117-2.287 1.046-2.815 1.51-1.566-1.692-1.7-1.683-2.698-1.857-.997-.174-2.405-.058-2.58-1.045-.176-.987.117-2.67.35-3.25.236-.58.823-.117 1.878-.93 1.056-.812 2.23-1.915 2.815-3.018.587-1.103 1.115-1.394 1.76-1.742.645-.348.938-.813 1.173-1.51.234-.696-1.35-1.044-1.877-.348-.53.697-.88 1.8-1.76 1.858-.88.058-.41 1.22-1.056 1.51-.645.29-1.525 1.335-1.76 1.857-.234.523-.937.62-1.29.465.32-2.286.06-3.077 0-3.948-.06-.87 0-1.16.704-1.393.704-.232 1.29-1.103 1.525-1.742.234-.638 1.173-1.045 1.642-2.09.47-1.045-.88-1.393-1.29-.928-.41.464-1.115 1.973-1.642 2.322-.528.348-.587 1.74-.94.928zm-19.238 10.45c.176-1.916.293-5.11.235-6.502-.06-1.393-.47-4.064 0-4.992.47-.93.82-1.51 1.642-2.09.82-.58 1.232-1.974.938-3.135-.293-1.16-.47-3.773.235-4.528.704-.755 1.7-1.16 3.167-1.277 1.466-.116 2.64-.116 2.932-1.277.294-1.16-.35-2.09-.703-3.25-.352-1.162-.235-2.498.234-4.065.47-1.567 1.056-2.786 2.464-2.786.297 1.847 0 2.844.94 3.483.937.638.996 1.8 1.993 2.786.997.988.645 1.8 1.29 2.788.645.987 1.642 2.844 2.112 3.83.47.988 1.23.698 1.173 1.51-.06.813-1.056 1.974-1.056 3.135 0 1.16.176 1.916.352 2.903.176.987-.645 2.438-.47 3.83.177 1.394.177 3.484 0 4.53-1.263-.573-1.348-.465-2.345-2.09-.998-1.626-.88-1.568-1.878-2.67-.997-1.104-2.522-3.426-3.284-4.645-.763-1.218-2.346-2.32-2.816-3.25-.47-.93-1.876.174-1.407.58.47.407 1.642 1.568 2.346 2.787.705 1.22 1.702 3.25 2.58 3.83.88.582 1.35 1.453 1.995 2.672.646 1.218 1.232 2.61 2.112 3.25.88.638 2.228 1.567 2.698 2.322.47.754-.176 3.425-.235 4.063-.06.64-3.52.87-4.34 0-.82-.87-2.23-2.09-3.167-3.25-.938-1.162-2.64-2.67-2.815-3.948-.176-1.277-1.877-.755-1.642-.232.234.522.997 2.206 1.642 2.786.645.582.762 1.975 1.642 2.672.88.696 1.818 1.915 2.23 2.438.41.522-2.465.93-4.107.812-1.642-.116-1.76.87-3.52.697-1.758-.175-2.873.057-3.283-1.278-.41-1.335-.06-.523.117-2.438zM52.317 19.97c-1.114-1.684-1.876-2.264-2.58-3.25-.704-.988-1.407-1.22-2.23-2.323-.82-1.103-1.582-1.277-2.11-1.974-.528-.697-2.17-1.683-2.815-2.438-.645-.755-2.112-.987-2.815-1.277-.704-.29.645-.755 1.642-.813.996-.058 2.814.406 4.574.464 1.76.058 4.164.29 5.63 1.044 1.466.755 3.695 2.09 4.457 2.09.764 0 2.934-.87 4.34.35 1.41 1.218 2.113 2.9 3.168 4.294 1.056 1.394 1.408 2.787 2.464 3.716 1.055.93 1.994 2.612 2.463 3.483.47.87.352 5.05.352 6.153 0 1.103-.352 4.877-.47 5.805-.117.93-.234 1.452-.938 1.974-.705.522-1.995-1.22-2.933-1.626-.94-.407-1.818-1.103-1.877-2.438-.06-1.336.762-2.613.586-3.484-.175-.87-.47-3.773-.234-4.76.234-.987-.293-4.12-.587-5.108-.293-.987-.352-1.452-.586-2.322-.236-.87-1.41.58-1.29 1.277.116.695.644 4.12.702 4.99.06.872-.293 1.685 0 3.136.294 1.45.528 1.742.352 2.786-.176 1.045-.528 3.31-.703 3.948-.175.64-.645.174-1.055-.93-.41-1.102-.704-2.61-1.642-3.134-.94-.522-1.82-3.6-1.877-4.528-.06-.928-1.642-2.38-1.994-3.25-.352-.87.176-1.8.234-3.368.06-1.567.118-3.018-.586-4.063s-1.466-.523-1.877-1.742c-.41-1.22-2.346-.58-1.994.116.35.698 1.465 2.033 2.11 2.904.646.87.468 2.745.118 4.296zm-5.864 19.853c-.82-.87-2.053-2.09-2.58-3.367-.53-1.277-.646-2.554.468-3.134-.527-1.414-2.345-2.787-2.93-3.6-.588-.812-1.76-2.438-2.112-3.134-.352-.697-.822-1.8-.47-2.787.352-.986.352-1.276.352-2.205 0-.93-.762-2.264-1.055-3.135-.294-.87.41-2.206 0-3.25-.41-1.045-1.525-3.135-1.525-4.296 0-1.16.645-1.858 1.407-1.277.763.58 2.17 1.045 2.815 1.045.646 0 .528 1.277 1.643 2.09 1.114.812 1.114-.06 2.11 1.74.998 1.8 1.467 2.38 2.464 2.904.996.522 1.817 1.45 2.228 2.205.41.756 1.173 1.22 2.23 2.324 1.054 1.103 2.462 2.38 2.696 3.483-1.522-.844-1.935-.407-2.815-1.277-.88-.87-2.17-1.045-2.816-1.626-.645-.58-2.698-1.393-3.402-1.974-.703-.58-1.876.407-1.055 1.045.82.64 1.29 1.393 2.228 1.51.94.116 2.464 1.393 3.637 2.09 1.173.696.586 1.16 1.76 1.51 1.172.347 2.345 1.45 2.932 1.74.586.29 2.815 3.542 2.932 4.528-1.89-.816-2.404-.406-3.402-1.045-.997-.638-1.642-.522-3.05-1.393-1.407-.87-2.287-.464-3.4-1.857-1.115-1.394-1.233-1.045-1.878-1.742-.645-.697-1.994.174-1.29 1.045.704.872 1.994 2.265 2.932 2.904.94.638 2.112.754 3.167 1.393 1.056.638 1.76.696 3.402 1.51 1.642.812 1.877-.175 2.933 1.392 1.055 1.567 0 2.205-.47 2.438-.47.232-1.407.754-2.932 0-1.525-.755-1.584-.813-2.933.348-1.348 1.16-3.4 2.728-4.222 1.857zM36.365 44.7l-1.877-.93s.235-.754-.586-1.857c-.82-1.103-2.288-3.6-3.167-4.295-.88-.697-2.405-2.032-3.402-2.44-.997-.405-2.58-1.276-3.284-1.624-.705-.348-.998-.987-1.76-1.51-.763-.522-1.584-1.16-2.23-1.393-.645-.23-1.76-1.334-2.58-1.276-.82.058-1.584-.29-2.11-.348 1.328-1.106 2.286-1.45 3.87-1.51a66.42 66.42 0 0 1 4.81 0c1.524.06 2.93-.116 4.573-.58 1.642-.464 2.346-.58 2.346-.58s1.583.812 2.228 1.16c.645.35 3.52 1.626 4.457 1.742.94.116 1.408.58 1.877 1.16.47.582 1.114 1.57 1.642 2.09.528.523 1.232.64.704 1.626-.528.987-.117 1.568.117 2.09.235.523.763 1.858 1.408 2.438.645.58 1.35 1.742 1.76 2.09.41.35.703.697.703.697s-1.76 2.263-2.463 3.018c-.704.754-2.23 2.38-2.698 2.902-1.155-.496-1.76-1.45-1.76-2.206 0-.754.118-2.264.47-3.018.352-.755-.763-1.51-.82-2.787-.06-1.278.35-2.15-.353-3.02-.704-.87-1.466-2.148-1.76-2.786-.293-.64-1.162-2.167-1.642-2.554-.48-.388-1.642.464-.938 1.16.704.697 1.466 2.09 1.76 2.787.292.697.996 1.916 1.407 2.322.41.406-.353 2.147-.118 2.786.234.638.762 1.51.703 1.973-.058.464-.9 2.075-1.29 2.67zM35.32 63.563s-5.29-.345-6.345-.635c-1.055-.29-3.636-1.103-3.87-1.625.238-1.794.527-2.497.47-3.02-.06-.522-.88-.696-1.878-1.16-.997-.465-4.282-3.193-4.692-4.412-.41-1.218-.88-2.902-.118-3.83.763-.93 2.933-1.16 3.754-1.16.822 0 1.057-.988.118-1.743-.938-.755-4.222-2.438-5.043-3.25-.822-.814-2.64-1.336-2.23-2.67.41-1.336.763-1.8 1.643-2.323.88-.523.176-1.626-.586-2.555-.763-.93-2.17-3.716-2.23-4.413 1.526.933 2.464.175 3.285.465.82.29 1.76.755 2.58 1.393.822.64 1.878 2.438 3.168 2.67 1.29.233 3.988 1.858 5.16 2.787 1.174.93 3.58 4.122 3.872 4.528.293.406-.704 1.103-1.408.93-.705-.175-3.05-.872-4.693-1.394-1.642-.523-3.4-1.045-4.692-1.16-1.29-.118-1.525.927-.47 1.508 1.057.58 2.288.58 4.224 1.045 1.934.463 3.05.986 4.104 1.16 1.056.174 2.405-.407 4.692.813 2.288 1.22 4.4 2.67 4.927 3.483-.683 1.327-1.232 3.367-1.877 3.715-.645.35-3.988.523-5.748.117-1.76-.406-3.518-.29-4.574-.464-1.056-.174-1.584-.465-2.23-.813-.644-.348-2.11-.64-2.11.348 0 .987 1.29 1.393 2.698 1.858 1.407.464 3.225.232 4.457.464 1.23.233 2.52.697 3.987.697 1.466 0 2.287-.464 2.815-.116-.598 1.514-.586 3.252-.586 3.252s-1.76.29-2.463.232c-.704-.058-.822 1.277-.118 1.277s1.408.233 1.76.233c-.17 1.497.65 3.86.245 3.77zm.46 19.915c-1.702-.058-6.277-.638-7.978-.116-1.7.523-3.4.813-4.574.465-1.173-.35-2.757.174-3.87-.465-1.116-.638-2.406-.58-3.99-.232-1.583.348-4.75-.232-4.81-1.625-.057-1.394.236-3.367 0-4.528-.233-1.16-.703-1.568-2.227-1.394-1.524.175-4.105 0-4.926.58-.82.58-2.405-1.218-1.877-2.32.528-1.104 1.642-2.15 3.402-2.788 1.758-.638 4.163-.812 5.63-1.74 1.466-.93 2.345-2.44 4.222-3.02 1.877-.58 3.988-1.045 4.81-2.438.82-1.393 1.524-1.916 2.11-1.858.587.057 2.053 1.334 3.285 1.51 1.232.173 3.87.695 5.63 1.044 1.76.348 4.575.696 4.575.696s.41 3.31.352 3.948c-.06.638.117 2.09.117 2.09s-1.817.406-3.166-.117c-1.35-.52-2.815-1.508-3.402-2.088-.586-.58-.586-1.684-1.055-1.858-.47-.174-3.402-1.277-3.402-1.277l-.352 1.393s1.466.64 2.23.813c.76.174 1.817 2.612 2.462 3.135-1.83-.5-1.994.116-3.52-.58-1.524-.698-3.4-.64-4.573-1.743-1.173-1.103-.704.64-1.525 1.045-.82.407-4.282.523-5.28.93-.996.406-3.166 1.218-3.987 1.392-.82.175-1.173.58-1.29 1.16-.118.582.234.988 1.407.698 1.173-.29 2.288-1.103 3.285-1.16.997-.06 1.818-.35 3.05-.465 1.23-.116 2.17-.64 3.05-.813.88-.174 2.697.697 2.697.697s-.94.87-1.76 1.508c-.82.638-2.112 1.45-2.698 1.974-.587.522-1.525 1.973-1.877 2.67-.352.697-.704 1.393-.704 2.09 0 .697.705-.232 1.76-1.51 1.056-1.277 1.584-1.45 2.464-1.857.88-.406 1.35-1.626 2.11-2.09.764-.464 1.937-2.206 2.7-2.554.762-.348 1.993.755 3.753.697 1.76-.058 4.868.465 5.513.35-2.065.56-1.525 1.044-2.463 1.276-.94.232-1.232.813-1.76 1.625-.528.813-1.232.987-1.76 1.51-.527.522-.47 2.148 0 2.09.47-.06 1.29-1.162 2.23-1.858.938-.697.938-1.684 1.876-1.974.938-.29 1.818-.348 2.58-1.393.763-1.045.646-1.742 1.29-1.742.646 0 2.054.233 2.933.814.88.58.294.813-.703 2.09-.997 1.277-1.61 3.62-1.994 7.314zm15.13 16.835c-1.114.987-1.056 1.858-3.167 2.206-2.11.348-5.924.057-6.92 0-.998-.06-2.523.232-3.637 1.393a273.465 273.465 0 0 1-3.636 3.715c-.763.755-1.76-1.974-1.642-2.67.117-.697.41-1.626 0-1.974-.41-.35-2.698.58-3.52 1.393-.82.813-3.753 2.206-4.574 2.67-.82.465-2.756.87-3.167 1.278-.41.406-.938.29-1.642-.35-.704-.637-.82-2.437-.47-3.946.352-1.51-.293-2.207.235-3.02.528-.813 1.936-.697 1.877-1.625-.06-.93-1.35-1.626-2.11-1.626-.764 0-1.468-.233-1.526-1.162-.058-.93.353-1.683 1.76-2.786 1.408-1.103 3.754-2.555 4.692-3.367.94-.813 1.877-.987 2.463-1.16.587-.176-.277-1.715 0-2.324.278-.607-.176-1.218 1.408-1.74 1.584-.523 3.226-.523 4.927-.464 1.7.058 3.87.232 4.222.464.352.232 1.115 1.393 1.056 2.206-1.828.067-2.757.813-3.636.58-.88-.232-2.288-.522-2.933-.928a2.544 2.544 0 0 0-1.878-.35c-.527.117-.175.872.94 1.162 1.113.29 2.697 1.336 3.635 1.394.94.058 2.698.29 3.402.116.703-.174 1.29-.35 1.29-.35s.527 1.337 1.055 1.743c.528.406.82 1.045.82 1.045s-1.64.93-3.166 1.393c-1.526.465-4.986.93-6.453 1.162-1.466.232-5.102.987-6.45.93-1.35-.06-.294 1.392.703 1.392.997 0 3.695-.348 4.692-.464-1.823 1.32-3.226 1.51-4.34 2.554-1.115 1.045-3.226 3.25-3.52 3.948-.293.696.998 1.74 1.408 1.044.41-.696 2.112-2.96 3.285-3.715 1.173-.753 2.815-1.334 4.105-1.973 1.29-.638 3.46-2.206 4.34-2.438.88-.233 2.815-1.162 3.754-1.278.938-.116 1.642-.464 2.463-.348-1.81 2.004-3.87 5.92-4.223 6.618-.352.696.528 1.51 1.173.696.645-.812 1.936-2.612 2.463-3.715.528-1.103 1.7-2.786 2.464-3.25.762-.465 2.815 2.09 2.815 2.902 0 .812-.412 2.38-.705 3.25-.293.87.587 1.626 1.408.58.82-1.044.938-2.263.938-3.25 1.346.544 2.724 1.15 3.52 2.438z" fill="#14a93b"/><path d="M46.05 43.675s2.927 1.59 3.443 2.035c.516.446.28-1.03-.674-2-.955-.97-1.313-1.64-1.313-1.64l-1.457 1.605zm28.203 62.792c1.933.375 3.108.755 4.34.813 1.23.058 3.225.29 3.52-.233.292-.522.292-1.973-.12-2.438-.41-.465-1.236-.37-2.462 0-1.27.382-4.772 1.095-5.277 1.857zM38.243 84.06c-.49-.677-1.057-2.033-.822-3.484.235-1.45.53-1.8.822-2.438.73.885 1.056.987 1.056 1.74 0 .756.13 2.614.117 3.136-.025 1.087-.74 1.646-1.173 1.045zm5.63 9.17c.938-.754 1.583-1.45 2.345-1.973-.652-1.9-1.818-3.483-2.346-3.947-.528-.465-3.402-1.277-3.87-1.277-.47 0-1.35.348-1.174.928.176.582 1.936 3.6 2.698 4.065.763.465 1.37 1.497 2.346 2.206zm8.914 5.226s1.76-2.148 1.76-2.787c0-.64-.94-1.858-.94-1.858s-4.28-1.103-5.277-1.394c-.998-.29-2.64.87-2.933 1.626 1.882 2.036 2.23 2.844 3.636 3.715 1.408.87 3.754.696 3.754.696zm6.57.348s-4.635.755-5.632.232c1.41-1.93 2.288-3.83 2.346-4.528.06-.696.764-.696 1.174-.464.41.232 1.79 1.2 2.112 4.76zm-19.22-25.71c-1.837-1.11-3.48-1.923-3.303-3.896.176-1.974 0-1.742.235-2.555 1.945-.8 5.63-3.018 6.802-4.295 1.173-1.278 1.056-2.73 1.29-3.716.235-.987 1.76-1.857 2.58-2.438.822-.58 1.057-2.09.822-3.367-.234-1.277.47-2.786 1.29-4.296.82-1.508 1.115-2.205 1.29-2.785.177-.58-2.404-4.122-2.463-4.644 1.01-.682 3.05-2.09 3.05-2.09s1.467.93 2.347.93c.88 0 3.167-.697 4.81-2.09 1.642-1.394 1.935-1.742 2.228-1.742.293 0 3.167 2.322 4.692 3.135 1.525.813 3.695 2.09 3.87 2.67-1.18 1.174-1.64 3.077-1.993 3.716-.352.637-2.98 3.97-2.58 6.733.246 1.706 1.008 4.18.82 5.69-.152 1.226 1.818 1.566 1.76.347-.06-1.22-.763-4.644-.82-5.69-.06-1.044.175-2.786.937-4.18.764-1.392 1.643-2.61 1.76-3.366.118-.754 1.29-1.974 2.23-2.438.938-.464 3.108-1.916 3.87-2.554.763-.64 1.466-.29 2.815-.465 1.35-.174 3.402-.522 4.223-.58.82-.058 3.578 1.103 4.927.464 1.35-.637 2.873-.463 3.52-.115.644.348 1.758 2.438 1.758 2.438s-1.407 1.51-2.11 2.206c-.705.696-1.702 2.437-1.526 3.83 1.276.08 1.525-.696 1.525-.696s-.118-1.683.586-2.206c.704-.522 1.936-1.45 2.463-1.974.82.916.88 3.25 1.41 4.296.527 1.045 1.76 4.412 2.462 5.69.704 1.276.997 2.728 1.408 3.83.41 1.104-.41 3.194-.704 4.297-.293 1.103-.293 3.425-1.056 5.108-.762 1.684-.293 3.367-1.173 3.948-.88.58-1.47.57-2.932 1.16-2.09.846-2.874 2.323-3.988 2.44-1.114.115-1.76.52-2.815.23-1.056-.29-2.405-.29-3.637.35-1.23.638-1.173 1.51-.35 1.276.82-.233 1.993-.407 2.58-.465.586-.058 1.348.116 2.228.232.88.116 3.46-.348 4.34-.696.88-.348.47-1.393 2.228-2.205 1.76-.813 2.934-1.103 3.52-1.16.587-.06 2.992.23 3.99 1.276.996 1.046 2.077 1.52 2.227 2.555.32 2.2.352 3.89-.82 5.92-1.174 2.033-1.76 2.962-2.58 3.6-.822.64-2.113 2.96-2.347 4.993-.235 2.032-.763 4.354-1.056 5.11-.293.753-.88 2.03-2.346 3.017-1.466.987-5.337 2.67-7.155 3.6-1.818.928-3.46.638-4.927.812-1.466.174-3.577.697-5.044 1.393-1.466.697-3.753 1.916-4.692 1.974-.938.058-1.818 0-2.11-.93-.294-.928-.88-3.656-.47-4.99.41-1.336.176-4.47.938-7.664.763-3.193-.47-4.876-.47-4.876l-1.055.464s.47 1.8.235 2.787c-.235.986-1.114 4.005-1.173 5.69-.06 1.682.176 4.004-.117 4.76-.294.754-1.584 1.102-2.346.928-.763-.174-3.832-.833-4.34-2.09-.59-1.46-1.056-4.006-1.408-5.225-.352-1.22-2.053-2.728-3.52-2.786-1.465-.058-3.4.116-4.808-.35-1.408-.463-2.933-.463-3.402-.927-.47-.465-1.056-2.38-2.346-3.832-1.29-1.45-4.047-2.206-5.044-2.206.56-1.312.363-2.782 0-4.18-.526-2.03-1.114-3.54-.586-5.92 2.248-.496 3.577-1.278 5.044-1.51 1.466-.232 3.284-.058 4.692-.465 1.407-.406.938-.058 2.697-.116 1.76-.058 3.58-.348 4.46-.812.88-.465 1.876-.755 2.345-.465-.365 1.16-.235 2.902-.235 2.902s-2.463 1.103-3.753 1.625c-1.29.523-2.464 1.335-3.167 1.858-.704.522-.352.93-.352.93s.586.057 2.11-.698c1.526-.755 2.934-1.393 3.99-1.74 1.055-.35 1.407-.814 1.407-.814s1.173 1.683 1.76 2.206c-1.303 1.572-1.174 1.973-1.174 1.973l.588.348s.704-.87 1.525-.928c.82-.058 1.055.58 1.055.58s-.293 7.72-.117 9.057c1.29.124 1.526-.234 1.526-.234s.06-4.12.235-5.805c.177-1.682.235-2.785.235-2.785s2.17.754 2.58-.232c1.562 3.258 2.405 3.25 2.933 3.6.528.347 1.466 1.508 1.877 2.205.41.696.352 2.67.704 3.483.35.814.527 2.207.703 2.787 1.2.372 1.055-.116 1.055-.116l.235-1.276s-.528-1.277-.704-3.02c-.177-1.74-.41-2.32-1.29-3.25-.88-.928-3.637-3.425-3.872-4.76 1.6-.204 1.994-.29 2.698-.348.704-.058 1.583 1.045 2.932 2.09 1.35 1.045 4.868 3.773 5.63 4.296.417-.33.704-.93.704-.93s-3.695-3.308-4.574-4.295c3.027.393 5.513-.813 5.513-.813l-.468-1.277s-1.232.29-3.05.58c-1.818.29-4.282.407-4.692-.115-.41-.523-1.525-1.162-1.525-1.162s3.402-2.264 2.23-5.805c4.185-.594 7.27-2.786 7.27-2.786s.12-.93-.468-.698c-.586.232-2.11.813-3.167 1.045-1.056.232-2.463 1.045-3.52 1.16l-1.29-2.09s2.64-3.192 3.285-4.062c.645-.87 1.877-1.742 1.877-1.742l-.82-.813s-4.46 5.05-5.162 5.806c-.46-.287-.822-.58-.822-.58s1.408-1.86 1.408-2.904c0-1.044.567-3.898.117-5.69-1.3.41-1.642.93-1.642.93s.412 1.393.236 2.787c-.176 1.392-.704 3.25-1.173 3.83-1.17-.914-4.458-.116-4.458-.116s-1.524-3.193-2.11-4.992c-.587-1.8-1.174-5.11-1.174-5.11s-1.23-1.276-1.64-1.16c-.412.116.43 1.28.35 2.438-.102 1.514.118 1.974.822 3.135.704 1.16 1.583 4.76 1.877 5.573-.725.475-1.526.58-1.526.58s-1.936-1.51-2.58-1.973c-.646-.465-.998-1.51-1.408-2.903-.41-1.393-1.408-3.83-1.408-3.83h-1.29s.586 1.45 1.055 2.9c.47 1.453.352 3.194 1.173 4.18.822.988 3.167 2.44 3.167 2.44l-1.407 2.205s-7.39-4.528-8.798-5.225c-1.407-.696-2.932.35-2.932.35l1.056.58s2.58.522 3.988 1.393c1.407.87 3.695 2.844 4.34 3.715-1.805.7-2.333 1.137-3.167 1.045-1.144-.126-4.106.116-5.513.232-1.408.116-2.11.57-3.05.58-2.246.03-4.284.93-6.432 1.806zm-3.073-8.526c-.137-3.812-.48-6.04 1.412-10.58 2.01-4.824 5.983-8.65 6.686-9.288 1.67.945 3.754 1.393 3.99 1.857.233.465-1.35 2.323-1.644 2.787-.293.464-1.524-.058-2.11.116-.587.174-2.933 2.032-3.285 2.554.808 1.264.938 1.277.938 1.277s1.174-1.566 2.112-1.856c.94-.29 2.053.464 1.877 1.974-.177 1.51-2.877 4.26-7.742 5.573.698.84 1.172 1.394 1.172 1.394s2.473-1.484 2.816-1.16c.633.595-.47 1.566-.94 1.856-.468.29-4.463 4.284-5.282 3.498z" fill="#ffb401"/></svg>