<svg xmlns="http://www.w3.org/2000/svg" width="130" height="130" viewBox="0 0 129.99999 130"><path d="M66.042 111.924s1.525-1.452 1.76-1.858c.234-.406 1.113-2.148 1.524-2.322.41-.174 1.466-.464 1.642-.813.176-.348-.88-.754-1.407-1.045-.528-.29-.821-2.554-.821-2.554l-.587.58s-.821 1.916-1.29 3.251c-.47 1.336-.821 4.76-.821 4.76zm-12.2 14.745c.411-3.193 1.056-4.586 1.056-6.038 0-1.45.059-2.902.352-4.528.293-1.625.41-4.18.352-5.456-.059-1.278-1.056-4.586-1.76-5.922-.703-1.335-1.583-3.193-1.994-3.715-.452.563-1.231.813-1.759 1.625-.528.813-1.994.93-2.698.93s-2.756.464-3.636.348c-.88-.117-2.463-.465-3.167-.117-.704.349-1.994.233-2.815.813s-3.05 4.006-3.989 4.296c-.938.29-1.818.232-2.346-1.161a48.688 48.688 0 0 0-1.173-2.786s-1.876 1.45-2.815 1.625c-.938.174-3.695 1.567-4.105 1.974-.41.406-1.466.754-2.112 1.277-.645.522-1.7.929-2.463.348-.762-.58-2.111-2.496-1.994-4.063.117-1.568.47-3.02.47-4.064 0-1.045.527-2.38-.47-3.019-.997-.638-1.877-1.567-1.407-2.554.469-.987.762-2.496 1.642-3.25.88-.756 3.225-2.555 4.105-3.136.88-.58 1.115-2.032 3.285-2.322-.414-1.311.117-2.554.117-2.554s-.821.29-1.877 0-2.64 0-3.402.232-1.466-1.277-2.463-.929c-.997.349-3.695.93-5.278.116-1.584-.812-2.522-2.612-2.58-4.063-.06-1.451 0-3.367-.587-3.483-.587-.116-3.402 0-4.575.58S.472 76.628.12 75.003c-.352-1.626.117-2.264.82-2.903.705-.638 2.523-2.148 3.989-2.786 1.466-.639 1.818-.58 3.519-.93 1.7-.347 2.522-.986 3.167-1.74.645-.755 1.29-1.394 2.463-1.858 1.173-.465 2.229-.523 3.167-1.161.939-.639 2.58-1.51 2.346-3.716 2.02-.243 1.818.93 2.815.93.997 0 1.525-.697 1.525-.697v-1.394s-1.407-.29-1.876-.812c-.47-.523-1.995-.755-2.464-1.974-.469-1.22-1.876-1.974-2.463-3.367-.586-1.393-.47-2.496-.235-3.251.235-.755.997-1.684 1.994-2.09.998-.406 2.112-.58 2.112-.58s-.352-.639-1.76-1.045c-1.407-.407-.645-1.103-1.876-1.51-1.232-.406-1.115-.812-1.994-1.16-.88-.349-.704-1.22-1.525-1.51-.821-.29-.646-2.612-.118-3.251.528-.639 1.173-1.103 1.525-1.393.352-.29-.234-.871-.704-1.51-.469-.638-1.349-2.38-1.407-3.25-.059-.871-.997-2.787-1.29-3.135-.294-.349.938-.58 1.994-1.161 1.055-.58 1.994-1.626 2.698-1.742.703-.116 2.932-.929 4.34-.929 1.407 0 3.519.465 4.105.465.587 0 1.935.522 2.815 0 .88-.523 1.596-.237 3.167-1.393.674-.497.763.232 1.76 1.044.997.813 1.29.639 1.994.93.704.29 2.815 1.276 2.815 1.276s-.762-1.045-.352-2.438c.41-1.393.763-3.831-.117-5.108-.88-1.277-.704-2.438-.47-3.251.235-.813-.88-1.626-.82-3.135.058-1.51-.704-1.335-.352-3.25.352-1.917.82-2.671 2.346-3.02 1.525-.348 4.222-.348 5.278-.696 1.056-.349 2.229.406 3.167.348.939-.058 3.285.116 4.927.929 1.642.813 4.047 1.858 4.692 1.858.645 0 .527.87 2.463.232 1.935-.639 4.75 3.135 5.513 3.947.762.813 3.108 4.877 3.402 5.457.293.58 2.111 1.858 2.463 2.438 1.267-.97 1.76-1.16 1.76-1.16s-.177-1.684-.47-2.439c-.293-.755.235-3.425.939-4.76.703-1.335 1.818-1.974 2.228-1.974.41 0 2.522.174 3.52 0 .996-.174-.235-1.16-.47-3.135-.235-1.973-.586-2.031-.235-3.25.352-1.22.822-3.251 1.525-3.484C79.18 1.277 79.648 0 80.352 0s.235.406 1.76.464c1.524.058 3.167.175 3.87.58.704.407 1.819 1.626 2.346 2.207.528.58 1.701 1.567 2.464 2.67.762 1.103.997 1.684 1.642 2.206.645.523-.293 1.51.47 2.322.762.813.996 2.032 1.876 2.09.88.058 1.935-.348 2.815 1.161.88 1.51 1.29 1.742.938 2.787-.351 1.045-1.114 1.625.118 2.786 1.231 1.161 1.818 1.568 2.463 1.51.645-.059.821 1.393.704 2.902-.117 1.51-1.762 2.961-1.525 4.876.12.97.88.987 1.408 1.161.527.175 1.524 1.162 1.994 2.206.469 1.045.293 3.484 0 4.412-.294.93-.88 3.077-.939 4.064-.058.987-1.114 1.742-.586 2.67.528.93.528-.29 1.525-.348.997-.058 1.407 2.206 1.876 2.787.47.58.47 1.741.821 1.509.352-.232.88-2.496 1.877-3.483.997-.987 2.58-2.264 3.167-3.135.587-.87 1.115-1.567 1.994-1.625.88-.058 1.115 1.335 1.408 1.857.293.523 1.525-.813 2.111-1.16.587-.35 4.986-2.787 6.452-3.02 1.466-.232 2.17-.406 3.284.697 1.115 1.103 1.584 1.858 1.525 3.135-.059 1.277.763 3.657.704 5.225-.059 1.567-.235 3.018.47 4.295.703 1.278-.294 2.903.234 4.528.528 1.626.528 3.135-.118 4.18-.645 1.045-2.052 4.064-2.228 4.528-.176.465-1.29 2.032-1.877 2.787-.587.754-.88 1.393-1.525 2.206-.645.812-2.229 1.741-2.58 2.554 2.063.286 2.521 1.451 3.518 2.09.997.638 1.173 2.496 1.76 2.438.586-.058 1.525.987 1.056 1.974-.47.987-.88 1.509-2.112 1.509-1.231 0-1.349.987-1.994 1.51-.645.522-.704 1.393-.704 2.09 0 .696-.352 2.031-1.29 2.437-.938.407-2.991 1.51-4.575 1.51-1.583 0-2.463.929-3.05 1.045-.586.116-.703 2.264-1.29 2.554-.586.29-3.05 1.103-4.34 1.858-1.29.754-2.111 1.219-.704 1.509 1.408.29 2.053 1.625 1.995 1.974-.06.348.527 2.496-.235 3.367 1.664.773.938 1.683 1.877 2.438.938.755 1.349 1.683 1.642 2.438.293.755.47 3.077-.938 4.296-1.408 1.219-3.46.929-4.692.929-.606 1.366-2.346-.058-2.816-.116-.469-.058-.88.29-1.76-.349-.879-.638-.703 1.684-2.462 1.277-1.76-.406-4.751-1.625-5.63-2.438-.88-.812-3.168-3.25-3.637-4.063-.47-.813-2.17-.116-3.05.464-.88.58-1.407.058-1.877.464-.469.407-2.58 3.367-3.636 4.529-1.055 1.16-1.935.696-2.346 1.393-.41.696-.528 1.219-2.228 2.67-1.701 1.451-2.346 1.684-3.168 2.67-.82.987-2.99 2.613-3.753 3.368-.763.754-1.29 1.973-1.877 3.018-.586 1.045-.938.174-1.525 1.858-.586 1.683-1.76 3.483-.82 4.992.938 1.51.234 1.277.234 1.277s-3.35.783-6.686.233c-2.39-.395-4.608-1.809-6.334-3.135z"/><path d="M56.658 108.208c.352-1.16 1.231-2.264 2.111-3.367.88-1.103 1.584-1.45 1.877-2.206.293-.754-.587-1.973-.587-1.973l-6.216.116s.88 2.264 1.407 3.599c.528 1.335.487 2.942 1.408 3.831zm6.217 21.77c-.291-1.85-.235-4.064-.235-5.283 0-1.219.88-4.644 1.642-6.27.763-1.625 1.29-3.308 2.815-4.876 1.525-1.567 1.643-3.135 3.05-4.18 1.408-1.044 2.346-1.973 3.284-1.973.939 0 2.757.754 3.637 1.045.88.29 1.994.696 1.994.696s-.939 1.51-1.877 2.09c-.938.58-2.756 1.742-3.402 2.322-.645.58-2.228 2.38-2.932 3.135-.704.755-2.17 2.206-2.698 3.483-.528 1.277-1.349 1.742-1.877 2.554-.528.813-.88 2.322-.938 3.251-.059.93.613 2.972.47 3.716-.529.26-1.282.288-2.933.29zm-8.094-2.642c.248-2.174 1.173-5.95 1.408-7.517.234-1.568.762-6.154.703-7.199-.058-1.045.118-1.857.821-3.134.704-1.278 2.405-3.02 2.816-4.064.41-1.045 2.463-2.903 2.463-2.903s2.58 1.045 3.167.93c-.207 1.562-.938 2.321-.938 3.25 0 .929-.646 4.76-.939 5.805-.293 1.045-1.525 2.613-1.76 3.948-.234 1.335-.293 2.148-.938 3.715-.645 1.567-.82 4.993-.82 5.573 0 .58.252 2.197-.118 4.093-1.911-.115-4.26-1.305-5.865-2.497zm13.372-60.46c1.799.27 2.229 0 2.815.348.587.348 1.564 1.78 1.994 2.786.43 1.007.821 2.322.352 3.716-.469 1.393-1.095 2.167-2.463 3.018-1.369.852-2.894 1.548-3.988 1.161-1.095-.387-3.128-.658-3.988-1.741-.86-1.084-1.877-2.322-1.877-3.6 0-1.276.162-2.062.82-3.018.737-1.069 2.073-2.322 3.168-2.322 1.095 0 1.368-.62 3.167-.348zM98.651 94.16c.762.638 2.522.058 3.636-.232 1.114-.29 1.584.116 2.698.232 1.114.116 1.877-.406 2.463.232.587.639.88 2.554.352 3.367-.528.813-.176 1.684.587 2.206.762.523 1.935 1.858 2.463 2.554.528.697 1.583 2.09.82 3.6-.762 1.509-1.641 1.219-3.518 1.509-1.877.29-3.05-.523-4.105-.58-1.056-.059-2.23-.755-3.05-.117-.821.639-3.695.174-4.458-.58-.762-.755-3.519-2.845-3.988-3.716-.469-.87-1.173-1.044.235-2.09 1.407-1.044 1.994-1.799 2.698-1.973.703-.174 1.76 1.567 2.463 1.51.704-.059 1.583 0 2.463.696.88.696 1.701 1.045 2.58 1.51.88.464 1.584.87 2.112 1.16.528.29.821.871 1.408 1.277.586.407 1.583-.696 1.055-1.277-.527-.58-1.876-1.683-3.05-2.206-1.172-.522-1.876-.696-2.58-1.277-.704-.58-2.17-1.393-3.284-1.51-1.115-.115-1.408-.638-1.525-1.276-.117-.639.762-3.658 1.525-3.02zm.234-43.539c.294-1.683 1.173-3.831 2.229-4.644 1.056-.813 1.935-1.684 2.229-1.742.293-.058 1.466 3.6 1.994 4.18.528.58 1.7.755 2.228-.696.528-1.452 2.581-3.774 3.871-4.877 1.29-1.103 1.232-1.393 1.643-1.741.41-.349.938 1.625 1.407 2.09.47.464.88.812 1.994-.813 1.115-1.626 3.52-3.251 4.458-3.483.938-.233 3.753-1.684 4.692-.93.938.756.88 1.917 1.055 2.903.176.987.821 3.31.821 4.412 0 1.103-.293 2.787.235 4.993.528 2.206.88 5.921.352 7.082-.528 1.161-1.115 2.496-1.525 3.948-.41 1.45-2.346 3.89-3.167 4.76-.821.87-3.109 3.367-3.988 4.296-.88.929-.645 1.625.352 1.509.997-.116 1.759 0 2.815.58 1.055.581 1.407 1.8 2.111 2.439.704.638 1.642 1.045 1.642 1.625 0 .58-1.29.29-1.876.813-.587.522-1.35.638-2.346 1.277-.998.639-.88 1.8-.822 3.019.06 1.219-.293 1.8-2.463 2.322s-4.457 1.045-5.747.929c-1.29-.116-1.408 1.45-1.408 2.438 0 .987-.528 1.683-1.877 2.438-1.349.755-4.223 2.09-6.1 2.206-1.876.116-3.988 1.451-4.809.697.547-2.562 1.056-3.774 1.173-4.877.118-1.103 2.522-1.8 2.816-3.367.293-1.567 2.463-4.296 2.463-5.921 3.537 1.135 11.26-.348 11.26-.348s.47-.987 0-1.51c-.469-.522-9.853 1.103-11.026.465.031-1.576-.469-2.903-.469-2.903s1.936-3.25 2.229-3.715c1.427.18 6.393-1.626 7.976-1.974 1.584-.348 4.458-1.451 5.63-2.554 1.174-1.103 1.877-1.452 3.05-2.903 1.173-1.451.587-1.51.587-1.51s-.293-.812-1.056-.115c-.762.696-2.991 3.135-4.457 3.831-1.466.697-2.757 1.451-4.106 1.858-1.349.406-4.574 1.451-5.395 1.51-.822.057.41-.93 1.759-2.323 1.349-1.393 3.226-4.876 3.87-5.689.646-.813 2.347-1.51 3.872-2.438 1.525-.929 4.281-2.206 5.16-2.554.88-.349-.703-1.278-1.641-.93-.939.349-4.047 1.858-4.692 1.974-.645.117 1.642-1.8 2.346-3.134.704-1.335.82-2.729 2.111-4.644 1.29-1.916 1.35-2.961 1.525-3.716.176-.754.88-2.67.704-3.483-.176-.813-1.466-.406-1.525.116-.059.523-1.056 2.496-1.056 3.135 0 .639-.704 2.438-1.29 3.483-.587 1.045-.704 1.568-1.29 2.09-.587.522-.821 1.858-1.173 2.67-.352.813-.88 1.161-1.408 1.626-.528.464-1.056 1.393-1.407 2.206-.352.813-2.053 3.077-2.581 4.063-.528.987-.704-.696-.352-2.322.352-1.625-.176-2.031.352-3.715.528-1.683.176-3.425.47-4.064.292-.638-1.467-1.8-1.643-1.045-.176.755-.235 3.251-.235 3.716 0 .464-.41 2.554-.469 3.483-.059.929 0 2.032-.234 2.786-.235.755-.235 2.787-.235 3.6 0 .812-.645 1.683-1.408 2.554-.762.87-3.284 3.89-3.753 4.76-.47.87-.997 1.393-1.29 1.626-1.487-1.243-2.816-1.8-3.168-2.09.345-1.052.646-2.148 1.408-3.019.762-.87.528-3.25.47-4.412-.06-1.161-.763-2.09-.47-3.715.293-1.626.352-4.18.704-5.573.352-1.393 1.056-2.148.586-2.438-.469-.29-1.642-.697-1.642 0 0 .696-.762 2.786-.704 3.599.059.813-.352 4.18-.352 4.876 0 .697.235 2.206.235 2.903 0 .696.117 2.09-.235 3.135-.351 1.044-.88 3.134-1.29 3.483-.41.348-.82 0-1.29 0 .978-1.88.762-3.31 1.056-4.877.293-1.567.351-3.193.82-4.412.47-1.219.353-2.496.235-3.367-.117-.87-.704-1.915-.82-3.134-.118-1.22-.998-1.103-.705-2.787zm-9.5-25.427c-.353-.812.527-1.45.468-2.438-.058-.987-.703-1.625-.469-3.018.235-1.394.587-2.729.821-3.948.235-1.219-.997-1.045-1.407-2.67-.41-1.626-1.525-2.09-1.877-3.251-.352-1.161-1.29-2.09-1.525-3.019-.235-.929-1.7-2.264-1.877-3.019-.176-.754-.352-1.45-.352-1.973 1.263-.236 2.933.638 3.402 1.16.47.523 3.519 4.76 3.87 5.69.353.929.822 3.135 1.408 3.715.587.58 1.643 1.22 2.464 1.277.82.058 1.407.058 1.876 1.161.47 1.103-.469 2.264 0 3.367.47 1.103.528 2.787 1.877 3.251 1.35.465 2.112.407 2.112 1.045 0 .639-.528 3.077-.939 4.064-.41.987-1.055 2.38-.704 3.483.352 1.103 1.995.638 2.933 1.393.938.755 1.349 2.96.938 4.18-.41 1.219-1.76 7.082-2.346 8.243-.586 1.161-1.583 3.657-2.111 4.412-.528.755-1.349-.813-1.408-2.322-.058-1.51-.703-3.425-.703-4.296 0-.87.88-1.045 1.76-1.741.879-.697 2.697-1.974 2.814-3.135.118-1.161-1.231-.813-1.525-.349-.293.465-.938 1.974-1.642 2.09-.704.116-2.287 1.045-2.815 1.51-1.566-1.693-1.7-1.684-2.698-1.858-.997-.174-2.405-.058-2.58-1.045-.176-.987.117-2.67.351-3.25.235-.581.822-.117 1.877-.93 1.056-.812 2.229-1.915 2.815-3.018.587-1.103 1.115-1.394 1.76-1.742.645-.348.938-.813 1.173-1.51.234-.696-1.35-1.044-1.877-.348-.528.697-.88 1.8-1.76 1.858-.88.058-.41 1.22-1.055 1.51-.645.29-1.525 1.335-1.76 1.857-.234.523-.937.62-1.29.465.321-2.286.059-3.077 0-3.948-.059-.87 0-1.161.704-1.393.704-.232 1.29-1.103 1.525-1.742.234-.638 1.173-1.045 1.642-2.09.47-1.045-.88-1.393-1.29-.928-.41.464-1.115 1.973-1.642 2.322-.528.348-.587 1.741-.939.928zm-19.238 10.45c.176-1.916.293-5.109.235-6.502-.059-1.393-.47-4.064 0-4.992.469-.93.82-1.51 1.642-2.09.821-.58 1.232-1.974.938-3.135-.293-1.161-.469-3.773.235-4.528.704-.755 1.7-1.161 3.167-1.277 1.466-.116 2.64-.116 2.932-1.277.294-1.161-.351-2.09-.703-3.251s-.235-2.497.234-4.064c.47-1.567 1.056-2.786 2.464-2.786.296 1.847 0 2.844.938 3.483.938.638.997 1.8 1.994 2.786.997.987.645 1.8 1.29 2.787.645.987 1.642 2.844 2.112 3.831.469.987 1.231.697 1.173 1.51-.059.812-1.056 1.973-1.056 3.134 0 1.161.176 1.916.352 2.903.176.987-.645 2.438-.47 3.831.177 1.393.177 3.483 0 4.528-1.263-.572-1.348-.464-2.345-2.09-.997-1.625-.88-1.567-1.877-2.67s-2.522-3.425-3.284-4.644c-.763-1.22-2.346-2.322-2.816-3.251-.469-.929-1.876.174-1.407.58.469.407 1.642 1.568 2.346 2.787.704 1.219 1.7 3.25 2.58 3.831.88.58 1.35 1.452 1.994 2.67.646 1.22 1.232 2.613 2.112 3.252.88.638 2.228 1.567 2.698 2.322.469.754-.176 3.425-.235 4.063-.059.639-3.519.871-4.34 0-.821-.87-2.229-2.09-3.167-3.25-.938-1.162-2.64-2.671-2.815-3.948-.176-1.277-1.877-.755-1.642-.232.234.522.997 2.206 1.642 2.786.645.58.762 1.974 1.642 2.67.88.697 1.818 1.916 2.229 2.439.41.522-2.464.929-4.106.812-1.642-.116-1.76.871-3.519.697-1.76-.174-2.874.058-3.284-1.277-.41-1.335-.059-.523.117-2.438zM52.317 19.97c-1.114-1.684-1.876-2.264-2.58-3.251-.704-.987-1.407-1.22-2.229-2.322-.82-1.103-1.583-1.277-2.111-1.974-.528-.697-2.17-1.683-2.815-2.438-.645-.755-2.112-.987-2.815-1.277-.704-.29.645-.755 1.642-.813.997-.058 2.815.406 4.575.464 1.759.059 4.164.29 5.63 1.045 1.466.755 3.695 2.09 4.457 2.09.763 0 2.933-.87 4.34.349 1.408 1.219 2.112 2.902 3.167 4.295 1.056 1.394 1.408 2.787 2.464 3.716 1.055.929 1.994 2.612 2.463 3.483.47.87.352 5.05.352 6.153 0 1.103-.352 4.877-.47 5.805-.117.93-.234 1.452-.938 1.974-.704.523-1.994-1.219-2.932-1.625-.939-.407-1.818-1.103-1.877-2.438-.059-1.336.762-2.613.586-3.484-.175-.87-.469-3.773-.234-4.76.234-.987-.293-4.121-.587-5.108-.293-.987-.352-1.452-.586-2.322-.235-.871-1.408.58-1.29 1.277.117.696.645 4.121.703 4.992.059.871-.293 1.684 0 3.135.294 1.451.528 1.742.352 2.786-.176 1.045-.528 3.31-.703 3.948-.176.639-.646.174-1.056-.929-.41-1.103-.704-2.612-1.642-3.135-.939-.522-1.819-3.599-1.877-4.528-.059-.928-1.642-2.38-1.994-3.25-.352-.871.176-1.8.234-3.368.059-1.567.118-3.018-.586-4.063s-1.466-.523-1.877-1.742c-.41-1.219-2.346-.58-1.994.116.352.697 1.466 2.032 2.111 2.903.646.87.468 2.745.118 4.296zm-5.864 19.853c-.821-.87-2.053-2.09-2.58-3.367-.529-1.277-.646-2.554.468-3.134-.528-1.414-2.346-2.787-2.932-3.6-.587-.812-1.76-2.438-2.111-3.134-.352-.697-.822-1.8-.47-2.787.352-.987.352-1.277.352-2.206s-.762-2.264-1.055-3.135c-.294-.87.41-2.206 0-3.25-.411-1.045-1.525-3.135-1.525-4.296 0-1.161.645-1.858 1.407-1.277.763.58 2.17 1.045 2.815 1.045.646 0 .528 1.277 1.643 2.09 1.114.812 1.114-.059 2.111 1.74.997 1.8 1.466 2.381 2.463 2.904.997.522 1.818 1.45 2.229 2.205.41.755 1.173 1.22 2.229 2.323 1.055 1.103 2.463 2.38 2.697 3.483-1.522-.844-1.935-.407-2.815-1.277-.88-.871-2.17-1.045-2.815-1.626-.645-.58-2.698-1.393-3.402-1.974-.703-.58-1.876.407-1.055 1.045.82.639 1.29 1.393 2.228 1.51.939.116 2.464 1.393 3.637 2.09 1.173.696.586 1.16 1.76 1.509 1.172.348 2.345 1.451 2.932 1.741.586.29 2.815 3.542 2.932 4.528-1.89-.816-2.404-.406-3.402-1.045-.997-.638-1.642-.522-3.05-1.393-1.407-.87-2.287-.464-3.401-1.857-1.114-1.394-1.232-1.045-1.877-1.742-.645-.697-1.994.174-1.29 1.045.704.87 1.994 2.264 2.932 2.903.939.638 2.112.754 3.167 1.393 1.056.638 1.76.696 3.402 1.51 1.642.812 1.877-.175 2.933 1.392 1.055 1.568 0 2.206-.47 2.439-.469.232-1.407.754-2.932 0-1.525-.755-1.584-.813-2.933.348-1.348 1.16-3.401 2.728-4.222 1.857zM36.365 44.7l-1.877-.929s.235-.755-.586-1.858c-.821-1.103-2.288-3.599-3.167-4.295-.88-.697-2.405-2.032-3.402-2.439-.997-.406-2.58-1.277-3.284-1.625-.704-.348-.997-.987-1.76-1.51-.762-.522-1.583-1.16-2.229-1.393-.645-.232-1.759-1.335-2.58-1.277-.821.058-1.584-.29-2.111-.348 1.33-1.106 2.287-1.451 3.87-1.51a66.42 66.42 0 0 1 4.81 0c1.525.059 2.932-.116 4.574-.58 1.642-.464 2.346-.58 2.346-.58s1.584.812 2.229 1.16c.645.349 3.519 1.626 4.457 1.742.939.116 1.408.58 1.877 1.161.47.58 1.114 1.568 1.642 2.09.528.522 1.232.639.704 1.625-.528.987-.117 1.568.117 2.09.235.523.763 1.858 1.408 2.438.645.581 1.349 1.742 1.76 2.09.41.349.703.697.703.697s-1.76 2.264-2.463 3.019c-.704.754-2.229 2.38-2.698 2.902-1.155-.496-1.76-1.451-1.76-2.206 0-.754.118-2.264.47-3.018.352-.755-.763-1.51-.821-2.787-.059-1.277.352-2.148-.352-3.019-.704-.87-1.466-2.148-1.76-2.786-.293-.639-1.162-2.167-1.642-2.554-.48-.388-1.642.464-.938 1.16.704.697 1.466 2.09 1.76 2.787.292.697.996 1.916 1.407 2.322.41.407-.352 2.148-.117 2.787.234.638.762 1.509.703 1.973-.058.465-.9 2.076-1.29 2.67zM35.32 63.563s-5.29-.345-6.345-.635c-1.055-.29-3.636-1.103-3.87-1.625.238-1.794.527-2.497.469-3.02-.06-.522-.88-.696-1.877-1.16-.997-.465-4.282-3.193-4.692-4.412-.41-1.22-.88-2.903-.118-3.831.763-.93 2.933-1.161 3.754-1.161.821 0 1.056-.987.117-1.742-.938-.755-4.222-2.438-5.043-3.25-.822-.814-2.64-1.336-2.23-2.671.411-1.335.763-1.8 1.643-2.322.88-.523.176-1.626-.586-2.555-.763-.928-2.17-3.715-2.23-4.412 1.526.933 2.464.175 3.285.465.821.29 1.76.755 2.58 1.393.822.639 1.878 2.438 3.168 2.67 1.29.233 3.988 1.858 5.161 2.787 1.173.929 3.578 4.122 3.87 4.528.294.406-.703 1.103-1.407.929-.704-.174-3.05-.871-4.692-1.393-1.642-.523-3.401-1.045-4.692-1.161-1.29-.117-1.525.928-.469 1.509 1.056.58 2.287.58 4.223 1.045 1.935.464 3.05.987 4.105 1.16 1.056.175 2.405-.406 4.692.814 2.288 1.219 4.4 2.67 4.927 3.483-.683 1.327-1.232 3.367-1.877 3.715-.645.348-3.988.522-5.748.116-1.759-.406-3.518-.29-4.574-.464-1.056-.174-1.584-.465-2.229-.813-.645-.348-2.111-.639-2.111.348s1.29 1.393 2.698 1.858c1.407.464 3.225.232 4.457.464 1.232.233 2.522.697 3.988.697 1.466 0 2.287-.464 2.815-.116-.598 1.513-.586 3.25-.586 3.25s-1.76.291-2.463.233c-.704-.058-.822 1.277-.118 1.277s1.408.232 1.76.232c-.171 1.497.65 3.86.245 3.77zm.459 19.915c-1.701-.058-6.276-.638-7.977-.116-1.7.523-3.401.813-4.574.465-1.173-.349-2.757.174-3.871-.465-1.115-.638-2.405-.58-3.988-.232-1.584.348-4.751-.232-4.81-1.625-.058-1.394.235-3.367 0-4.528-.234-1.161-.704-1.568-2.228-1.394-1.525.175-4.106 0-4.927.58-.821.581-2.405-1.218-1.877-2.321.528-1.103 1.642-2.148 3.402-2.787 1.76-.638 4.164-.812 5.63-1.741 1.467-.93 2.346-2.438 4.223-3.019 1.877-.58 3.988-1.045 4.81-2.438.82-1.393 1.524-1.916 2.11-1.858.587.058 2.053 1.335 3.285 1.51 1.232.174 3.87.696 5.63 1.045 1.76.348 4.575.696 4.575.696s.41 3.31.352 3.948c-.059.638.117 2.09.117 2.09s-1.818.406-3.167-.117c-1.349-.522-2.815-1.509-3.402-2.09-.586-.58-.586-1.683-1.055-1.857-.47-.174-3.402-1.277-3.402-1.277l-.352 1.393s1.466.639 2.229.813c.762.174 1.818 2.612 2.463 3.135-1.83-.5-1.994.116-3.519-.581-1.525-.697-3.401-.639-4.574-1.742s-.704.639-1.525 1.045c-.821.407-4.282.523-5.279.93-.997.406-3.167 1.218-3.988 1.392-.821.175-1.173.581-1.29 1.161-.118.581.234.987 1.407.697 1.173-.29 2.288-1.103 3.285-1.16.997-.059 1.818-.35 3.05-.465 1.231-.116 2.17-.639 3.05-.813.879-.174 2.697.697 2.697.697s-.938.87-1.76 1.509c-.82.638-2.11 1.451-2.697 1.974-.587.522-1.525 1.973-1.877 2.67-.352.697-.704 1.393-.704 2.09 0 .697.704-.232 1.76-1.51 1.055-1.277 1.583-1.45 2.463-1.857.88-.406 1.349-1.626 2.111-2.09.763-.464 1.936-2.206 2.698-2.554.763-.349 1.994.754 3.754.696 1.76-.058 4.868.465 5.513.349-2.065.56-1.525 1.045-2.463 1.277-.939.232-1.232.813-1.76 1.625-.528.813-1.232.987-1.76 1.51-.527.522-.469 2.148 0 2.09.47-.059 1.29-1.162 2.23-1.858.938-.697.938-1.684 1.876-1.974.938-.29 1.818-.348 2.58-1.393.763-1.045.646-1.742 1.29-1.742.646 0 2.054.232 2.933.813.88.58.294.813-.703 2.09-.997 1.277-1.61 3.621-1.994 7.314zm15.131 16.835c-1.114.987-1.056 1.858-3.167 2.206-2.111.349-5.924.058-6.92 0-.998-.058-2.523.233-3.637 1.394a273.465 273.465 0 0 1-3.636 3.715c-.763.755-1.76-1.974-1.642-2.67.117-.697.41-1.626 0-1.974-.41-.349-2.698.58-3.52 1.393-.82.813-3.753 2.206-4.574 2.67-.821.465-2.756.871-3.167 1.278-.41.406-.938.29-1.642-.349-.704-.638-.821-2.438-.47-3.947.352-1.51-.293-2.206.235-3.019.528-.813 1.936-.697 1.877-1.625-.059-.93-1.349-1.626-2.111-1.626-.763 0-1.467-.232-1.525-1.16-.059-.93.352-1.684 1.76-2.787 1.407-1.103 3.753-2.555 4.691-3.367.939-.813 1.877-.987 2.463-1.161.587-.175-.277-1.714 0-2.323.278-.608-.176-1.219 1.408-1.741 1.584-.523 3.226-.523 4.927-.464 1.7.058 3.87.232 4.222.464.352.232 1.115 1.393 1.056 2.206-1.828.067-2.757.813-3.636.58-.88-.232-2.288-.522-2.933-.928a2.544 2.544 0 0 0-1.877-.349c-.527.116-.175.871.939 1.161 1.114.29 2.698 1.336 3.636 1.394.939.058 2.698.29 3.402.116.704-.174 1.29-.349 1.29-.349s.528 1.336 1.056 1.742c.528.406.82 1.045.82 1.045s-1.641.929-3.166 1.393c-1.525.464-4.985.929-6.452 1.161-1.466.232-5.102.987-6.451.929-1.349-.058-.293 1.393.704 1.393.997 0 3.695-.348 4.692-.464-1.823 1.32-3.226 1.51-4.34 2.554-1.115 1.045-3.226 3.25-3.52 3.948-.293.696.998 1.741 1.408 1.044.41-.696 2.112-2.96 3.285-3.715 1.173-.754 2.815-1.335 4.105-1.974 1.29-.638 3.46-2.206 4.34-2.438.88-.232 2.815-1.16 3.754-1.277.938-.116 1.642-.464 2.463-.348-1.81 2.004-3.87 5.921-4.223 6.618-.352.696.528 1.509 1.173.696.645-.812 1.936-2.612 2.463-3.715.528-1.103 1.701-2.786 2.464-3.25.762-.465 2.815 2.089 2.815 2.902 0 .812-.41 2.38-.704 3.25-.293.871.587 1.626 1.408.581.82-1.045.938-2.264.938-3.25 1.345.543 2.723 1.148 3.52 2.437z" fill="#14a93b"/><path d="M46.05 43.675s2.927 1.589 3.443 2.035c.516.446.28-1.031-.674-2.001-.954-.97-1.312-1.638-1.312-1.638l-1.457 1.604zm28.203 62.792c1.933.375 3.108.755 4.34.813 1.231.058 3.225.29 3.519-.233.293-.522.293-1.973-.118-2.438-.41-.464-1.237-.368-2.463 0-1.272.383-4.773 1.096-5.278 1.858zM38.242 84.059c-.489-.676-1.056-2.032-.821-3.483.234-1.451.528-1.8.82-2.438.732.885 1.057.987 1.057 1.741 0 .755.129 2.613.117 3.135-.025 1.087-.739 1.646-1.173 1.045zm5.63 9.172c.939-.755 1.584-1.451 2.346-1.974-.652-1.899-1.818-3.483-2.346-3.947-.528-.465-3.402-1.277-3.87-1.277-.47 0-1.35.348-1.174.928.176.581 1.936 3.6 2.698 4.064.763.465 1.371 1.497 2.346 2.206zm8.915 5.225s1.76-2.148 1.76-2.787c0-.638-.939-1.857-.939-1.857s-4.281-1.103-5.278-1.394c-.998-.29-2.64.871-2.933 1.626 1.882 2.036 2.229 2.844 3.636 3.715 1.408.87 3.754.697 3.754.697zm6.569.348s-4.634.755-5.63.232c1.41-1.929 2.287-3.831 2.345-4.528.059-.696.763-.696 1.173-.464.41.232 1.79 1.201 2.112 4.76zm-19.218-25.71c-1.838-1.11-3.48-1.923-3.304-3.896.176-1.974 0-1.742.235-2.555 1.946-.801 5.63-3.018 6.803-4.295 1.173-1.278 1.056-2.729 1.29-3.716.235-.987 1.76-1.857 2.581-2.438.821-.58 1.056-2.09.821-3.367-.234-1.277.47-2.786 1.29-4.296.821-1.51 1.115-2.206 1.29-2.786.177-.58-2.404-4.122-2.463-4.644 1.01-.683 3.05-2.09 3.05-2.09s1.466.929 2.346.929c.88 0 3.167-.697 4.81-2.09 1.642-1.394 1.935-1.742 2.228-1.742.293 0 3.167 2.322 4.692 3.135 1.525.813 3.695 2.09 3.87 2.67-1.18 1.174-1.641 3.077-1.993 3.716-.352.638-2.98 3.97-2.58 6.734.246 1.706 1.008 4.18.82 5.689-.152 1.227 1.818 1.567 1.76.348-.059-1.219-.763-4.644-.821-5.689-.059-1.045.176-2.787.938-4.18.763-1.393 1.642-2.612 1.76-3.367.117-.754 1.29-1.974 2.228-2.438.939-.464 3.109-1.916 3.871-2.554.763-.639 1.466-.29 2.815-.465 1.35-.174 3.402-.522 4.223-.58.821-.058 3.578 1.103 4.927.464 1.349-.638 2.873-.464 3.519-.116.645.348 1.76 2.438 1.76 2.438s-1.408 1.51-2.112 2.206c-.704.697-1.701 2.438-1.525 3.832 1.276.078 1.525-.697 1.525-.697s-.118-1.683.586-2.206c.704-.522 1.936-1.451 2.463-1.974.818.916.88 3.251 1.408 4.296.528 1.045 1.76 4.412 2.463 5.69.704 1.276.997 2.728 1.408 3.83.41 1.104-.41 3.194-.704 4.297-.293 1.103-.293 3.425-1.056 5.108-.762 1.684-.293 3.367-1.173 3.948-.88.58-1.47.569-2.932 1.16-2.09.846-2.874 2.323-3.988 2.439-1.114.116-1.76.522-2.815.232-1.056-.29-2.405-.29-3.637.348-1.231.639-1.173 1.51-.351 1.277.82-.232 1.994-.406 2.58-.464.587-.058 1.349.116 2.229.232.88.116 3.46-.348 4.34-.696.88-.349.469-1.394 2.228-2.206 1.76-.813 2.933-1.103 3.52-1.161.586-.058 2.99.232 3.988 1.277.997 1.045 2.078 1.518 2.228 2.554.32 2.199.352 3.89-.82 5.921-1.174 2.032-1.76 2.961-2.581 3.6-.821.638-2.112 2.96-2.346 4.992-.235 2.032-.763 4.354-1.056 5.109-.293.754-.88 2.031-2.346 3.018-1.466.987-5.337 2.67-7.155 3.6-1.818.928-3.46.638-4.927.812-1.466.174-3.577.697-5.044 1.393-1.466.697-3.753 1.916-4.692 1.974-.938.058-1.818 0-2.111-.929-.293-.929-.88-3.657-.47-4.992.411-1.335.177-4.47.94-7.663.762-3.193-.47-4.876-.47-4.876l-1.056.464s.47 1.8.235 2.787c-.235.986-1.114 4.005-1.173 5.689-.059 1.683.176 4.005-.117 4.76-.294.755-1.584 1.103-2.346.929-.763-.174-3.832-.833-4.34-2.09-.59-1.46-1.056-4.006-1.408-5.225-.352-1.219-2.053-2.728-3.519-2.786-1.466-.058-3.402.116-4.81-.349-1.407-.464-2.932-.464-3.4-.928-.47-.465-1.057-2.38-2.347-3.832-1.29-1.451-4.047-2.206-5.044-2.206.56-1.312.363-2.782 0-4.18-.526-2.03-1.114-3.54-.586-5.92 2.248-.496 3.577-1.278 5.044-1.51 1.466-.232 3.284-.058 4.692-.465 1.407-.406.938-.058 2.697-.116 1.76-.058 3.578-.348 4.458-.812.88-.465 1.877-.755 2.346-.465-.365 1.162-.235 2.903-.235 2.903s-2.463 1.103-3.753 1.625c-1.29.523-2.464 1.335-3.167 1.858-.704.522-.352.929-.352.929s.586.058 2.111-.697c1.525-.755 2.933-1.393 3.988-1.741 1.056-.349 1.408-.813 1.408-.813s1.173 1.683 1.76 2.206c-1.303 1.573-1.174 1.974-1.174 1.974l.587.348s.704-.87 1.525-.929c.82-.058 1.055.58 1.055.58s-.293 7.721-.117 9.057c1.29.125 1.525-.233 1.525-.233s.059-4.121.235-5.805c.176-1.683.234-2.786.234-2.786s2.17.754 2.58-.232c1.562 3.258 2.405 3.25 2.933 3.599.528.348 1.466 1.51 1.877 2.206.41.696.352 2.67.704 3.483.352.813.528 2.206.704 2.786 1.199.372 1.055-.116 1.055-.116l.235-1.277s-.528-1.277-.704-3.019c-.176-1.741-.41-2.322-1.29-3.25-.88-.93-3.636-3.426-3.871-4.76 1.6-.205 1.994-.291 2.698-.35.704-.057 1.583 1.046 2.932 2.09 1.35 1.046 4.868 3.774 5.63 4.297.417-.33.704-.93.704-.93s-3.695-3.308-4.574-4.295c3.027.393 5.513-.813 5.513-.813l-.47-1.277s-1.231.29-3.05.58c-1.817.29-4.28.407-4.691-.115-.41-.523-1.525-1.162-1.525-1.162s3.402-2.264 2.229-5.805c4.186-.594 7.272-2.786 7.272-2.786s.118-.929-.469-.697c-.586.232-2.111.813-3.167 1.045-1.056.232-2.463 1.045-3.519 1.161l-1.29-2.09s2.639-3.193 3.284-4.063c.645-.871 1.877-1.742 1.877-1.742l-.821-.813s-4.458 5.05-5.161 5.806c-.46-.287-.822-.58-.822-.58s1.408-1.859 1.408-2.904c0-1.044.567-3.898.117-5.689-1.3.408-1.642.93-1.642.93s.41 1.392.235 2.786c-.176 1.393-.704 3.25-1.173 3.831-1.17-.914-4.458-.116-4.458-.116s-1.524-3.193-2.11-4.992c-.587-1.8-1.174-5.109-1.174-5.109s-1.232-1.277-1.642-1.161c-.41.116.43 1.28.352 2.438-.103 1.514.117 1.974.82 3.135.705 1.161 1.584 4.76 1.878 5.573-.724.475-1.525.58-1.525.58s-1.936-1.509-2.58-1.973c-.646-.465-.998-1.51-1.408-2.903-.41-1.393-1.408-3.831-1.408-3.831h-1.29s.586 1.451 1.055 2.902c.47 1.452.352 3.193 1.173 4.18.822.987 3.167 2.438 3.167 2.438l-1.407 2.206s-7.39-4.528-8.798-5.225c-1.407-.696-2.932.349-2.932.349l1.056.58s2.58.523 3.988 1.394c1.407.87 3.695 2.844 4.34 3.715-1.805.7-2.333 1.137-3.167 1.045-1.144-.126-4.106.116-5.513.232-1.408.116-2.11.569-3.05.58-2.246.029-4.284.93-6.432 1.806zm-3.074-8.526c-.137-3.812-.48-6.04 1.412-10.58 2.01-4.824 5.983-8.65 6.686-9.288 1.67.945 3.754 1.393 3.989 1.857.234.465-1.35 2.323-1.643 2.787-.293.464-1.524-.058-2.111.116-.586.174-2.932 2.032-3.284 2.554.808 1.264.938 1.277.938 1.277s1.173-1.567 2.111-1.857c.939-.29 2.053.464 1.877 1.974-.176 1.509-2.876 4.261-7.741 5.573.698.838 1.172 1.393 1.172 1.393s2.473-1.484 2.816-1.161c.633.596-.47 1.567-.939 1.857-.469.29-4.464 4.284-5.283 3.498z" fill="#ffb401"/></svg>