<?xml version="1.0" encoding="UTF-8" standalone="no"?><svg xmlns="http://www.w3.org/2000/svg" xmlns:xlink="http://www.w3.org/1999/xlink"><symbol viewBox="0 0 16 16.00103" id="github"><path clip-rule="evenodd" d="M8 0C3.582 0 0 3.673 0 8.204c0 3.624 2.292 6.698 5.47 7.783.4.075.547-.178.547-.396 0-.193-.007-.71-.01-1.395-2.226.496-2.696-1.1-2.696-1.1-.363-.947-.887-1.2-.887-1.2-.726-.508.055-.497.055-.497.803.057 1.225.845 1.225.845.714 1.253 1.873.892 2.328.68.074-.528.28-.89.51-1.095-1.778-.207-3.645-.91-3.645-4.054 0-.896.312-1.628.823-2.2-.08-.208-.356-1.042.08-2.172 0 0 .67-.22 2.2.84A7.51 7.51 0 0 1 8 3.968a7.49 7.49 0 0 1 2.003.276c1.527-1.062 2.197-.84 2.197-.84.437 1.128.162 1.962.08 2.17.512.573.82 1.306.82 2.2 0 3.152-1.87 3.846-3.65 4.05.287.25.543.753.543 1.517 0 1.098-.01 1.982-.01 2.25 0 .22.144.476.55.396C13.71 14.898 16 11.826 16 8.204 16 3.674 12.418 0 8 0z" class="aicon-svg aicon--github" fill="#231e1b" fill-rule="evenodd"/></symbol><symbol viewBox="0 0 16 13" id="twitter"><path class="bicon-svg bicon--twitter" d="M16 1.54c-.588.26-1.22.436-1.885.516A3.293 3.293 0 0 0 15.558.24a6.564 6.564 0 0 1-2.085.796A3.282 3.282 0 0 0 7.88 4.03 9.32 9.32 0 0 1 1.115.6 3.28 3.28 0 0 0 2.13 4.983a3.267 3.267 0 0 1-1.487-.41v.04a3.285 3.285 0 0 0 2.632 3.22 3.284 3.284 0 0 1-1.482.055 3.286 3.286 0 0 0 3.067 2.28A6.59 6.59 0 0 1 0 11.527 9.294 9.294 0 0 0 5.032 13c6.038 0 9.34-5 9.34-9.338 0-.143-.004-.284-.01-.425A6.684 6.684 0 0 0 16 1.537" fill="#55acee"><desc>Twitter logo</desc><title>Twitter</title></path></symbol></svg>