<?xml version="1.0" encoding="UTF-8" standalone="no"?>
<!-- Generator: Adobe Illustrator 16.0.0, SVG Export Plug-In . SVG Version: 6.00 Build 0)  -->

<svg
   xmlns:dc="http://purl.org/dc/elements/1.1/"
   xmlns:cc="http://creativecommons.org/ns#"
   xmlns:rdf="http://www.w3.org/1999/02/22-rdf-syntax-ns#"
   xmlns:svg="http://www.w3.org/2000/svg"
   xmlns="http://www.w3.org/2000/svg"
   xmlns:sodipodi="http://sodipodi.sourceforge.net/DTD/sodipodi-0.dtd"
   xmlns:inkscape="http://www.inkscape.org/namespaces/inkscape"
   version="1.1"
   id="Layer_1"
   x="0px"
   y="0px"
   width="32"
   height="31.999996"
   viewBox="0 0 31.999999 31.999996"
   enable-background="new 0 0 1570 1624"
   xml:space="preserve"
   inkscape:version="0.48.4 r9943 custom"
   sodipodi:docname="Ysgol Trewen logo transparent 32px.svg"
   inkscape:export-filename="/Users/growdigital/Desktop/favicon.png"
   inkscape:export-xdpi="90"
   inkscape:export-ydpi="90"><metadata
   id="metadata3036"><rdf:RDF><cc:Work
       rdf:about=""><dc:format>image/svg+xml</dc:format><dc:type
         rdf:resource="http://purl.org/dc/dcmitype/StillImage" /><dc:title></dc:title></cc:Work></rdf:RDF></metadata><defs
   id="defs3034" /><sodipodi:namedview
   pagecolor="#ffffff"
   bordercolor="#666666"
   borderopacity="1"
   objecttolerance="10"
   gridtolerance="10"
   guidetolerance="10"
   inkscape:pageopacity="0"
   inkscape:pageshadow="2"
   inkscape:window-width="1440"
   inkscape:window-height="851"
   id="namedview3032"
   showgrid="false"
   inkscape:zoom="0.5"
   inkscape:cx="668.81133"
   inkscape:cy="428.53757"
   inkscape:window-x="0"
   inkscape:window-y="23"
   inkscape:window-maximized="0"
   inkscape:current-layer="layer2"
   fit-margin-top="0"
   fit-margin-left="0"
   fit-margin-right="0"
   fit-margin-bottom="0" />























<g
   inkscape:groupmode="layer"
   id="layer1"
   inkscape:label="Base"
   style="display:inline"
   transform="translate(-508.64757,-1026.4509)" /><g
   inkscape:groupmode="layer"
   id="layer3"
   inkscape:label="Green"
   transform="translate(-508.64757,-1026.4509)" /><g
   inkscape:groupmode="layer"
   id="layer4"
   inkscape:label="Gold"
   style="display:inline"
   transform="translate(-508.64757,-1026.4509)" /><g
   inkscape:groupmode="layer"
   id="layer5"
   inkscape:label="Red"
   style="display:inline"
   transform="translate(-508.64757,-1026.4509)">
</g><g
   inkscape:groupmode="layer"
   id="layer2"
   inkscape:label="Logo"
   transform="translate(-508.64757,-1026.4509)"><g
     id="g3982"
     transform="matrix(0.02887358,0,0,0.02857931,503.1333,1018.5059)"
     inkscape:export-filename="/Users/growdigital/Desktop/ysgol-trewen-logo.png"
     inkscape:export-xdpi="90"
     inkscape:export-ydpi="90"><path
       inkscape:connector-curvature="0"
       d="m 754,1242 c 0,0 13,-12.5 15,-16 2,-3.5 9.5,-18.5 13,-20 3.5,-1.5 12.5,-4 14,-7 1.5,-3 -7.5,-6.5 -12,-9 -4.5,-2.5 -7,-22 -7,-22 l -5,5 c 0,0 -7,16.5 -11,28 -4,11.5 -7,41 -7,41 z m -104,127 c 3.5,-27.5 9,-39.5 9,-52 0,-12.5 0.5,-25 3,-39 2.5,-14 3.5,-36 3,-47 -0.5,-11 -9,-39.5 -15,-51 -6,-11.5 -13.5,-27.5 -17,-32 -3.855,4.85 -10.5,7 -15,14 -4.5,7 -17,8 -23,8 -6,0 -23.5,4 -31,3 -7.5,-1 -21,-4 -27,-1 -6,3 -17,2 -24,7 -7,5 -26,34.5 -34,37 -8,2.5 -15.5,2 -20,-10 -4.5,-12 -10,-24 -10,-24 0,0 -16,12.5 -24,14 -8,1.5 -31.5,13.5 -35,17 -3.5,3.5 -12.5,6.5 -18,11 -5.5,4.5 -14.5,8 -21,3 -6.5,-5 -18,-21.5 -17,-35 1,-13.5 4,-26 4,-35 0,-9 4.5,-20.5 -4,-26 -8.5,-5.5 -16,-13.5 -12,-22 4,-8.5 6.5,-21.5 14,-28 7.5,-6.5 27.5,-22 35,-27 7.5,-5 9.5,-17.5 28,-20 -3.529,-11.297 1,-22 1,-22 0,0 -7,2.5 -16,0 -9,-2.5 -22.5,0 -29,2 -6.5,2 -12.5,-11 -21,-8 -8.5,3 -31.5,8 -45,1 -13.5,-7 -21.5,-22.5 -22,-35 -0.5,-12.5 0,-29 -5,-30 -5,-1 -29,0 -39,5 -10,5 -28,-9 -31,-23 -3,-14 1,-19.5 7,-25 6,-5.5 21.5,-18.5 34,-24 12.5,-5.5 15.5,-5 30,-8 14.5,-3 21.5,-8.5 27,-15 5.5,-6.5 11,-12 21,-16 10,-4 19,-4.5 27,-10 8,-5.5 22,-13 20,-32 17.211,-2.1 15.5,8 24,8 8.5,0 13,-6 13,-6 v -12 c 0,0 -12,-2.5 -16,-7 -4,-4.5 -17,-6.5 -21,-17 -4,-10.5 -16,-17 -21,-29 -5,-12 -4,-21.5 -2,-28 2,-6.5 8.5,-14.5 17,-18 8.5,-3.5 18,-5 18,-5 0,0 -3,-5.5 -15,-9 -12,-3.5 -5.5,-9.5 -16,-13 -10.5,-3.5 -9.5,-7 -17,-10 -7.5,-3 -6,-10.5 -13,-13 -7,-2.5 -5.5,-22.5 -1,-28 4.5,-5.5 10,-9.5 13,-12 3,-2.5 -2,-7.5 -6,-13 -4,-5.5 -11.5,-20.5 -12,-28 -0.5,-7.5 -8.5,-24 -11,-27 -2.5,-3 8,-5 17,-10 9,-5 17,-14 23,-15 6,-1 25,-8 37,-8 12,0 30,4 35,4 5,0 16.5,4.5 24,0 7.5,-4.5 13.602,-2.039 27,-12 5.747,-4.273 6.5,2 15,9 8.5,7 11,5.5 17,8 6,2.5 24,11 24,11 0,0 -6.5,-9 -3,-21 3.5,-12 6.5,-33 -1,-44 -7.5,-11 -6,-21 -4,-28 2,-7 -7.5,-14 -7,-27 0.5,-13 -6,-11.5 -3,-28 3,-16.5 7,-23 20,-26 13,-3 36,-3 45,-6 9,-3 19,3.5 27,3 8,-0.5 28,1 42,8 14,7 34.5,16 40,16 5.5,0 4.5,7.5 21,2 16.5,-5.5 40.5,27 47,34 6.5,7 26.5,42 29,47 2.5,5 18,16 21,21 10.805,-8.35 15,-10 15,-10 0,0 -1.5,-14.5 -4,-21 -2.5,-6.5 2,-29.5 8,-41 6,-11.5 15.5,-17 19,-17 3.5,0 21.5,1.5 30,0 8.5,-1.5 -2,-10 -4,-27 -2,-17 -5,-17.5 -2,-28 3,-10.5 7,-28 13,-30 6,-2 10,-13 16,-13 6,0 2,3.5 15,4 13,0.5 27,1.5 33,5 6,3.5 15.5,14 20,19 4.5,5 14.5,13.5 21,23 6.5,9.5 8.5,14.5 14,19 5.5,4.5 -2.5,13 4,20 6.5,7 8.5,17.5 16,18 7.5,0.5 16.5,-3 24,10 7.5,13 11,15 8,24 -3,9 -9.5,14 1,24 10.5,10 15.5,13.5 21,13 5.5,-0.5 7,12 6,25 -1,13 -15.017,25.502 -13,42 1.021,8.357 7.5,8.5 12,10 4.5,1.5 13,10 17,19 4,9 2.5,30 0,38 -2.5,8 -7.5,26.5 -8,35 -0.5,8.5 -9.5,15 -5,23 4.5,8 4.5,-2.5 13,-3 8.5,-0.5 12,19 16,24 4,5 4,15 7,13 3,-2 7.5,-21.5 16,-30 8.5,-8.5 22,-19.5 27,-27 5,-7.5 9.5,-13.5 17,-14 7.5,-0.5 9.5,11.5 12,16 2.5,4.5 13,-7 18,-10 5,-3 42.5,-24 55,-26 12.5,-2 18.5,-3.5 28,6 9.5,9.5 13.5,16 13,27 -0.5,11 6.5,31.5 6,45 -0.5,13.5 -2,26 4,37 6,11 -2.5,25 2,39 4.5,14 4.5,27 -1,36 -5.5,9 -17.5,35 -19,39 -1.5,4 -11,17.5 -16,24 -5,6.5 -7.5,12 -13,19 -5.5,7 -19,15 -22,22 17.588,2.467 21.5,12.5 30,18 8.5,5.5 10,21.5 15,21 5,-0.5 13,8.5 9,17 -4,8.5 -7.5,13 -18,13 -10.5,0 -11.5,8.5 -17,13 -5.5,4.5 -6,12 -6,18 0,6 -3,17.5 -11,21 -8,3.5 -25.5,13 -39,13 -13.5,0 -21,8 -26,9 -5,1 -6,19.5 -11,22 -5,2.5 -26,9.5 -37,16 -11,6.5 -18,10.5 -6,13 12,2.5 17.5,14 17,17 -0.5,3 4.5,21.5 -2,29 14.184,6.66 8,14.5 16,21 8,6.5 11.5,14.5 14,21 2.5,6.5 4,26.5 -8,37 -12,10.5 -29.5,8 -40,8 -5.166,11.766 -20,-0.5 -24,-1 -4,-0.5 -7.5,2.5 -15,-3 -7.5,-5.5 -6,14.5 -21,11 -15,-3.5 -40.5,-14 -48,-21 -7.5,-7 -27,-28 -31,-35 -4,-7 -18.5,-1 -26,4 -7.5,5 -12,0.5 -16,4 -4,3.5 -22,29 -31,39 -9,10 -16.5,6 -20,12 -3.5,6 -4.5,10.5 -19,23 -14.5,12.5 -20,14.5 -27,23 -7,8.5 -25.5,22.5 -32,29 -6.5,6.5 -11,17 -16,26 -5,9 -8,1.5 -13,16 -5,14.5 -15,30 -7,43 8,13 2,11 2,11 0,0 -28.559,6.744 -57,2 -20.365,-3.397 -39.284,-15.578 -54,-27 z"
       style="fill:#000000;display:inline"
       id="path2992" /><path
       sodipodi:nodetypes="cssccsccsssssscsssssscccssssccsssssccsssssssscsssssssssssssssssssssssssssssssssssssssssssssssssssssssssscssccscccssscssssssssssssssssssssssssssssssssccssssssssssscssssssssssssscsssssssssssssssssssscssssssssssscssssssssssssssssscsssssssscsssssssssssssssssssssscsssssssssssssssssssssssssssssssssssscsscsssssssssssssscsssssssscsssssssssssssccssssssscssscsssssssscscsssssssssssccscsssssssssscsssssssssssscssssssssccsscccsssssssssssssssscscsssccscsssssssssscssssssssscssssssssssccsssssssssssssssssssssscsssssscscsssscssssssscssssssscc"
       inkscape:connector-curvature="0"
       d="m 674,1210 c 3,-10 10.5,-19.5 18,-29 7.5,-9.5 13.5,-12.5 16,-19 2.5,-6.5 -5,-17 -5,-17 l -53,1 c 0,0 7.5,19.5 12,31 4.5,11.5 4.148,25.34 12,33 z m 53,187.5 c -2.47723,-15.9371 -2,-35 -2,-45.5 0,-10.5 7.5,-40 14,-54 6.5,-14 11,-28.5 24,-42 13,-13.5 14,-27 26,-36 12,-9 20,-17 28,-17 8,0 23.5,6.5 31,9 7.5,2.5 17,6 17,6 0,0 -8,13 -16,18 -8,5 -23.5,15 -29,20 -5.5,5 -19,20.5 -25,27 -6,6.5 -18.5,19 -23,30 -4.5,11 -11.5,15 -16,22 -4.5,7 -7.5,20 -8,28 -0.5,8 5.23113,25.5981 4,32 -4.5,2.25 -10.91849,2.4819 -25,2.5 z m -69,-22.75 c 2.11783,-18.7319 10,-51.25 12,-64.75 2,-13.5 6.5,-53 6,-62 -0.5,-9 1,-16 7,-27 6,-11 20.5,-26 24,-35 3.5,-9 21,-25 21,-25 0,0 22,9 27,8 -1.768,13.457 -8,20 -8,28 0,8 -5.5,41 -8,50 -2.5,9 -13,22.5 -15,34 -2,11.5 -2.5,18.5 -8,32 -5.5,13.5 -7,43 -7,48 0,5 2.15792,18.9249 -1,35.25 -16.29183,-0.9879 -36.31079,-11.2338 -50,-21.5 z M 772,854 c 15.333,2.333 19,0 24,3 5,3 13.333,15.333 17,24 3.667,8.667 7,20 3,32 -4,12 -9.333,18.667 -21,26 -11.667,7.333 -24.667,13.333 -34,10 -9.333,-3.333 -26.667,-5.667 -34,-15 -7.333,-9.333 -16,-20 -16,-31 0,-11 1.379,-17.762 7,-26 6.279,-9.203 17.667,-20 27,-20 9.333,0 11.667,-5.333 27,-3 z m 260,235 c 6.5,5.5 21.5,0.5 31,-2 9.5,-2.5 13.5,1 23,2 9.5,1 16,-3.5 21,2 5,5.5 7.5,22 3,29 -4.5,7 -1.5,14.5 5,19 6.5,4.5 16.5,16 21,22 4.5,6 13.5,18 7,31 -6.5,13 -14,10.5 -30,13 -16,2.5 -26,-4.5 -35,-5 -9,-0.5 -19,-6.5 -26,-1 -7,5.5 -31.5,1.5 -38,-5 -6.5,-6.5 -30,-24.5 -34,-32 -4,-7.5 -10,-9 2,-18 12,-9 17,-15.5 23,-17 6,-1.5 15,13.5 21,13 6,-0.5 13.5,0 21,6 7.5,6 14.5,9 22,13 7.5,4 13.5,7.5 18,10 4.5,2.5 7,7.5 12,11 5,3.5 13.5,-6 9,-11 -4.5,-5 -16,-14.5 -26,-19 -10,-4.5 -16,-6 -22,-11 -6,-5 -18.5,-12 -28,-13 -9.5,-1 -12,-5.5 -13,-11 -1,-5.5 6.5,-31.5 13,-26 z m 2,-375 c 2.5,-14.5 10,-33 19,-40 9,-7 16.5,-14.5 19,-15 2.5,-0.5 12.5,31 17,36 4.5,5 14.5,6.5 19,-6 4.5,-12.5 22,-32.5 33,-42 11,-9.5 10.5,-12 14,-15 3.5,-3 8,14 12,18 4,4 7.5,7 17,-7 9.5,-14 30,-28 38,-30 8,-2 32,-14.5 40,-8 8,6.5 7.5,16.5 9,25 1.5,8.5 7,28.5 7,38 0,9.5 -2.5,24 2,43 4.5,19 7.5,51 3,61 -4.5,10 -9.5,21.5 -13,34 -3.5,12.5 -20,33.5 -27,41 -7,7.5 -26.5,29 -34,37 -7.5,8 -5.5,14 3,13 8.5,-1 15,0 24,5 9,5 12,15.5 18,21 6,5.5 14,9 14,14 0,5 -11,2.5 -16,7 -5,4.5 -11.5,5.5 -20,11 -8.5,5.5 -7.5,15.5 -7,26 0.5,10.5 -2.5,15.5 -21,20 -18.5,4.5 -38,9 -49,8 -11,-1 -12,12.5 -12,21 0,8.5 -4.5,14.5 -16,21 -11.5,6.5 -36,18 -52,19 -16,1 -34,12.5 -41,6 4.658,-22.059 9,-32.5 10,-42 1,-9.5 21.5,-15.5 24,-29 2.5,-13.5 21,-37 21,-51 30.158,9.775 96,-3 96,-3 0,0 4,-8.5 0,-13 -4,-4.5 -84,9.5 -94,4 0.262,-13.568 -4,-25 -4,-25 0,0 16.5,-28 19,-32 12.168,1.545 54.5,-14 68,-17 13.5,-3 38,-12.5 48,-22 10,-9.5 16,-12.5 26,-25 10,-12.5 5,-13 5,-13 0,0 -2.5,-7 -9,-1 -6.5,6 -25.5,27 -38,33 -12.5,6 -23.5,12.5 -35,16 -11.5,3.5 -39,12.5 -46,13 -7,0.5 3.5,-8 15,-20 11.5,-12 27.5,-42 33,-49 5.5,-7 20,-13 33,-21 13,-8 36.5,-19 44,-22 7.5,-3 -6,-11 -14,-8 -8,3 -34.5,16 -40,17 -5.5,1 14,-15.5 20,-27 6,-11.5 7,-23.5 18,-40 11,-16.5 11.5,-25.5 13,-32 1.5,-6.5 7.5,-23 6,-30 -1.5,-7 -12.5,-3.5 -13,1 -0.5,4.5 -9,21.5 -9,27 0,5.5 -6,21 -11,30 -5,9 -6,13.5 -11,18 -5,4.5 -7,16 -10,23 -3,7 -7.5,10 -12,14 -4.5,4 -9,12 -12,19 -3,7 -17.5,26.5 -22,35 -4.5,8.5 -6,-6 -3,-20 3,-14 -1.5,-17.5 3,-32 4.5,-14.5 1.5,-29.5 4,-35 2.5,-5.5 -12.5,-15.5 -14,-9 -1.5,6.5 -2,28 -2,32 0,4 -3.5,22 -4,30 -0.5,8 0,17.5 -2,24 -2,6.5 -2,24 -2,31 0,7 -5.5,14.5 -12,22 -6.5,7.5 -28,33.5 -32,41 -4,7.5 -8.5,12 -11,14 -12.674,-10.701 -24,-15.5 -27,-18 2.934,-9.062 5.5,-18.5 12,-26 6.5,-7.5 4.5,-28 4,-38 -0.5,-10 -6.5,-18 -4,-32 2.5,-14 3,-36 6,-48 3,-12 9,-18.5 5,-21 -4,-2.5 -14,-6 -14,0 0,6 -6.5,24 -6,31 0.5,7 -3,36 -3,42 0,6 2,19 2,25 0,6 1,18 -2,27 -3,9 -7.5,27 -11,30 -3.5,3 -7,0 -11,0 8.34,-16.186 6.5,-28.5 9,-42 2.5,-13.5 3,-27.5 7,-38 4,-10.5 3,-21.5 2,-29 -1,-7.5 -6,-16.5 -7,-27 -1,-10.5 -8.5,-9.5 -6,-24 z M 953,495 c -3,-7 4.5,-12.5 4,-21 -0.5,-8.5 -6,-14 -4,-26 2,-12 5,-23.5 7,-34 2,-10.5 -8.5,-9 -12,-23 -3.5,-14 -13,-18 -16,-28 -3,-10 -11,-18 -13,-26 -2,-8 -14.5,-19.5 -16,-26 -1.5,-6.5 -3,-12.5 -3,-17 10.764,-2.027 25,5.5 29,10 4,4.5 30,41 33,49 3,8 7,27 12,32 5,5 14,10.5 21,11 7,0.5 12,0.5 16,10 4,9.5 -4,19.5 0,29 4,9.5 4.5,24 16,28 11.5,4 18,3.5 18,9 0,5.5 -4.5,26.5 -8,35 -3.5,8.5 -9,20.5 -6,30 3,9.5 17,5.5 25,12 8,6.5 11.5,25.5 8,36 -3.5,10.5 -15,61 -20,71 -5,10 -13.5,31.5 -18,38 -4.5,6.5 -11.5,-7 -12,-20 -0.5,-13 -6,-29.5 -6,-37 0,-7.5 7.5,-9 15,-15 7.5,-6 23,-17 24,-27 1,-10 -10.5,-7 -13,-3 -2.5,4 -8,17 -14,18 -6,1 -19.5,9 -24,13 -13.348,-14.582 -14.5,-14.5 -23,-16 -8.5,-1.5 -20.5,-0.5 -22,-9 -1.5,-8.5 1,-23 3,-28 2,-5 7,-1 16,-8 9,-7 19,-16.5 24,-26 5,-9.5 9.5,-12 15,-15 5.5,-3 8,-7 10,-13 2,-6 -11.5,-9 -16,-3 -4.5,6 -7.5,15.5 -15,16 -7.5,0.5 -3.5,10.5 -9,13 -5.5,2.5 -13,11.5 -15,16 -2,4.5 -7.996,5.344 -11,4 2.736,-19.686 0.5,-26.5 0,-34 -0.5,-7.5 0,-10 6,-12 6,-2 11,-9.5 13,-15 2,-5.5 10,-9 14,-18 4,-9 -7.5,-12 -11,-8 -3.5,4 -9.5,17 -14,20 -4.5,3 -5,15 -8,8 z m -164,90 c 1.5,-16.5 2.5,-44 2,-56 -0.5,-12 -4,-35 0,-43 4,-8 7,-13 14,-18 7,-5 10.5,-17 8,-27 -2.5,-10 -4,-32.5 2,-39 6,-6.5 14.5,-10 27,-11 12.5,-1 22.5,-1 25,-11 2.5,-10 -3,-18 -6,-28 -3,-10 -2,-21.5 2,-35 4,-13.5 9,-24 21,-24 2.525,15.912 0,24.5 8,30 8,5.5 8.5,15.5 17,24 8.5,8.5 5.5,15.5 11,24 5.5,8.5 14,24.5 18,33 4,8.5 10.5,6 10,13 -0.5,7 -9,17 -9,27 0,10 1.5,16.5 3,25 1.5,8.5 -5.5,21 -4,33 1.5,12 1.5,30 0,39 -10.771,-4.928 -11.5,-4 -20,-18 -8.5,-14 -7.5,-13.5 -16,-23 -8.5,-9.5 -21.5,-29.5 -28,-40 -6.5,-10.5 -20,-20 -24,-28 -4,-8 -16,1.5 -12,5 4,3.5 14,13.5 20,24 6,10.5 14.5,28 22,33 7.5,5 11.5,12.5 17,23 5.5,10.5 10.5,22.5 18,28 7.5,5.5 19,13.5 23,20 4,6.5 -1.5,29.5 -2,35 -0.5,5.5 -30,7.5 -37,0 -7,-7.5 -19,-18 -27,-28 -8,-10 -22.5,-23 -24,-34 -1.5,-11 -16,-6.5 -14,-2 2,4.5 8.5,19 14,24 5.5,5 6.5,17 14,23 7.5,6 15.5,16.5 19,21 3.5,4.5 -21,8 -35,7 -14,-1 -15,7.5 -30,6 -15,-1.5 -24.5,0.5 -28,-11 -3.5,-11.5 -0.5,-4.5 1,-21 z M 637,450 c -9.5,-14.5 -16,-19.5 -22,-28 -6,-8.5 -12,-10.5 -19,-20 -7,-9.5 -13.5,-11 -18,-17 -4.5,-6 -18.5,-14.5 -24,-21 -5.5,-6.5 -18,-8.5 -24,-11 -6,-2.5 5.5,-6.5 14,-7 8.5,-0.5 24,3.5 39,4 15,0.5 35.5,2.5 48,9 12.5,6.5 31.5,18 38,18 6.5,0 25,-7.5 37,3 12,10.5 18,25 27,37 9,12 12,24 21,32 9,8 17,22.5 21,30 4,7.5 3,43.5 3,53 0,9.5 -3,42 -4,50 -1,8 -2,12.5 -8,17 -6,4.5 -17,-10.5 -25,-14 -8,-3.5 -15.5,-9.5 -16,-21 -0.5,-11.5 6.5,-22.5 5,-30 -1.5,-7.5 -4,-32.5 -2,-41 2,-8.5 -2.5,-35.5 -5,-44 -2.5,-8.5 -3,-12.5 -5,-20 -2,-7.5 -12,5 -11,11 1,6 5.5,35.5 6,43 0.5,7.5 -2.5,14.5 0,27 2.5,12.5 4.5,15 3,24 -1.5,9 -4.5,28.5 -6,34 -1.5,5.5 -5.5,1.5 -9,-8 -3.5,-9.5 -6,-22.5 -14,-27 -8,-4.5 -15.5,-31 -16,-39 -0.5,-8 -14,-20.5 -17,-28 -3,-7.5 1.5,-15.5 2,-29 0.5,-13.5 1,-26 -5,-35 -6,-9 -12.5,-4.5 -16,-15 -3.5,-10.5 -20,-5 -17,1 3,6 12.5,17.5 18,25 5.5,7.5 3.984,23.645 1,37 z m -50,171 c -7,-7.5 -17.5,-18 -22,-29 -4.5,-11 -5.5,-22 4,-27 -4.506,-12.18 -20,-24 -25,-31 -5,-7 -15,-21 -18,-27 -3,-6 -7,-15.5 -4,-24 3,-8.5 3,-11 3,-19 0,-8 -6.5,-19.5 -9,-27 -2.5,-7.5 3.5,-19 0,-28 -3.5,-9 -13,-27 -13,-37 0,-10 5.5,-16 12,-11 6.5,5 18.5,9 24,9 5.5,0 4.5,11 14,18 9.5,7 9.5,-0.5 18,15 8.5,15.5 12.5,20.5 21,25 8.5,4.5 15.5,12.5 19,19 3.5,6.5 10,10.5 19,20 9,9.5 21,20.5 23,30 -12.979,-7.268 -16.5,-3.5 -24,-11 -7.5,-7.5 -18.5,-9 -24,-14 -5.5,-5 -23,-12 -29,-17 -6,-5 -16,3.5 -9,9 7,5.5 11,12 19,13 8,1 21,12 31,18 10,6 5,10 15,13 10,3 20,12.5 25,15 5,2.5 24,30.5 25,39 -16.119,-7.033 -20.5,-3.5 -29,-9 -8.5,-5.5 -14,-4.5 -26,-12 -12,-7.5 -19.5,-4 -29,-16 -9.5,-12 -10.5,-9 -16,-15 -5.5,-6 -17,1.5 -11,9 6,7.5 17,19.5 25,25 8,5.5 18,6.5 27,12 9,5.5 15,6 29,13 14,7 16,-1.5 25,12 9,13.5 0,19 -4,21 -4,2 -12,6.5 -25,0 -13,-6.5 -13.5,-7 -25,3 -11.5,10 -29,23.5 -36,16 z m -86,42 -16,-8 c 0,0 2,-6.5 -5,-16 -7,-9.5 -19.5,-31 -27,-37 -7.5,-6 -20.5,-17.5 -29,-21 -8.5,-3.5 -22,-11 -28,-14 -6,-3 -8.5,-8.5 -15,-13 -6.5,-4.5 -13.5,-10 -19,-12 -5.5,-2 -15,-11.5 -22,-11 -7,0.5 -13.5,-2.5 -18,-3 11.338,-9.521 19.5,-12.5 33,-13 13.5,-0.5 28,-0.5 41,0 13,0.5 25,-1 39,-5 14,-4 20,-5 20,-5 0,0 13.5,7 19,10 5.5,3 30,14 38,15 8,1 12,5 16,10 4,5 9.5,13.5 14,18 4.5,4.5 10.5,5.5 6,14 -4.5,8.5 -1,13.5 1,18 2,4.5 6.5,16 12,21 5.5,5 11.5,15 15,18 3.5,3 6,6 6,6 0,0 -15,19.5 -21,26 -6,6.5 -19,20.5 -23,25 -9.844,-4.273 -15,-12.5 -15,-19 0,-6.5 1,-19.5 4,-26 3,-6.5 -6.5,-13 -7,-24 -0.5,-11 3,-18.5 -3,-26 -6,-7.5 -12.5,-18.5 -15,-24 -2.5,-5.5 -9.912,-18.662 -14,-22 -4.088,-3.338 -14,4 -8,10 6,6 12.5,18 15,24 2.5,6 8.5,16.5 12,20 3.5,3.5 -3,18.5 -1,24 2,5.5 6.5,13 6,17 -0.5,4 -7.674,17.873 -11,23 z m -8.913,162.465 c 0,0 -45.087,-2.965 -54.087,-5.465 -9,-2.5 -31,-9.5 -33,-14 2.031,-15.447 4.5,-21.5 4,-26 -0.5,-4.5 -7.5,-6 -16,-10 -8.5,-4 -36.5,-27.5 -40,-38 -3.5,-10.5 -7.5,-25 -1,-33 6.5,-8 25,-10 32,-10 7,0 9,-8.5 1,-15 -8,-6.5 -36,-21 -43,-28 -7,-7 -22.5,-11.5 -19,-23 3.5,-11.5 6.5,-15.5 14,-20 7.5,-4.5 1.5,-14 -5,-22 -6.5,-8 -18.5,-32 -19,-38 13.004,8.031 21,1.5 28,4 7,2.5 15,6.5 22,12 7,5.5 16,21 27,23 11,2 34,16 44,24 10,8 30.5,35.5 33,39 2.5,3.5 -6,9.5 -12,8 -6,-1.5 -26,-7.5 -40,-12 -14,-4.5 -29,-9 -40,-10 -11,-1 -13,8 -4,13 9,5 19.5,5 36,9 16.5,4 26,8.5 35,10 9,1.5 20.5,-3.5 40,7 19.5,10.5 37.5,23 42,30 -5.826,11.43 -10.5,29 -16,32 -5.5,3 -34,4.5 -49,1 -15,-3.5 -30,-2.5 -39,-4 -9,-1.5 -13.5,-4 -19,-7 -5.5,-3 -18,-5.5 -18,3 0,8.5 11,12 23,16 12,4 27.5,2 38,4 10.5,2 21.5,6 34,6 12.5,0 19.5,-4 24,-1 -5.1,13.035 -5,28 -5,28 0,0 -15,2.5 -21,2 -6,-0.5 -7,11 -1,11 6,0 12,2 15,2 -1.456,12.889 5.55,33.238 2.087,32.465 z M 496,997 c -14.5,-0.5 -53.5,-5.5 -68,-1 -14.5,4.5 -29,7 -39,4 -10,-3 -23.5,1.5 -33,-4 -9.5,-5.5 -20.5,-5 -34,-2 -13.5,3 -40.5,-2 -41,-14 -0.5,-12 2,-29 0,-39 -2,-10 -6,-13.5 -19,-12 -13,1.5 -35,0 -42,5 -7,5 -20.5,-10.5 -16,-20 4.5,-9.5 14,-18.5 29,-24 15,-5.5 35.5,-7 48,-15 12.5,-8 20,-21 36,-26 16,-5 34,-9 41,-21 7,-12 13,-16.5 18,-16 5,0.5 17.5,11.5 28,13 10.5,1.5 33,6 48,9 15,3 39,6 39,6 0,0 3.5,28.5 3,34 -0.5,5.5 1,18 1,18 0,0 -15.5,3.5 -27,-1 -11.5,-4.5 -24,-13 -29,-18 -5,-5 -5,-14.5 -9,-16 -4,-1.5 -29,-11 -29,-11 l -3,12 c 0,0 12.5,5.5 19,7 6.5,1.5 15.5,22.5 21,27 -15.604,-4.297 -17,1 -30,-5 -13,-6 -29,-5.5 -39,-15 -10,-9.5 -6,5.5 -13,9 -7,3.5 -36.5,4.5 -45,8 -8.5,3.5 -27,10.5 -34,12 -7,1.5 -10,5 -11,10 -1,5 2,8.5 12,6 10,-2.5 19.5,-9.5 28,-10 8.5,-0.5 15.5,-3 26,-4 10.5,-1 18.5,-5.5 26,-7 7.5,-1.5 23,6 23,6 0,0 -8,7.5 -15,13 -7,5.5 -18,12.5 -23,17 -5,4.5 -13,17 -16,23 -3,6 -6,12 -6,18 0,6 6,-2 15,-13 9,-11 13.5,-12.5 21,-16 7.5,-3.5 11.5,-14 18,-18 6.5,-4 16.5,-19 23,-22 6.5,-3 17,6.5 32,6 15,-0.5 41.5,4 47,3 -17.607,4.832 -13,9 -21,11 -8,2 -10.5,7 -15,14 -4.5,7 -10.5,8.5 -15,13 -4.5,4.5 -4,18.5 0,18 4,-0.5 11,-10 19,-16 8,-6 8,-14.5 16,-17 8,-2.5 15.5,-3 22,-12 6.5,-9 5.5,-15 11,-15 5.5,0 17.5,2 25,7 7.5,5 2.5,7 -6,18 -8.5,11 -13.725,31.189 -17,63 z m 129,145 c -9.5,8.5 -9,16 -27,19 -18,3 -50.5,0.5 -59,0 -8.5,-0.5 -21.5,2 -31,12 -9.5,10 -24.5,25.5 -31,32 -6.5,6.5 -15,-17 -14,-23 1,-6 3.5,-14 0,-17 -3.5,-3 -23,5 -30,12 -7,7 -32,19 -39,23 -7,4 -23.5,7.5 -27,11 -3.5,3.5 -8,2.5 -14,-3 -6,-5.5 -7,-21 -4,-34 3,-13 -2.5,-19 2,-26 4.5,-7 16.5,-6 16,-14 -0.5,-8 -11.5,-14 -18,-14 -6.5,0 -12.5,-2 -13,-10 -0.5,-8 3,-14.5 15,-24 12,-9.5 32,-22 40,-29 8,-7 16,-8.5 21,-10 5,-1.5 -2.365,-14.758 0,-20 2.365,-5.242 -1.5,-10.5 12,-15 13.5,-4.5 27.5,-4.5 42,-4 14.5,0.5 33,2 36,4 3,2 9.5,12 9,19 -15.582,0.578 -23.5,7 -31,5 -7.5,-2 -19.5,-4.5 -25,-8 -5.5,-3.5 -11.5,-4 -16,-3 -4.5,1 -1.5,7.5 8,10 9.5,2.5 23,11.5 31,12 8,0.5 23,2.5 29,1 6,-1.5 11,-3 11,-3 0,0 4.5,11.5 9,15 4.5,3.5 7,9 7,9 0,0 -14,8 -27,12 -13,4 -42.5,8 -55,10 -12.5,2 -43.5,8.5 -55,8 -11.5,-0.5 -2.5,12 6,12 8.5,0 31.5,-3 40,-4 -15.543,11.379 -27.5,13 -37,22 -9.5,9 -27.5,28 -30,34 -2.5,6 8.5,15 12,9 3.5,-6 18,-25.5 28,-32 10,-6.5 24,-11.5 35,-17 11,-5.5 29.5,-19 37,-21 7.5,-2 24,-10 32,-11 8,-1 14,-4 21,-3 -15.43,17.258 -33,51 -36,57 -3,6 4.5,13 10,6 5.5,-7 16.5,-22.5 21,-32 4.5,-9.5 14.5,-24 21,-28 6.5,-4 24,18 24,25 0,7 -3.5,20.5 -6,28 -2.5,7.5 5,14 12,5 7,-9 8,-19.5 8,-28 11.467,4.68 23.209,9.896 30,21 z"
       style="fill:#14a93b;fill-opacity:1"
       id="path2996" /><path
       inkscape:connector-curvature="0"
       d="m 583.56893,654.17495 c 0,0 24.954,13.682 29.35,17.523 4.396,3.842 2.383,-8.879 -5.748,-17.234 -8.129,-8.354 -11.182,-14.106 -11.182,-14.106 l -12.42,13.817 z M 824,1195 c 16.48,3.234 26.5,6.5 37,7 10.5,0.5 27.5,2.5 30,-2 2.5,-4.5 2.5,-17 -1,-21 -3.5,-4 -10.551,-3.173 -21,0 -10.848,3.294 -40.693,9.441 -45,16 z M 517,1002 c -4.166,-5.822 -9,-17.5 -7,-30 2,-12.5 4.5,-15.5 7,-21 6.236,7.629 9,8.5 9,15 0,6.5 1.101,22.501 1,27 -0.211,9.365 -6.295,14.178 -10,9 z m 48,79 c 8,-6.5 13.5,-12.5 20,-17 -5.562,-16.355 -15.5,-30 -20,-34 -4.5,-4 -29,-11 -33,-11 -4,0 -11.5,3 -10,8 1.5,5 16.5,31 23,35 6.5,4 11.688,12.896 20,19 z m 76,45 c 0,0 15,-18.5 15,-24 0,-5.5 -8,-16 -8,-16 0,0 -36.5,-9.5 -45,-12 -8.5,-2.5 -22.5,7.5 -25,14 16.045,17.537 19,24.5 31,32 12,7.5 32,6 32,6 z m 56,3 c 0,0 -39.5,6.5 -48,2 12.025,-16.617 19.5,-33 20,-39 0.5,-6 6.5,-6 10,-4 3.5,2 15.26,10.35 18,41 z M 533.167,907.551 C 517.5,898 503.5,891 505,874 c 1.5,-17 0,-15 2,-22 16.594,-6.906 48,-26 58,-37 10,-11 9,-23.5 11,-32 2,-8.5 15,-16 22,-21 7,-5 9,-18 7,-29 -2,-11 4,-24 11,-37 7,-13 9.5,-19 11,-24 1.5,-5 -20.5,-35.5 -21,-40 8.607,-5.879 26,-18 26,-18 0,0 12.5,8 20,8 7.5,0 27,-6 41,-18 14,-12 16.5,-15 19,-15 2.5,0 27,20 40,27 13,7 31.5,18 33,23 -10.074,10.109 -14,26.5 -17,32 -3,5.5 -25.411,34.196 -22,58 2.105,14.695 8.598,36.012 7,49 -1.301,10.574 15.5,13.5 15,3 -0.5,-10.5 -6.5,-40 -7,-49 -0.5,-9 1.5,-24 8,-36 6.5,-12 14,-22.5 15,-29 1,-6.5 11,-17 19,-21 8,-4 26.5,-16.5 33,-22 6.5,-5.5 12.5,-2.5 24,-4 11.5,-1.5 29,-4.5 36,-5 7,-0.5 30.5,9.5 42,4 11.5,-5.5 24.5,-4 30,-1 5.5,3 15,21 15,21 0,0 -12,13 -18,19 -6,6 -14.5,21 -13,33 10.881,0.676 13,-6 13,-6 0,0 -1,-14.5 5,-19 6,-4.5 16.5,-12.5 21,-17 6.971,7.887 7.5,28 12,37 4.5,9 15,38 21,49 6,11 8.5,23.5 12,33 3.5,9.5 -3.5,27.5 -6,37 -2.5,9.5 -2.5,29.5 -9,44 -6.5,14.5 -2.5,29 -10,34 -7.5,5 -12.539,4.904 -25,10 -17.811,7.283 -24.5,20 -34,21 -9.5,1 -15,4.5 -24,2 -9,-2.5 -20.5,-2.5 -31,3 -10.5,5.5 -10,13 -3,11 7,-2 17,-3.5 22,-4 5,-0.5 11.5,1 19,2 7.5,1 29.5,-3 37,-6 7.5,-3 4,-12 19,-19 15,-7 25,-9.5 30,-10 5,-0.5 25.5,2 34,11 8.5,9 17.717,13.078 19,22 2.723,18.939 3,33.5 -7,51 -10,17.5 -15,25.5 -22,31 -7,5.5 -18,25.5 -20,43 -2,17.5 -6.5,37.5 -9,44 -2.5,6.5 -7.5,17.5 -20,26 -12.5,8.5 -45.5,23 -61,31 -15.5,8 -29.5,5.5 -42,7 -12.5,1.5 -30.5,6 -43,12 -12.5,6 -32,16.5 -40,17 -8,0.5 -15.5,0 -18,-8 -2.5,-8 -7.5,-31.5 -4,-43 3.5,-11.5 1.5,-38.5 8,-66 6.5,-27.5 -4,-42 -4,-42 l -9,4 c 0,0 4,15.5 2,24 -2,8.5 -9.5,34.5 -10,49 -0.5,14.5 1.5,34.5 -1,41 -2.5,6.5 -13.5,9.5 -20,8 -6.5,-1.5 -32.665,-7.174 -37,-18 -5.033,-12.57 -9,-34.5 -12,-45 -3,-10.5 -17.5,-23.5 -30,-24 -12.5,-0.5 -29,1 -41,-3 -12,-4 -25,-4 -29,-8 -4,-4 -9,-20.5 -20,-33 -11,-12.5 -34.5,-19 -43,-19 4.77,-11.301 3.088,-23.967 0,-36 -4.49,-17.496 -9.5,-30.5 -5,-51 19.166,-4.266 30.5,-11 43,-13 12.5,-2 28,-0.5 40,-4 12,-3.5 8,-0.5 23,-1 15,-0.5 30.5,-3 38,-7 7.5,-4 16,-6.5 20,-4 -3.109,10.01 -2,25 -2,25 0,0 -21,9.5 -32,14 -11,4.5 -21,11.5 -27,16 -6,4.5 -3,8 -3,8 0,0 5,0.5 18,-6 13,-6.5 25,-12 34,-15 9,-3 12,-7 12,-7 0,0 10,14.5 15,19 -11.1,13.547 -10,17 -10,17 l 5,3 c 0,0 6,-7.5 13,-8 7,-0.5 9,5 9,5 0,0 -2.5,66.5 -1,78 10.99,1.08 13,-2 13,-2 0,0 0.5,-35.5 2,-50 1.5,-14.5 2,-24 2,-24 0,0 18.5,6.5 22,-2 13.312,28.066 20.5,28 25,31 4.5,3 12.5,13 16,19 3.5,6 3,23 6,30 3,7 4.5,19 6,24 10.223,3.203 9,-1 9,-1 l 2,-11 c 0,0 -4.5,-11 -6,-26 -1.5,-15 -3.5,-20 -11,-28 -7.5,-8 -31,-29.5 -33,-41 13.635,-1.756 17,-2.5 23,-3 6,-0.5 13.5,9 25,18 11.5,9 41.5,32.5 48,37 3.553,-2.846 6,-8 6,-8 0,0 -31.5,-28.5 -39,-37 25.807,3.389 47,-7 47,-7 l -4,-11 c 0,0 -10.5,2.5 -26,5 -15.5,2.5 -36.5,3.5 -40,-1 -3.5,-4.5 -13,-10 -13,-10 0,0 29,-19.5 19,-50 35.689,-5.115 62,-24 62,-24 0,0 1,-8 -4,-6 -5,2 -18,7 -27,9 -9,2 -21,9 -30,10 -5.686,-9.311 -11,-18 -11,-18 0,0 22.5,-27.5 28,-35 5.5,-7.5 16,-15 16,-15 l -7,-7 c 0,0 -38,43.5 -44,50 -3.926,-2.471 -7,-5 -7,-5 0,0 12,-16 12,-25 0,-9 4.83,-33.574 1,-49 -11.084,3.514 -14,8 -14,8 0,0 3.5,12 2,24 -1.5,12 -6,28 -10,33 -9.979,-7.873 -38,-1 -38,-1 0,0 -13,-27.5 -18,-43 -5,-15.5 -10,-44 -10,-44 0,0 -10.5,-11 -14,-10 -3.5,1 3.672,11.022 3,21 -0.879,13.041 1,17 7,27 6,10 13.5,41 16,48 -6.166,4.092 -13,5 -13,5 0,0 -16.5,-13 -22,-17 -5.5,-4 -8.5,-13 -12,-25 -3.5,-12 -12,-33 -12,-33 h -11 c 0,0 5,12.5 9,25 4,12.5 3,27.5 10,36 7,8.5 27,21 27,21 l -12,19 c 0,0 -63,-39 -75,-45 -12,-6 -25,3 -25,3 l 9,5 c 0,0 22,4.5 34,12 12,7.5 31.5,24.5 37,32 -15.387,6.031 -19.885,9.79 -27,9 -9.748,-1.082 -35,1 -47,2 -12,1 -17.985,4.898 -26,5 -19.152,0.244 -36.521,7.998 -54.833,15.551 z M 506.962,834.122 C 505.792,801.293 502.873,782.1 519,743 c 17.137,-41.549 51,-74.5 57,-80 14.238,8.141 32,12 34,16 2,4 -11.5,20 -14,24 -2.5,4 -13,-0.5 -18,1 -5,1.5 -25,17.5 -28,22 6.895,10.881 8,11 8,11 0,0 10,-13.5 18,-16 8,-2.5 17.5,4 16,17 -1.5,13 -24.518,36.705 -66,48 5.958,7.222 10,12 10,12 0,0 21.078,-12.776 24,-10 5.402,5.133 -4,13.5 -8,16 -4,2.5 -38.06,36.891 -45.038,30.122 z"
       style="fill:#ffb401;fill-opacity:1;display:inline"
       id="path3091" /></g></g></svg>