<?xml version="1.0" encoding="UTF-8" standalone="no"?>
<!-- Generator: Adobe Illustrator 15.0.0, SVG Export Plug-In . SVG Version: 6.00 Build 0)  -->

<svg
   xmlns:dc="http://purl.org/dc/elements/1.1/"
   xmlns:cc="http://creativecommons.org/ns#"
   xmlns:rdf="http://www.w3.org/1999/02/22-rdf-syntax-ns#"
   xmlns:svg="http://www.w3.org/2000/svg"
   xmlns="http://www.w3.org/2000/svg"
   xmlns:sodipodi="http://sodipodi.sourceforge.net/DTD/sodipodi-0.dtd"
   xmlns:inkscape="http://www.inkscape.org/namespaces/inkscape"
   version="1.1"
   id="Layer_1"
   x="0px"
   y="0px"
   width="16"
   height="16.00103"
   viewBox="0 0 16 16.00103"
   enable-background="new 0 0 16 16"
   xml:space="preserve"
   inkscape:version="0.48.4 r9943 custom"
   sodipodi:docname="octocat.svg"><metadata
   id="metadata2992"><rdf:RDF><cc:Work
       rdf:about=""><dc:format>image/svg+xml</dc:format><dc:type
         rdf:resource="http://purl.org/dc/dcmitype/StillImage" /></cc:Work></rdf:RDF></metadata><defs
   id="defs2990" /><sodipodi:namedview
   pagecolor="#ffffff"
   bordercolor="#666666"
   borderopacity="1"
   objecttolerance="10"
   gridtolerance="10"
   guidetolerance="10"
   inkscape:pageopacity="0"
   inkscape:pageshadow="2"
   inkscape:window-width="640"
   inkscape:window-height="480"
   id="namedview2988"
   showgrid="false"
   fit-margin-top="0"
   fit-margin-left="0"
   fit-margin-right="0"
   fit-margin-bottom="0"
   inkscape:zoom="14.75"
   inkscape:cx="8"
   inkscape:cy="8.0010303"
   inkscape:window-x="0"
   inkscape:window-y="23"
   inkscape:window-maximized="0"
   inkscape:current-layer="Layer_1" />
<path
   clip-rule="evenodd"
   d="M 8,0 C 3.582,0 0,3.673 0,8.204 c 0,3.624 2.292,6.698 5.471,7.783 0.4,0.075 0.546,-0.178 0.546,-0.396 0,-0.194 -0.007,-0.71 -0.011,-1.396 -2.225,0.496 -2.695,-1.1 -2.695,-1.1 -0.364,-0.947 -0.888,-1.199 -0.888,-1.199 -0.726,-0.509 0.055,-0.498 0.055,-0.498 0.803,0.057 1.225,0.845 1.225,0.845 0.714,1.253 1.873,0.892 2.328,0.681 0.073,-0.529 0.28,-0.891 0.508,-1.096 C 4.762,11.621 2.895,10.918 2.895,7.774 2.895,6.878 3.207,6.146 3.718,5.573 3.637,5.366 3.362,4.532 3.798,3.402 c 0,0 0.671,-0.22 2.2,0.841 C 6.636,4.061 7.32,3.971 8,3.967 8.679,3.97 9.364,4.061 10.003,4.243 11.53,3.181 12.2,3.402 12.2,3.402 c 0.437,1.129 0.162,1.963 0.08,2.171 0.512,0.573 0.821,1.306 0.821,2.201 0,3.151 -1.87,3.845 -3.652,4.048 0.288,0.252 0.544,0.754 0.544,1.518 0,1.098 -0.011,1.982 -0.011,2.251 0,0.22 0.145,0.475 0.551,0.395 C 13.71,14.898 16,11.826 16,8.204 16,3.673 12.418,0 8,0 z"
   id="path2986"
   class="icon-svg icon--github"
   inkscape:connector-curvature="0"
   style="fill:#231e1b;fill-rule:evenodd" />
</svg>
