<svg xmlns="http://www.w3.org/2000/svg" width="16" height="13" viewBox="0 0 16 13">
    <path class="icon-svg icon--twitter" d="m 16,1.5388 c -0.588386,0.261 -1.221134,0.4375 -1.885014,0.517 0.677574,-0.4064 1.19784,-1.0495 1.442933,-1.8157 -0.63415,0.3762 -1.336422,0.6491 -2.084458,0.7962 C 12.875009,0.3987 12.021867,0 11.07778,0 9.2648663,0 7.7954805,1.4694 7.7954805,3.282 c 0,0.2574 0.028758,0.508 0.084952,0.7479 C 5.152342,3.8932 2.73372,2.5863 1.11475,0.6007 0.832192,1.0853 0.670341,1.6489 0.670341,2.2506 c 0,1.1388 0.579246,2.1432 1.460257,2.732 C 1.592552,4.9656 1.086344,4.8181 0.643772,4.5721 c -5.03e-4,0.014 -5.03e-4,0.027 -5.03e-4,0.041 0,1.5905 1.131593,2.9167 2.633049,3.2185 -0.275197,0.075 -0.565106,0.1147 -0.864496,0.1147 -0.211723,0 -0.417009,-0.02 -0.617776,-0.059 0.41798,1.3039 1.629972,2.253 3.066585,2.2795 C 3.736318,11.0473 2.321217,11.5716 0.783243,11.5716 0.518475,11.5716 0.256996,11.5556 0,11.5256 1.453234,12.4569 3.178363,13 5.032242,13 c 6.037428,0 9.338571,-5.001 9.338571,-9.3385 0,-0.1422 -0.0033,-0.2835 -0.0092,-0.4243 0.641057,-0.4631 1.19749,-1.041 1.637814,-1.6993" fill="#55acee"><desc>Twitter logo</desc><title>Twitter</title></path>
</svg>
